<svg width="16" height="16" viewBox="0 0 16 16" fill="none" xmlns="http://www.w3.org/2000/svg">
<g clip-path="url(#clip0_10_590)">
<path d="M13.4755 5.98033C13.1126 5.89876 12.7513 6.12082 12.6683 6.47731L11.8904 9.8036L6.02334 9.75073L4.6104 4.19484C4.56428 4.01659 4.44589 3.86402 4.28138 3.7749L2.99759 3.08154C2.67165 2.90632 2.26268 3.02263 2.08279 3.34287C1.90291 3.66311 2.02283 4.06493 2.34878 4.24166L3.37427 4.79604L4.81489 10.4547L4.04 11.0559C3.94775 11.1284 3.89394 11.2371 3.89394 11.3534V12.2991C3.89394 12.506 4.06306 12.6752 4.2737 12.6767L5.36069 12.6918C5.21002 12.8293 5.11316 13.0257 5.11316 13.2447C5.11316 13.6631 5.45755 14.0015 5.88343 14.0015C6.30931 14.0015 6.65371 13.6631 6.65371 13.2447C6.65371 13.0347 6.56607 12.8444 6.42462 12.7069L11.506 12.7764C11.4014 12.9048 11.3369 13.0664 11.3369 13.2432C11.3369 13.6616 11.6813 14 12.1071 14C12.533 14 12.8774 13.6616 12.8774 13.2432C12.8774 13.074 12.819 12.9184 12.7221 12.793L13.3848 12.8021C13.3863 12.8021 13.3879 12.8021 13.3909 12.8021C13.6016 12.8021 13.7722 12.6359 13.7753 12.429C13.7784 12.2205 13.6077 12.0483 13.3955 12.0453L4.66421 11.9244V11.5347L5.30534 11.0377C5.3653 11.0559 5.4268 11.0664 5.49291 11.0679L12.4223 11.1314C12.4239 11.1314 12.4269 11.1314 12.4285 11.1314C12.7421 11.1314 13.0142 10.9184 13.085 10.6178L13.9844 6.77188C14.0643 6.41689 13.8383 6.06191 13.4755 5.98033Z" fill="currentColor"/>
<path d="M10.5607 6.24766H9.93338V4.46669C9.93338 4.24766 9.7535 4.07092 9.53056 4.07092H8.32364C8.10225 4.07092 7.92236 4.24766 7.92236 4.46669V6.24766H7.29507C7.01833 6.24766 6.92608 6.42591 7.09213 6.64494L7.55798 7.25975C7.72403 7.47878 7.99462 7.83527 8.16067 8.05431L8.62653 8.66911C8.79257 8.88814 9.06317 8.88814 9.22922 8.66911L9.69507 8.05431C9.86112 7.83527 10.1317 7.47878 10.2978 7.25975L10.7636 6.64494C10.9281 6.42591 10.8374 6.24766 10.5607 6.24766Z" fill="currentColor"/>
</g>
<defs>
<clipPath id="clip0_10_590">
<rect width="12" height="11" fill="white" transform="translate(2 3)"/>
</clipPath>
</defs>
</svg>
