<svg width="21" height="20" viewBox="0 0 21 20" fill="none" xmlns="http://www.w3.org/2000/svg">
<path d="M7.85714 19.0001C8.33053 19.0001 8.71429 18.6163 8.71429 18.1429C8.71429 17.6695 8.33053 17.2858 7.85714 17.2858C7.38376 17.2858 7 17.6695 7 18.1429C7 18.6163 7.38376 19.0001 7.85714 19.0001Z" stroke="currentColor" stroke-width="2" stroke-linecap="round" stroke-linejoin="round"/>
<path d="M17.2857 19.0001C17.7591 19.0001 18.1429 18.6163 18.1429 18.1429C18.1429 17.6695 17.7591 17.2858 17.2857 17.2858C16.8123 17.2858 16.4286 17.6695 16.4286 18.1429C16.4286 18.6163 16.8123 19.0001 17.2857 19.0001Z" stroke="currentColor" stroke-width="2" stroke-linecap="round" stroke-linejoin="round"/>
<path d="M1 1H4.42857L6.72571 12.4771C6.8041 12.8718 7.01878 13.2263 7.33218 13.4785C7.64559 13.7308 8.03774 13.8649 8.44 13.8571H16.7714C17.1737 13.8649 17.5658 13.7308 17.8792 13.4785C18.1927 13.2263 18.4073 12.8718 18.4857 12.4771L19.8571 5.28571H5.28571" stroke="currentColor" stroke-width="2" stroke-linecap="round" stroke-linejoin="round"/>
</svg>
