<?xml version="1.0" standalone="no"?>
<!DOCTYPE svg PUBLIC "-//W3C//DTD SVG 20010904//EN"
 "http://www.w3.org/TR/2001/REC-SVG-20010904/DTD/svg10.dtd">
<svg version="1.0" xmlns="http://www.w3.org/2000/svg"
 width="96.000000pt" height="96.000000pt" viewBox="0 0 96.000000 96.000000"
 preserveAspectRatio="xMidYMid meet">

<g transform="translate(0.000000,96.000000) scale(0.100000,-0.100000)"
fill="#000000" stroke="none">
<path d="M154 821 c-39 -24 -56 -65 -52 -127 l3 -49 375 0 375 0 3 52 c2 33
-3 63 -13 82 -30 59 -44 61 -367 61 -269 0 -296 -2 -324 -19z m630 -57 c9 -8
16 -26 16 -40 l0 -24 -320 0 -320 0 0 24 c0 55 7 56 320 56 249 0 291 -2 304
-16z"/>
<path d="M107 574 c-4 -4 -7 -88 -7 -186 0 -269 1 -270 262 -266 l173 3 0 225
0 225 -211 3 c-115 1 -213 -1 -217 -4z m373 -224 l0 -170 -144 0 c-118 0 -147
3 -160 16 -13 13 -16 43 -16 170 l0 154 160 0 160 0 0 -170z"/>
<path d="M604 567 c-3 -8 -4 -52 -2 -98 l3 -84 125 0 125 0 0 95 0 95 -123 3
c-96 2 -124 0 -128 -11z m196 -87 l0 -40 -70 0 -70 0 0 40 0 40 70 0 70 0 0
-40z"/>
<path d="M604 307 c-3 -8 -4 -52 -2 -98 l3 -84 82 -3 c130 -4 177 34 171 141
l-3 52 -123 3 c-96 2 -124 0 -128 -11z m196 -71 c0 -40 -25 -56 -86 -56 l-54
0 0 40 0 40 70 0 c67 0 70 -1 70 -24z"/>
</g>
</svg>
