<svg width="16" height="16" viewBox="0 0 16 16" fill="none" xmlns="http://www.w3.org/2000/svg">
<g clip-path="url(#clip0_10_590)">
<path d="M3.71777 2C3.3221 2 3 2.32079 3 2.71485V13.2832C3 13.6772 3.3221 13.998 3.71777 13.998H10.126V12.5941C10.126 11.9743 10.6311 11.4713 11.2534 11.4713H12.8182V2.71485C12.8182 2.32079 12.4961 2 12.1004 2H3.71777ZM10.9472 8.54653H4.87098V8.05347H10.9452V8.54653H10.9472ZM10.9472 6.82376H4.87098V6.33069H10.9452V6.82376H10.9472ZM10.9472 5.10297H4.87098V4.6099H10.9452V5.10297H10.9472Z" fill="currentColor"/>
<path d="M10.5356 12.594V13.7287L12.506 11.8772H11.2534C10.8577 11.8792 10.5356 12.2 10.5356 12.594Z" fill="currentColor"/>
</g>
<defs>
<clipPath id="clip0_10_590">
<rect width="9.81818" height="12" fill="white" transform="translate(3 2)"/>
</clipPath>
</defs>
</svg>
