<svg width="16" height="16" viewBox="0 0 16 16" fill="none" xmlns="http://www.w3.org/2000/svg">
<g clip-path="url(#clip0_10_590)">
<path d="M13.8153 10.7359H12.6696C12.5669 10.7359 12.4848 10.8163 12.4848 10.9168V12.5105H3.51516V10.9187C3.51516 10.8181 3.43306 10.7377 3.33043 10.7377H2.18473C2.0821 10.7359 2 10.8181 2 10.9187V13.8191C2 13.9196 2.0821 14.0018 2.18473 14.0018H13.8153C13.9179 14.0018 14 13.9214 14 13.8191V10.9187C14 10.8181 13.9179 10.7359 13.8153 10.7359Z" fill="currentColor"/>
<path d="M6.20403 3.37984H9.79601C9.91543 3.37984 10.0125 3.2848 10.0125 3.16783V2.212C10.0125 2.09504 9.91543 2 9.79601 2H6.20403C6.08461 2 5.98758 2.09504 5.98758 2.212V3.16783C5.98758 3.2848 6.08461 3.37984 6.20403 3.37984Z" fill="currentColor"/>
<path d="M5.54717 8.69452L7.62772 11.0814C7.79379 11.2714 8.20803 11.2714 8.3741 11.0814L10.4528 8.69452L12.5315 6.30768C12.6975 6.11761 12.4904 5.88002 12.1583 5.88002H9.97883V3.90621C9.97883 3.8057 9.89486 3.72528 9.7941 3.72528H6.14428C6.04165 3.72528 5.95955 3.8057 5.95955 3.90621V5.87819H3.84168C3.50954 5.87819 3.30242 6.11578 3.46849 6.30585L5.54717 8.69452Z" fill="currentColor"/>
</g>
<defs>
<clipPath id="clip0_10_590">
<rect width="12" height="12" fill="white" transform="translate(2 2)"/>
</clipPath>
</defs>
</svg>
