<svg width="41" height="40" viewBox="0 0 41 40" fill="none" xmlns="http://www.w3.org/2000/svg">
<path d="M18 34.8333C10.9167 33.5833 5.5 27.4167 5.5 20C5.5 11.75 12.25 5 20.5 5C28.75 5 35.5 11.75 35.5 20C35.5 27.4167 30.0833 33.5833 23 34.8333L22.1667 34.1667H18.8333L18 34.8333Z" fill="url(#paint0_linear_255:3140)"/>
<path d="M26.3333 24.1667L27 20H23V17.0834C23 15.9167 23.4167 15 25.25 15H27.1667V11.1667C26.0833 11 24.9167 10.8334 23.8333 10.8334C20.4167 10.8334 18 12.9167 18 16.6667V20H14.25V24.1667H18V34.75C18.8333 34.9167 19.6667 35 20.5 35C21.3333 35 22.1667 34.9167 23 34.75V24.1667H26.3333Z" fill="white"/>
<defs>
<linearGradient id="paint0_linear_255:3140" x1="20.5" y1="33.9617" x2="20.5" y2="5" gradientUnits="userSpaceOnUse">
<stop stop-color="#0062E0"/>
<stop offset="1" stop-color="#19AFFF"/>
</linearGradient>
</defs>
</svg>
