<svg width="41" height="40" viewBox="0 0 41 40" fill="none" xmlns="http://www.w3.org/2000/svg">
<path d="M20.2506 5.45459C16.3004 5.45459 15.8046 5.47186 14.2532 5.54247C12.7047 5.61338 11.6478 5.85853 10.723 6.21823C9.76634 6.58974 8.95485 7.08671 8.14639 7.8955C7.33733 8.70398 6.84037 9.5155 6.46766 10.4719C6.10706 11.397 5.86161 12.4543 5.79192 14.0022C5.72253 15.5537 5.70435 16.0497 5.70435 20C5.70435 23.9503 5.72192 24.4446 5.79222 25.9961C5.86343 27.5446 6.10858 28.6016 6.46796 29.5264C6.83977 30.4831 7.33672 31.2946 8.14548 32.1031C8.95364 32.9122 9.76513 33.4103 10.7212 33.7819C11.6466 34.1416 12.7038 34.3867 14.252 34.4576C15.8034 34.5282 16.2989 34.5455 20.2488 34.5455C24.1992 34.5455 24.6935 34.5282 26.2449 34.4576C27.7934 34.3867 28.8515 34.1416 29.777 33.7819C30.7333 33.4103 31.5436 32.9122 32.3517 32.1031C33.1608 31.2946 33.6577 30.4831 34.0305 29.5267C34.388 28.6016 34.6335 27.5443 34.7062 25.9964C34.7759 24.4449 34.7941 23.9503 34.7941 20C34.7941 16.0497 34.7759 15.554 34.7062 14.0025C34.6335 12.454 34.388 11.397 34.0305 10.4722C33.6577 9.5155 33.1608 8.70398 32.3517 7.8955C31.5427 7.08641 30.7336 6.58944 29.776 6.21823C28.8488 5.85853 27.7913 5.61338 26.2428 5.54247C24.6913 5.47186 24.1974 5.45459 20.246 5.45459H20.2506ZM18.9458 8.0758C19.333 8.0752 19.7651 8.0758 20.2506 8.0758C24.1341 8.0758 24.5944 8.08974 26.128 8.15944C27.5461 8.22429 28.3158 8.46126 28.8285 8.66035C29.5073 8.92398 29.9912 9.23913 30.5 9.74823C31.009 10.2573 31.3242 10.7422 31.5884 11.421C31.7875 11.9331 32.0248 12.7028 32.0893 14.121C32.159 15.6543 32.1742 16.1149 32.1742 19.9967C32.1742 23.8785 32.159 24.3391 32.0893 25.8725C32.0245 27.2906 31.7875 28.0603 31.5884 28.5725C31.3248 29.2513 31.009 29.7346 30.5 30.2434C29.9909 30.7525 29.5076 31.0676 28.8285 31.3313C28.3164 31.5313 27.5461 31.7676 26.128 31.8325C24.5947 31.9022 24.1341 31.9173 20.2506 31.9173C16.3667 31.9173 15.9065 31.9022 14.3732 31.8325C12.955 31.767 12.1854 31.53 11.6723 31.331C10.9936 31.0673 10.5087 30.7522 9.99967 30.2431C9.49059 29.734 9.17545 29.2503 8.91122 28.5713C8.71213 28.0591 8.47487 27.2894 8.41032 25.8713C8.34063 24.3379 8.32669 23.8773 8.32669 19.9931C8.32669 16.1088 8.34063 15.6507 8.41032 14.1173C8.47517 12.6991 8.71213 11.9294 8.91122 11.4167C9.17485 10.7379 9.49059 10.2531 9.99967 9.74398C10.5087 9.23489 10.9936 8.91974 11.6723 8.6555C12.1851 8.4555 12.955 8.21914 14.3732 8.15398C15.715 8.09338 16.2349 8.0752 18.9458 8.07217V8.0758ZM28.0146 10.491C27.051 10.491 26.2692 11.2719 26.2692 12.2358C26.2692 13.1994 27.051 13.9813 28.0146 13.9813C28.9782 13.9813 29.76 13.1994 29.76 12.2358C29.76 11.2722 28.9782 10.4903 28.0146 10.4903V10.491ZM20.2506 12.5303C16.1255 12.5303 12.7811 15.8749 12.7811 20C12.7811 24.1252 16.1255 27.4682 20.2506 27.4682C24.3756 27.4682 27.7188 24.1252 27.7188 20C27.7188 15.8749 24.3753 12.5303 20.2503 12.5303H20.2506ZM20.2506 15.1516C22.9281 15.1516 25.0989 17.3222 25.0989 20C25.0989 22.6776 22.9281 24.8485 20.2506 24.8485C17.5728 24.8485 15.4022 22.6776 15.4022 20C15.4022 17.3222 17.5728 15.1516 20.2506 15.1516Z" fill="url(#paint0_radial_255:3141)"/>
<path d="M20.2506 5.45459C16.3004 5.45459 15.8046 5.47186 14.2532 5.54247C12.7047 5.61338 11.6478 5.85853 10.723 6.21823C9.76634 6.58974 8.95485 7.08671 8.14639 7.8955C7.33733 8.70398 6.84037 9.5155 6.46766 10.4719C6.10706 11.397 5.86161 12.4543 5.79192 14.0022C5.72253 15.5537 5.70435 16.0497 5.70435 20C5.70435 23.9503 5.72192 24.4446 5.79222 25.9961C5.86343 27.5446 6.10858 28.6016 6.46796 29.5264C6.83977 30.4831 7.33672 31.2946 8.14548 32.1031C8.95364 32.9122 9.76513 33.4103 10.7212 33.7819C11.6466 34.1416 12.7038 34.3867 14.252 34.4576C15.8034 34.5282 16.2989 34.5455 20.2488 34.5455C24.1992 34.5455 24.6935 34.5282 26.2449 34.4576C27.7934 34.3867 28.8515 34.1416 29.777 33.7819C30.7333 33.4103 31.5436 32.9122 32.3517 32.1031C33.1608 31.2946 33.6577 30.4831 34.0305 29.5267C34.388 28.6016 34.6335 27.5443 34.7062 25.9964C34.7759 24.4449 34.7941 23.9503 34.7941 20C34.7941 16.0497 34.7759 15.554 34.7062 14.0025C34.6335 12.454 34.388 11.397 34.0305 10.4722C33.6577 9.5155 33.1608 8.70398 32.3517 7.8955C31.5427 7.08641 30.7336 6.58944 29.776 6.21823C28.8488 5.85853 27.7913 5.61338 26.2428 5.54247C24.6913 5.47186 24.1974 5.45459 20.246 5.45459H20.2506ZM18.9458 8.0758C19.333 8.0752 19.7651 8.0758 20.2506 8.0758C24.1341 8.0758 24.5944 8.08974 26.128 8.15944C27.5461 8.22429 28.3158 8.46126 28.8285 8.66035C29.5073 8.92398 29.9912 9.23913 30.5 9.74823C31.009 10.2573 31.3242 10.7422 31.5884 11.421C31.7875 11.9331 32.0248 12.7028 32.0893 14.121C32.159 15.6543 32.1742 16.1149 32.1742 19.9967C32.1742 23.8785 32.159 24.3391 32.0893 25.8725C32.0245 27.2906 31.7875 28.0603 31.5884 28.5725C31.3248 29.2513 31.009 29.7346 30.5 30.2434C29.9909 30.7525 29.5076 31.0676 28.8285 31.3313C28.3164 31.5313 27.5461 31.7676 26.128 31.8325C24.5947 31.9022 24.1341 31.9173 20.2506 31.9173C16.3667 31.9173 15.9065 31.9022 14.3732 31.8325C12.955 31.767 12.1854 31.53 11.6723 31.331C10.9936 31.0673 10.5087 30.7522 9.99967 30.2431C9.49059 29.734 9.17545 29.2503 8.91122 28.5713C8.71213 28.0591 8.47487 27.2894 8.41032 25.8713C8.34063 24.3379 8.32669 23.8773 8.32669 19.9931C8.32669 16.1088 8.34063 15.6507 8.41032 14.1173C8.47517 12.6991 8.71213 11.9294 8.91122 11.4167C9.17485 10.7379 9.49059 10.2531 9.99967 9.74398C10.5087 9.23489 10.9936 8.91974 11.6723 8.6555C12.1851 8.4555 12.955 8.21914 14.3732 8.15398C15.715 8.09338 16.2349 8.0752 18.9458 8.07217V8.0758ZM28.0146 10.491C27.051 10.491 26.2692 11.2719 26.2692 12.2358C26.2692 13.1994 27.051 13.9813 28.0146 13.9813C28.9782 13.9813 29.76 13.1994 29.76 12.2358C29.76 11.2722 28.9782 10.4903 28.0146 10.4903V10.491ZM20.2506 12.5303C16.1255 12.5303 12.7811 15.8749 12.7811 20C12.7811 24.1252 16.1255 27.4682 20.2506 27.4682C24.3756 27.4682 27.7188 24.1252 27.7188 20C27.7188 15.8749 24.3753 12.5303 20.2503 12.5303H20.2506ZM20.2506 15.1516C22.9281 15.1516 25.0989 17.3222 25.0989 20C25.0989 22.6776 22.9281 24.8485 20.2506 24.8485C17.5728 24.8485 15.4022 22.6776 15.4022 20C15.4022 17.3222 17.5728 15.1516 20.2506 15.1516Z" fill="url(#paint1_radial_255:3141)"/>
<defs>
<radialGradient id="paint0_radial_255:3141" cx="0" cy="0" r="1" gradientUnits="userSpaceOnUse" gradientTransform="translate(13.4313 36.7861) rotate(-90) scale(28.8312 26.8142)">
<stop stop-color="#FFDD55"/>
<stop offset="0.1" stop-color="#FFDD55"/>
<stop offset="0.5" stop-color="#FF543E"/>
<stop offset="1" stop-color="#C837AB"/>
</radialGradient>
<radialGradient id="paint1_radial_255:3141" cx="0" cy="0" r="1" gradientUnits="userSpaceOnUse" gradientTransform="translate(0.831663 7.55025) rotate(78.6811) scale(12.8877 53.1215)">
<stop stop-color="#3771C8"/>
<stop offset="0.128" stop-color="#3771C8"/>
<stop offset="1" stop-color="#6600FF" stop-opacity="0"/>
</radialGradient>
</defs>
</svg>
