<svg width="16" height="16" viewBox="0 0 16 16" fill="none" xmlns="http://www.w3.org/2000/svg">
<g clip-path="url(#clip0_10_590)">
<path d="M11.7696 6.79925H11.5107V5.50499C11.5107 3.57294 10.0979 2 8.36364 2C6.62766 2 5.21654 3.57294 5.21654 5.50686V6.80112H4.95767C4.42976 6.79925 4 7.27805 4 7.86721V12.932C4 13.5212 4.42976 14 4.95767 14H11.7679C12.2958 14 12.7256 13.5212 12.7256 12.932V7.86721C12.7273 7.27805 12.2975 6.79925 11.7696 6.79925ZM8.76464 10.4688V11.1309C8.76464 11.23 8.69357 11.3105 8.6039 11.3105H8.12168C8.0337 11.3105 7.96094 11.23 7.96094 11.1309V10.4688C7.74099 10.3173 7.59378 10.0499 7.59378 9.74127C7.59378 9.26808 7.93726 8.88466 8.36195 8.88466C8.78663 8.88466 9.13011 9.26808 9.13011 9.74127C9.1318 10.0499 8.9829 10.3173 8.76464 10.4688ZM10.1301 6.79925H6.59551V5.50499C6.59551 4.41833 7.38736 3.53554 8.36364 3.53554C9.33822 3.53554 10.1301 4.41833 10.1301 5.50499V6.79925Z" fill="currentColor"/>
</g>
<defs>
<clipPath id="clip0_10_590">
<rect width="8.72727" height="12" fill="white" transform="translate(4 2)"/>
</clipPath>
</defs>
</svg>
