<?xml version="1.0" standalone="no"?>
<!DOCTYPE svg PUBLIC "-//W3C//DTD SVG 20010904//EN"
 "http://www.w3.org/TR/2001/REC-SVG-20010904/DTD/svg10.dtd">
<svg version="1.0" xmlns="http://www.w3.org/2000/svg"
 width="144.000000pt" height="144.000000pt" viewBox="0 0 144.000000 144.000000"
 preserveAspectRatio="xMidYMid meet">

<g transform="translate(0.000000,144.000000) scale(0.100000,-0.100000)"
fill="#000000" stroke="none">
<path d="M175 1250 c-11 -4 -33 -22 -50 -40 l-30 -31 -3 -412 c-3 -440 -1
-462 45 -518 58 -69 54 -69 583 -69 529 0 525 0 583 69 45 53 49 86 45 368
l-3 263 -37 36 c-29 30 -45 38 -86 42 l-50 4 -4 107 c-2 87 -7 111 -23 133
-43 58 -43 58 -517 57 -238 0 -442 -4 -453 -9z m893 -92 c9 -9 12 -110 12
-393 0 -401 0 -405 45 -405 43 0 45 12 45 267 l0 243 33 0 c18 0 38 -5 45 -12
9 -9 12 -82 12 -266 l0 -254 -34 -34 -34 -34 -472 0 -472 0 -34 34 -34 34 0
404 c0 301 3 407 12 416 17 17 859 17 876 0z"/>
<path d="M282 978 c-15 -15 -15 -51 0 -66 17 -17 679 -17 696 0 15 15 15 51 0
66 -17 17 -679 17 -696 0z"/>
<path d="M282 738 c-17 -17 -17 -259 0 -276 8 -8 53 -12 134 -12 98 0 126 3
138 16 13 12 16 40 16 138 0 81 -4 126 -12 134 -17 17 -259 17 -276 0z m198
-138 l0 -60 -60 0 -60 0 0 60 0 60 60 0 60 0 0 -60z"/>
<path d="M672 738 c-15 -15 -15 -51 0 -66 17 -17 289 -17 306 0 15 15 15 51 0
66 -17 17 -289 17 -306 0z"/>
<path d="M672 528 c-15 -15 -15 -51 0 -66 17 -17 289 -17 306 0 15 15 15 51 0
66 -17 17 -289 17 -306 0z"/>
</g>
</svg>
