<svg width="30" height="29" viewBox="0 0 30 29" fill="none" xmlns="http://www.w3.org/2000/svg">
<path d="M14.9986 0C6.71605 0 0 5.39496 0 12.0501C0 18.4397 6.19157 23.6701 14.0214 24.074L12.7765 27.9501C12.4825 28.8672 13.7454 29.3444 14.3969 28.7137L19.8169 23.4681C25.7379 21.8537 30.0014 17.3538 30.0014 12.0501C30 5.39496 23.2853 0 14.9986 0ZM16.1842 18.2875C16.1842 18.6555 15.7853 18.9557 15.2912 18.9557H14.4231C13.929 18.9557 13.5301 18.6541 13.5301 18.2875V16.7645C13.5301 16.3965 13.929 16.0964 14.4231 16.0964H15.2912C15.7853 16.0964 16.1842 16.3979 16.1842 16.7645V18.2875ZM17.1572 12.7681C16.3609 13.4791 16.2256 13.8609 16.2256 14.4447V14.5636C16.2256 14.7822 16.1649 15.0782 15.9592 15.1917C15.8792 15.2359 15.7784 15.2705 15.6846 15.2705H15.276C15.0469 15.2705 14.8192 15.2747 14.5887 15.2788C14.3734 15.2843 14.147 15.2926 13.94 15.2221C13.882 15.2013 13.8227 15.1709 13.7771 15.1308C13.7302 15.0879 13.704 15.0312 13.6805 14.9759C13.6239 14.8486 13.5881 14.7033 13.5881 14.5636C13.5881 14.547 13.5881 14.3409 13.5881 14.3409C13.5881 13.3698 13.8116 12.2687 15.4403 10.8162C16.4382 9.91982 16.4382 9.37755 16.4382 8.90169C16.4382 7.68298 15.3188 7.6235 15.0939 7.6235C14.4341 7.6235 13.7288 7.80471 13.4997 9.15484C13.4252 9.58505 13.0539 9.89768 12.6192 9.89768H11.7662C11.5178 9.89768 11.2831 9.7967 11.1147 9.61687C10.945 9.43565 10.8594 9.19219 10.8746 8.94596C10.9615 7.5903 11.9608 5.02977 15.1118 5.02977C16.746 5.02977 17.6997 5.74218 18.209 6.34116C18.7928 7.0259 19.1282 7.95273 19.1282 8.88371C19.1296 10.4316 18.5954 11.4844 17.1572 12.7681Z" fill="#FF001F"/>
</svg>
