<svg width="40" height="40" viewBox="0 0 40 40" fill="none" xmlns="http://www.w3.org/2000/svg">
<path d="M9.4 2L4 9.2V34.4C4 35.3548 4.37928 36.2705 5.05442 36.9456C5.72955 37.6207 6.64522 38 7.6 38H32.8C33.7548 38 34.6704 37.6207 35.3456 36.9456C36.0207 36.2705 36.4 35.3548 36.4 34.4V9.2L31 2H9.4Z" stroke="currentColor" stroke-width="3" stroke-linecap="round" stroke-linejoin="round"/>
<path d="M4 9.20001H36.4" stroke="currentColor" stroke-width="3" stroke-linecap="round" stroke-linejoin="round"/>
<path d="M27.4 16.4C27.4 18.3095 26.6414 20.1409 25.2912 21.4911C23.9409 22.8414 22.1096 23.6 20.2 23.6C18.2904 23.6 16.4591 22.8414 15.1088 21.4911C13.7586 20.1409 13 18.3095 13 16.4" stroke="currentColor" stroke-width="3" stroke-linecap="round" stroke-linejoin="round"/>
</svg>
