<?xml version="1.0" standalone="no"?>
<!DOCTYPE svg PUBLIC "-//W3C//DTD SVG 20010904//EN"
 "http://www.w3.org/TR/2001/REC-SVG-20010904/DTD/svg10.dtd">
<svg version="1.0" xmlns="http://www.w3.org/2000/svg"
 width="64.000000pt" height="64.000000pt" viewBox="0 0 64.000000 64.000000"
 preserveAspectRatio="xMidYMid meet">

<g transform="translate(0.000000,64.000000) scale(0.100000,-0.100000)"
fill="#000000" stroke="none">
<path d="M0 623 c0 -10 4 -14 8 -8 4 6 11 13 16 18 5 4 2 7 -7 7 -10 0 -17 -8
-17 -17z"/>
<path d="M616 633 c5 -5 12 -12 16 -18 4 -6 8 -2 8 8 0 9 -7 17 -17 17 -9 0
-12 -3 -7 -7z"/>
<path d="M330 367 c0 -117 -2 -136 -18 -150 -23 -21 -56 -22 -76 -1 -30 30
-11 84 29 84 21 0 25 5 25 30 0 27 -3 30 -30 30 -19 0 -42 -11 -62 -29 -48
-43 -48 -119 0 -162 37 -33 85 -38 133 -13 41 21 59 68 59 153 l0 70 35 -15
c48 -20 55 -18 55 14 0 21 -8 30 -33 42 -18 8 -39 29 -47 47 -12 25 -21 33
-42 33 l-28 0 0 -133z"/>
<path d="M0 17 c0 -10 8 -17 18 -17 9 0 13 4 7 8 -5 4 -13 11 -17 16 -5 5 -8
2 -8 -7z"/>
<path d="M622 15 c-11 -12 -10 -15 3 -15 8 0 15 7 15 15 0 18 -2 18 -18 0z"/>
</g>
</svg>
