<?xml version="1.0" standalone="no"?>
<!DOCTYPE svg PUBLIC "-//W3C//DTD SVG 20010904//EN"
 "http://www.w3.org/TR/2001/REC-SVG-20010904/DTD/svg10.dtd">
<svg version="1.0" xmlns="http://www.w3.org/2000/svg"
 width="128.000000pt" height="128.000000pt" viewBox="0 0 128.000000 128.000000"
 preserveAspectRatio="xMidYMid meet">

<g transform="translate(0.000000,128.000000) scale(0.100000,-0.100000)"
fill="#000000" stroke="none">
<path d="M60 1253 c-20 -26 -20 -31 -18 -560 3 -516 4 -535 22 -549 16 -11 79
-14 339 -14 l319 0 56 -44 c55 -43 133 -85 159 -86 29 0 129 57 181 104 134
123 158 314 52 410 -36 32 -46 36 -95 36 l-55 0 0 253 0 252 -113 113 -112
112 -357 0 -357 0 -21 -27z m710 -113 c0 -120 0 -120 124 -120 l86 0 0 -244
c0 -238 -1 -245 -21 -260 -20 -13 -24 -13 -50 7 -19 14 -49 22 -88 25 -80 6
-120 -18 -157 -94 -23 -47 -26 -63 -21 -120 3 -40 14 -84 29 -114 l25 -50
-304 0 -303 0 0 528 c0 291 3 532 7 535 3 4 156 7 340 7 l333 0 0 -100z m110
-5 l64 -65 -67 0 -67 0 0 65 c0 36 1 65 3 65 1 0 32 -29 67 -65z m-5 -645 c17
-11 37 -25 45 -31 13 -9 26 -5 65 20 80 51 151 36 190 -39 20 -38 19 -125 -1
-183 -29 -85 -165 -207 -232 -207 -35 0 -113 44 -161 90 -140 136 -122 368 29
370 19 0 49 -9 65 -20z"/>
<path d="M166 1054 c-19 -19 -22 -124 -4 -142 7 -7 39 -12 73 -12 34 0 66 5
73 12 18 18 15 123 -4 142 -21 22 -117 22 -138 0z m114 -74 l0 -40 -45 0 -45
0 0 40 0 40 45 0 45 0 0 -40z"/>
<path d="M392 1038 c-8 -8 -9 -15 -1 -25 9 -10 48 -13 156 -13 122 0 145 2
150 16 3 9 0 20 -8 25 -22 14 -283 11 -297 -3z"/>
<path d="M387 946 c-3 -8 -3 -17 0 -20 4 -3 80 -6 170 -6 156 0 163 1 163 20
0 19 -7 20 -164 20 -131 0 -165 -3 -169 -14z"/>
<path d="M777 954 c-4 -4 -7 -14 -7 -21 0 -11 16 -13 73 -11 56 2 72 6 72 18
0 12 -15 16 -65 18 -36 2 -69 0 -73 -4z"/>
<path d="M162 798 c-16 -16 -16 -130 0 -146 16 -16 130 -16 146 0 16 16 16
130 0 146 -7 7 -39 12 -73 12 -34 0 -66 -5 -73 -12z m118 -73 l0 -45 -45 0
-45 0 0 45 0 45 45 0 45 0 0 -45z"/>
<path d="M386 775 c-3 -9 0 -18 7 -21 7 -2 127 -3 267 -2 219 3 255 5 255 18
0 13 -37 15 -261 18 -229 2 -262 0 -268 -13z"/>
<path d="M386 692 c-2 -4 -1 -13 3 -20 6 -9 49 -12 167 -10 142 3 159 5 162
21 3 16 -10 17 -162 17 -91 0 -167 -4 -170 -8z"/>
<path d="M162 538 c-18 -18 -15 -123 4 -142 21 -22 117 -22 138 0 19 19 22
124 4 142 -16 16 -130 16 -146 0z m118 -68 l0 -40 -45 0 -45 0 0 40 0 40 45 0
45 0 0 -40z"/>
<path d="M386 522 c-2 -4 -1 -14 3 -20 5 -9 40 -12 127 -10 98 2 119 6 119 18
0 12 -21 15 -122 18 -67 1 -124 -1 -127 -6z"/>
<path d="M391 437 c-18 -22 -2 -27 89 -27 91 0 107 5 89 27 -16 18 -162 18
-178 0z"/>
<path d="M772 463 c-29 -11 -56 -106 -35 -126 11 -11 33 14 33 38 0 13 11 33
26 44 38 30 21 62 -24 44z"/>
</g>
</svg>
