<svg width="41" height="40" viewBox="0 0 41 40" fill="none" xmlns="http://www.w3.org/2000/svg">
<path d="M36.9298 11.51C36.5406 10.0643 35.4008 8.92452 33.9552 8.53531C31.3141 7.8125 20.7499 7.8125 20.7499 7.8125C20.7499 7.8125 10.1857 7.8125 7.54467 8.50751C6.12684 8.89672 4.95922 10.0643 4.57001 11.51C3.875 14.151 3.875 19.6277 3.875 19.6277C3.875 19.6277 3.875 25.1322 4.57001 27.7455C4.95922 29.1911 6.09904 30.3309 7.54467 30.7201C10.2135 31.443 20.7499 31.443 20.7499 31.443C20.7499 31.443 31.3141 31.443 33.9552 30.7479C35.4008 30.3587 36.5406 29.2189 36.9298 27.7733C37.6249 25.1322 37.6249 19.6555 37.6249 19.6555C37.6249 19.6555 37.6527 14.151 36.9298 11.51Z" fill="#FF0000"/>
<path d="M17.386 24.4944L26.171 19.4347L17.386 14.375V24.4944Z" fill="white"/>
</svg>
