<svg width="76" height="20" viewBox="0 0 76 20" fill="none" xmlns="http://www.w3.org/2000/svg">
<path d="M30.8042 2.76294H32.5118V10.9779H35.4546V12.5997H30.8116L30.8042 2.76294Z" fill="#000083"/>
<path d="M39.4086 5.22702C40.3136 5.21595 41.1706 5.62832 41.7269 6.34142V5.3737H43.3201V12.6136H41.7269V11.6459C41.1706 12.359 40.3136 12.7713 39.4086 12.7602C37.4224 12.7602 35.915 11.0637 35.915 8.99179C35.915 6.91983 37.4224 5.22702 39.4086 5.22702ZM39.6974 6.67721C38.4077 6.67721 37.5544 7.69197 37.5544 8.99179C37.5544 10.2916 38.4225 11.3101 39.6974 11.3101C40.9723 11.3101 41.8404 10.2953 41.8404 8.99179C41.8404 7.68828 40.9871 6.67721 39.6974 6.67721Z" fill="#000083"/>
<path d="M44.5591 11.3561L48.3562 6.82015H44.6163V5.37366H50.4134V6.64857L46.6311 11.167H50.4992V12.6135H44.5591V11.3561Z" fill="#000083"/>
<path d="M54.549 5.22702C55.4531 5.21595 56.311 5.62832 56.8673 6.34142V5.3737H58.4605V12.6136H56.8673V11.6459C56.311 12.359 55.454 12.7713 54.549 12.7602C52.5628 12.7602 51.0591 11.0637 51.0591 8.99179C51.0591 6.91983 52.5628 5.22702 54.549 5.22702ZM54.8387 6.67721C53.549 6.67721 52.6956 7.69197 52.6956 8.99179C52.6956 10.2916 53.5637 11.3101 54.8387 11.3101C56.1136 11.3101 56.9817 10.2953 56.9817 8.99179C56.9817 7.68828 56.1274 6.67721 54.8387 6.67721Z" fill="#000083"/>
<path d="M63.0107 5.22704C63.9138 5.21504 64.7709 5.62741 65.3253 6.34143V2.18091H66.9185V12.6136H65.3253V11.6459C64.7709 12.3599 63.9138 12.7723 63.0107 12.7603C61.0245 12.7603 59.5171 11.0638 59.5171 8.9918C59.518 6.91984 61.0245 5.22704 63.0107 5.22704ZM63.3004 6.67722C62.0107 6.67722 61.1573 7.69199 61.1573 8.9918C61.1573 10.2916 62.0291 11.3101 63.3004 11.3101C64.5716 11.3101 65.4434 10.2953 65.4434 8.9918C65.4434 7.68829 64.5891 6.67722 63.3004 6.67722Z" fill="#000083"/>
<path d="M71.4678 5.22694C72.3709 5.21495 73.228 5.62731 73.7824 6.34133V5.37362H75.3719V12.6135H73.775V11.6458C73.2206 12.3598 72.3636 12.7722 71.4604 12.7602C69.4742 12.7602 67.9668 11.0637 67.9668 8.9917C67.9677 6.91975 69.4825 5.22694 71.4678 5.22694ZM71.7575 6.67713C70.4678 6.67713 69.6144 7.69189 69.6144 8.9917C69.6144 10.2915 70.4862 11.31 71.7575 11.31C73.0287 11.31 73.9005 10.2952 73.9005 8.9917C73.9005 7.6882 73.0462 6.67713 71.7575 6.67713Z" fill="#000083"/>
<path d="M12.1679 19.7503C11.9948 19.7515 11.8254 19.707 11.6751 19.6217C10.389 18.8767 0.85755 12.902 0.498449 12.7199C0.224666 12.5926 0.0374756 12.3302 0.00564045 12.0297V3.64826C-0.002 3.33501 0.153356 3.04085 0.414404 2.86895L0.483168 2.82947C1.40511 2.25772 4.49058 0.374377 4.97957 0.103145C5.09163 0.0369283 5.21897 0.00127339 5.34886 0C5.4711 0.00127339 5.5908 0.0318347 5.69904 0.0891373C5.69904 0.0891373 10.0184 2.9046 10.6781 3.15546C11.1416 3.36812 11.6471 3.47508 12.1578 3.46617C12.7359 3.47763 13.3064 3.33883 13.8145 3.0625C14.4601 2.72251 18.5872 0.104418 18.6318 0.104418C18.7362 0.0420219 18.8559 0.00891373 18.9769 0.0101871C19.1067 0.0114605 19.2354 0.0471154 19.3461 0.113332C19.9077 0.424039 23.7343 2.7658 23.8973 2.86895C24.166 3.03067 24.329 3.32355 24.3264 3.63807V12.0195C24.2959 12.3213 24.1087 12.5836 23.8336 12.7097C23.4733 12.9071 13.9736 18.8818 12.662 19.6115C12.5105 19.7006 12.3411 19.749 12.1679 19.7503Z" fill="url(#paint0_linear_365:328)"/>
<path d="M12.1187 19.7504H12.1683C12.3415 19.7517 12.5109 19.7071 12.6611 19.6218C13.9485 18.8769 23.4736 12.9021 23.8327 12.72C24.1078 12.5939 24.295 12.3316 24.3255 12.0298V3.64838C24.3268 3.50704 24.295 3.36569 24.2313 3.23962L12.1187 9.89054V19.7504Z" fill="url(#paint1_linear_365:328)"/>
<path d="M12.0769 19.6316H12.0277C11.8564 19.6329 11.6888 19.5888 11.5402 19.5044C10.2665 18.7674 0.84287 12.8563 0.487595 12.6761C0.215469 12.5514 0.0302725 12.2919 3.62396e-05 11.9933V3.70116C-0.00122356 3.56132 0.0302725 3.42148 0.0932646 3.29675L12.0781 9.87681V19.6316" fill="url(#paint2_linear_365:328)"/>
<defs>
<linearGradient id="paint0_linear_365:328" x1="0.0648047" y1="9.94292" x2="47.4135" y2="9.57616" gradientUnits="userSpaceOnUse">
<stop offset="1e-07" stop-color="#FFB900"/>
<stop offset="0.3376" stop-color="#F38000"/>
<stop offset="0.5673" stop-color="#F83C72"/>
<stop offset="0.78" stop-color="#FC1CBE"/>
<stop offset="0.93" stop-color="#FE08ED"/>
<stop offset="1" stop-color="#FF00FF"/>
</linearGradient>
<linearGradient id="paint1_linear_365:328" x1="6.8373" y1="17.8307" x2="55.1112" y2="-8.89846" gradientUnits="userSpaceOnUse">
<stop stop-color="#EE0A3F"/>
<stop offset="1" stop-color="#EE0A3F" stop-opacity="0"/>
</linearGradient>
<linearGradient id="paint2_linear_365:328" x1="9.41371" y1="13.816" x2="32.4922" y2="-4.77535" gradientUnits="userSpaceOnUse">
<stop stop-color="#ED6600"/>
<stop offset="1" stop-color="#F98200"/>
</linearGradient>
</defs>
</svg>
