<svg width="92" height="20" viewBox="0 0 92 20" fill="none" xmlns="http://www.w3.org/2000/svg">
<path fill-rule="evenodd" clip-rule="evenodd" d="M49.1935 14.0615C48.193 15.0876 46.997 15.603 45.6125 15.603C44.4924 15.603 43.5379 15.3732 42.5673 14.8021V12.4481C43.3493 12.9843 44.3314 13.4951 45.302 13.4951C47.3236 13.4951 48.5265 12.0882 48.5265 10.0963C48.5265 8.10215 47.2822 6.65351 45.2583 6.65351C44.3544 6.65351 43.623 6.98085 43.0503 7.64016C42.4362 8.35287 42.1211 9.37203 42.1211 10.7185V20H41.9693C40.8539 20 39.9523 19.0876 39.9523 17.9617V10.3703C39.9523 7.148 41.9004 4.54788 45.2491 4.54788C46.9027 4.54788 48.2459 5.11898 49.2648 6.26814C50.2215 7.34068 50.6976 8.7011 50.6976 10.3355C50.6953 11.7887 50.1939 13.0331 49.1935 14.0615ZM72.6759 13.9826C71.68 15.0621 70.3989 15.603 68.8442 15.603C67.2043 15.603 65.868 15.0319 64.8492 13.8828C63.8924 12.7963 63.4163 11.4359 63.4163 9.81544C63.4163 6.94602 65.6082 4.54788 68.4923 4.54788C69.6055 4.54788 70.5714 4.78468 71.5466 5.32559V7.70052C70.7646 7.16425 69.7826 6.65351 68.812 6.65351C66.7903 6.65351 65.5852 8.06036 65.5852 10.0546C65.5852 12.0209 66.8593 13.4974 68.8534 13.4974C69.755 13.4974 70.5001 13.1561 71.0935 12.4666C71.6846 11.7818 71.9905 10.7766 71.9905 9.42542V2.03831C71.9905 0.912362 72.8944 0 74.0075 0H74.1593V9.77365C74.1593 11.4939 73.6672 12.9031 72.6713 13.9849L72.6759 13.9826ZM78.8029 3.50551C78.5752 3.7632 78.2486 3.8816 77.8507 3.8816C77.1056 3.8816 76.572 3.32676 76.572 2.57922C76.572 1.81544 77.0941 1.29774 77.8507 1.29774C78.5775 1.29774 79.1295 1.84097 79.1295 2.57922C79.1272 2.9437 79.0214 3.25479 78.8029 3.50551ZM89.8265 9.42542C89.8265 8.56181 89.5023 7.87696 88.8537 7.35694C88.2672 6.89031 87.5358 6.65351 86.6457 6.65351C84.6816 6.65351 83.4212 8.2043 83.4212 10.1172C83.4212 11.9582 84.7575 13.4951 86.625 13.4951C87.9245 13.4951 88.6191 12.729 89.3597 11.7725V14.5258C88.9825 14.8114 88.5478 15.1225 88.1062 15.3059C87.6393 15.5032 87.0804 15.5984 86.4341 15.5984C83.3108 15.5984 81.2524 12.9843 81.2524 9.96402C81.2524 8.41323 81.7285 7.12943 82.6898 6.13117C83.7087 5.07023 85.045 4.54556 86.6802 4.54556C89.7805 4.54556 92 6.34475 92 9.59721V15.3848H91.8482C90.7327 15.3848 89.8288 14.4724 89.8288 13.3465L89.8265 9.42542ZM60.1343 8.80325C59.8606 7.9466 59.5156 7.52409 58.7267 7.07835C56.8454 6.01741 54.9962 6.92049 54.136 8.79396L60.1343 8.80325ZM58.4783 15.5682C57.0915 15.8654 55.7322 15.6355 54.4051 14.888C53.1103 14.1567 52.2432 13.0725 51.8108 11.6355C50.9322 8.7336 52.7308 5.49739 55.6264 4.71503C57.0616 4.32734 58.4369 4.50145 59.7433 5.2397C61.9145 6.46547 62.7056 8.36216 62.5653 10.8067L53.8233 10.7882C53.952 11.7841 54.5638 12.5641 55.424 13.0493C56.2957 13.5415 57.0961 13.6599 57.839 13.4254C58.6646 13.1631 59.3339 12.4829 59.879 11.8491L61.6615 13.1608C60.9324 14.4771 59.9434 15.2548 58.4783 15.5682ZM76.7744 4.76378H78.9432V15.3848H78.7914C77.6783 15.3848 76.7744 14.4724 76.7744 13.3465V4.76378ZM3.17622 15.3848C1.05337 15.3848 0 13.9269 0 11.8886V4.16019C0 3.03424 0.903877 2.12188 2.01705 2.12188H2.16885V4.76611H5.83495V6.87174H2.17115V12.1346C2.17115 13.0284 2.56674 13.2815 3.41311 13.2815H5.83725V15.3871L3.17622 15.3848ZM15.7776 14.0429C14.7058 15.0807 13.4179 15.6007 11.9206 15.6007C10.4371 15.6007 9.15607 15.0807 8.0843 14.0429C7.00793 13.0006 6.47204 11.675 6.47204 10.0754C6.47204 6.95531 8.82948 4.54788 11.9183 4.54788C13.4018 4.54788 14.6851 5.07255 15.7638 6.11724C16.8471 7.16657 17.3876 8.48984 17.3876 10.0731C17.3876 11.6727 16.8517 12.9983 15.7753 14.0406L15.7776 14.0429ZM25.9226 7.31979C25.6053 7.85839 25.3569 8.24608 25.1844 8.48056C24.9935 8.73593 24.8049 8.9379 24.6163 9.07719C26.125 9.56936 26.6862 10.6257 26.6862 12.1973V15.3848H26.5344C25.4213 15.3848 24.5174 14.4724 24.5174 13.3465V12.4156C24.5174 11.3964 24.0666 10.7069 22.9971 10.7069H21.0261V15.3871H20.8743C19.7611 15.3871 18.8572 14.4748 18.8572 13.3488V2.03831C18.8572 0.912362 19.7588 0 20.8743 0H21.0261V8.58038H21.6678C22.3715 8.58038 22.8361 8.33662 23.1006 7.87696L24.9222 4.76843L27.3946 4.76611L25.9226 7.31979ZM37.1234 14.0429C36.0516 15.0807 34.7636 15.6007 33.2664 15.6007C31.7829 15.6007 30.5018 15.0807 29.4301 14.0429C28.3537 13.0006 27.8178 11.675 27.8178 10.0754C27.8178 6.95531 30.1752 4.54788 33.2641 4.54788C34.7475 4.54788 36.0309 5.07255 37.1096 6.11724C38.1928 7.16657 38.731 8.48984 38.731 10.0731C38.731 11.6727 38.1951 12.9983 37.1188 14.0406L37.1234 14.0429ZM35.5571 7.60302C34.9591 6.97156 34.2001 6.65351 33.2664 6.65351C31.27 6.65351 30.074 8.12536 30.074 10.0754C30.074 11.9977 31.2976 13.4974 33.2664 13.4974C35.2351 13.4974 36.4587 12 36.4587 10.0754C36.4587 9.05398 36.1551 8.23448 35.5571 7.60302ZM14.2136 7.60302C13.6157 6.97156 12.8567 6.65351 11.9229 6.65351C9.92655 6.65351 8.73058 8.12536 8.73058 10.0754C8.73058 11.9977 9.95415 13.4974 11.9229 13.4974C13.8917 13.4974 15.1152 12 15.1152 10.0754C15.1152 9.05398 14.8116 8.23448 14.2136 7.60302Z" fill="#42B549"/>
</svg>
