<svg width="192" height="184" viewBox="0 0 192 184" fill="none" xmlns="http://www.w3.org/2000/svg">
<ellipse cx="96" cy="92" rx="96" ry="92" fill="white"/>
<path d="M78.8299 69.0166C78.9564 69.0166 79.0256 69.1031 79.0256 69.2873C79.0314 69.4453 78.9957 69.6021 78.9222 69.7417C78.8572 69.8577 78.7801 69.9653 78.6919 70.0644C78.5933 70.1709 78.481 70.2638 78.3582 70.3404C78.067 70.5414 77.7217 70.6495 77.368 70.6511C77.0826 70.6652 76.7966 70.6222 76.528 70.5246C76.3254 70.4385 76.1449 70.3089 75.9985 70.1447C75.6611 69.7281 75.4906 69.2007 75.5205 68.6655C75.5441 67.8354 75.6737 67.0116 75.9062 66.2141C76.1654 65.2472 76.4125 64.4184 76.6544 63.7336C76.8963 63.0487 77.1377 62.3926 77.3911 61.7653L78.0874 59.9985C77.3203 60.6814 76.3611 62.1202 75.2099 64.3148L73.3398 67.8543C72.346 69.7192 71.6324 70.6511 71.1984 70.6511C71.0163 70.6647 70.8348 70.6196 70.6805 70.5225C70.5263 70.4249 70.4072 70.2806 70.3411 70.1101C70.1729 69.5413 70.1028 68.9478 70.1339 68.3549C70.1304 67.5568 70.1959 66.7592 70.3296 65.9722C70.46 65.205 70.627 64.4625 70.8301 63.7451C71.1869 62.441 71.6408 61.1655 72.1886 59.9294C71.4393 60.4586 70.8227 61.1539 70.3872 61.961C69.8864 62.8012 69.5296 63.4113 69.3224 63.7969L67.3196 67.4686C66.4909 68.9767 65.8233 69.9091 65.3168 70.2659C64.9741 70.5157 64.5611 70.6505 64.137 70.6511C63.9885 70.6657 63.8387 70.6421 63.7018 70.5828C63.5649 70.523 63.4453 70.4302 63.3543 70.3116C63.2988 70.2386 63.2666 70.1505 63.2622 70.0587C63.2622 69.9778 63.2853 69.9317 63.3313 69.9201C63.5694 69.8661 63.7969 69.7727 64.0047 69.6441L64.396 69.3508C64.6119 69.1609 64.8051 68.9463 64.9715 68.7117C65.219 68.3838 65.4895 67.9865 65.7773 67.5264C66.065 67.0657 66.3528 66.5478 66.6808 65.9779L67.6592 64.171C68.4143 62.6459 69.3705 61.229 70.5021 59.9582C70.807 59.6218 71.1554 59.3277 71.5379 59.0834C71.8921 58.8353 72.2972 58.67 72.7238 58.6C72.8371 58.5731 72.9525 58.5595 73.069 58.5597C73.1871 58.5626 73.3052 58.5781 73.4201 58.6057C73.5439 58.6318 73.6614 58.6827 73.7653 58.7554C73.8692 58.8149 73.9474 58.9108 73.9847 59.0245C74.0219 59.1383 74.0156 59.2618 73.9668 59.3712C73.8986 59.6074 73.8178 59.8398 73.7249 60.0676L73.3109 61.1725C72.4089 63.5234 71.8695 65.9973 71.7111 68.5102C71.9834 68.0422 72.2594 67.53 72.5396 66.9738L73.4085 65.2472L74.3294 63.4919C75.7451 60.8637 77.0611 59.3597 78.2774 58.9798C78.481 58.907 78.6945 58.8643 78.9107 58.8532C79.0482 58.8469 79.1857 58.8704 79.3132 58.9223C79.4102 58.9634 79.4994 59.0197 79.5781 59.0892C79.6574 59.1441 79.7177 59.2224 79.7508 59.3131C79.7838 59.4038 79.788 59.5025 79.7623 59.5956L79.5377 60.2517L78.4154 63.5206L78.0129 64.804C77.6524 65.9185 77.3906 67.0625 77.23 68.2227C77.187 68.4887 77.2253 68.7616 77.3392 69.0055C77.378 69.089 77.4394 69.1603 77.5171 69.2102C77.5942 69.26 77.6844 69.2868 77.7768 69.2873C77.9237 69.2889 78.0701 69.2752 78.2139 69.2469C78.3068 69.2217 78.397 69.1887 78.4846 69.1493L78.6861 69.057C78.7297 69.0313 78.7795 69.0176 78.8299 69.0166Z" fill="#01628A"/>
<path d="M80.9361 70.0471C80.711 69.8272 80.5379 69.5596 80.4298 69.2642C80.2965 68.9053 80.2304 68.5249 80.2341 68.1418C80.2288 67.6995 80.2829 67.2582 80.3951 66.83C80.5032 66.3856 80.6617 65.9548 80.8674 65.5464C81.0684 65.1372 81.3134 64.7513 81.5983 64.3953C81.8764 64.0461 82.1949 63.7312 82.5475 63.4573C83.2055 62.9106 84.0293 62.6041 84.8846 62.5883C85.3479 62.5523 85.8102 62.6697 86.2001 62.9224C86.5899 63.1752 86.8859 63.5491 87.0428 63.9867C87.3156 64.7788 87.3314 65.6367 87.0884 66.4386C86.8701 67.3222 86.464 68.1486 85.8973 68.8612C85.3789 69.5586 84.6805 70.1016 83.8772 70.4327C83.5114 70.5812 83.121 70.6589 82.7265 70.6626C82.3812 70.6715 82.0375 70.6253 81.7075 70.5246C81.4173 70.4259 81.1539 70.2627 80.9361 70.0471ZM82.4153 66.3001C82.2637 66.6742 82.1403 67.0588 82.0469 67.4513C81.9583 67.8286 81.9158 68.2148 81.9205 68.6025C81.91 68.8937 81.9672 69.1829 82.0874 69.4484C82.133 69.5444 82.2059 69.6247 82.2972 69.6787C82.3885 69.7333 82.4935 69.759 82.5995 69.7532C82.8529 69.748 83.0985 69.6635 83.3015 69.5119C83.5508 69.324 83.7748 69.1052 83.9695 68.8612C84.2004 68.5716 84.4045 68.2615 84.5792 67.9346C84.7708 67.5819 84.9376 67.2167 85.0798 66.841C85.3705 66.14 85.5248 65.3902 85.5347 64.6313C85.5347 64.0558 85.4198 63.7048 85.1895 63.5493C85.0709 63.4806 84.935 63.4485 84.798 63.4573C84.5882 63.4732 84.3877 63.5514 84.2224 63.6817C83.9805 63.8588 83.7622 64.0657 83.5723 64.2975C83.3393 64.5815 83.1294 64.8836 82.9447 65.2011C82.7427 65.5545 82.5659 65.9217 82.4153 66.3001Z" fill="#01628A"/>
<path d="M88.3892 70.3923C88.2927 70.321 88.2087 70.2334 88.1415 70.1331C88.088 70.0602 88.0529 69.9752 88.0382 69.886C88.0366 69.7973 88.0523 69.7092 88.0843 69.6268C88.1132 69.5292 88.1589 69.408 88.2166 69.2642C89.2697 66.6742 89.7933 64.9421 89.7933 64.0558C89.7965 63.9539 89.7745 63.8526 89.7309 63.7606C89.6868 63.6686 89.6212 63.5883 89.5404 63.5264L89.3851 63.4228C89.3594 63.3985 89.3395 63.3689 89.3263 63.3361C89.3137 63.3033 89.308 63.2681 89.3101 63.2328C89.3096 63.1374 89.3442 63.0451 89.4077 62.9739C89.4796 62.885 89.5672 62.8107 89.6669 62.7552C89.8768 62.6394 90.1124 62.578 90.3516 62.5767C90.5468 62.5673 90.742 62.5947 90.9273 62.6573C91.05 62.7056 91.1634 62.7758 91.261 62.8645C91.347 62.9356 91.4173 63.0232 91.4688 63.122C91.5202 63.2208 91.5517 63.329 91.5606 63.4401C91.5601 63.651 91.5365 63.8613 91.4913 64.0674C91.4394 64.2745 91.3822 64.4817 91.3129 64.6889C91.2437 64.8961 91.1807 65.086 91.1172 65.2644C91.0637 65.3974 91.0196 65.5339 90.985 65.673C90.9514 65.783 90.9357 65.8977 90.9388 66.0125C91.0416 65.9302 91.1198 65.8205 91.1634 65.6961L91.4625 65.1206C91.9106 64.1719 92.5843 63.3479 93.4249 62.7207C93.6301 62.6101 93.8599 62.5546 94.0929 62.5595C94.212 62.5557 94.3306 62.5786 94.4402 62.6263C94.5499 62.6741 94.6475 62.7456 94.7257 62.8357C94.8758 63.0024 94.9634 63.216 94.9733 63.4401C94.9865 63.6331 94.9713 63.8271 94.9272 64.0156C94.8889 64.1609 94.8306 64.3003 94.7545 64.4299C94.7 64.5517 94.6134 64.6563 94.5037 64.7324C94.3946 64.8085 94.266 64.8532 94.1328 64.8616C94.0656 64.8604 94.0005 64.836 93.9486 64.7925L93.7817 64.6486C93.65 64.5158 93.4737 64.4359 93.2869 64.4242C93.0655 64.4553 92.8614 64.5632 92.7113 64.7292C92.4547 64.9733 92.2217 65.2412 92.015 65.5292C91.1833 66.6343 90.5112 67.8511 90.0179 69.1435L89.6784 70.0413C89.6181 70.2061 89.541 70.364 89.4481 70.513C89.415 70.5608 89.3699 70.5991 89.3174 70.6243C89.265 70.6494 89.2067 70.6605 89.149 70.6568C89.0147 70.6573 88.8819 70.6321 88.7576 70.5823C88.6258 70.5382 88.5015 70.4742 88.3892 70.3923Z" fill="#01628A"/>
<path d="M97.396 69.132C97.5282 69.132 97.5974 69.2181 97.5974 69.3907C97.5833 69.6615 97.4705 69.917 97.281 70.1101C97.1284 70.2885 96.9368 70.4296 96.7217 70.5236C96.506 70.617 96.2725 70.661 96.038 70.6511C95.783 70.6726 95.5274 70.6143 95.3065 70.4847C95.0862 70.3546 94.9114 70.1594 94.8065 69.9259C94.7209 69.7323 94.6795 69.5219 94.6853 69.3104C94.6895 69.0355 94.732 68.7621 94.8123 68.4987C94.8983 68.2054 95.0017 67.9231 95.1287 67.5663C95.2551 67.2095 95.3931 66.9104 95.5427 66.5709L95.9514 65.5983C96.1728 65.144 96.324 64.6589 96.4006 64.1594C96.4158 64.004 96.3901 63.8472 96.3255 63.7048C96.283 63.638 96.2306 63.5779 96.1702 63.5264L96.0149 63.4228C95.9871 63.3999 95.9656 63.3707 95.9514 63.3376C95.9372 63.3046 95.9315 63.2687 95.9341 63.2329C95.9357 63.1368 95.9729 63.0446 96.038 62.9739C96.1156 62.8847 96.2096 62.8105 96.314 62.7552C96.5659 62.6306 96.8445 62.5693 97.1257 62.5768C97.8855 62.5768 98.2764 62.7782 98.2764 63.1523C98.2581 63.6982 98.1348 64.2354 97.9139 64.735C97.6725 65.3105 97.4652 65.8112 97.2984 66.1794L96.8319 67.2441C96.5643 67.7735 96.3927 68.3465 96.3255 68.9363C96.3187 68.9825 96.3229 69.0297 96.3376 69.0738C96.3523 69.1178 96.377 69.1583 96.41 69.1913C96.4431 69.2244 96.4835 69.249 96.5276 69.2637C96.5722 69.2784 96.6189 69.2826 96.665 69.2758C96.8366 69.2847 97.0077 69.2553 97.1656 69.1892C97.2391 69.1577 97.3167 69.1383 97.396 69.132Z" fill="#01628A"/>
<path d="M103.831 68.5506C103.98 68.5506 104.055 68.6487 104.055 68.8497C104.053 69.026 104.001 69.1976 103.905 69.345C103.709 69.6992 103.421 69.9936 103.071 70.1966C102.647 70.4837 102.149 70.6416 101.638 70.651C101.285 70.6852 100.933 70.5923 100.643 70.3882C100.354 70.1846 100.147 69.8839 100.061 69.5408C99.8039 68.6619 100.199 66.7933 101.246 63.935C100.671 63.889 100.331 63.7854 100.279 63.63C100.271 63.5805 100.271 63.5299 100.279 63.4803C100.283 63.4106 100.309 63.3439 100.354 63.2904C100.406 63.2114 100.468 63.1398 100.538 63.0775C100.699 62.9394 100.903 62.8621 101.114 62.8588H101.724C102.299 61.5524 102.674 60.8099 102.915 60.6315C103.023 60.5498 103.154 60.5053 103.29 60.5049C103.409 60.5028 103.528 60.5223 103.641 60.5625C103.732 60.5975 103.816 60.6503 103.888 60.7179C103.964 60.7817 104.025 60.8608 104.068 60.9502C104.11 61.0395 104.133 61.1369 104.135 61.2359C104.128 61.3577 104.097 61.477 104.043 61.5869L103.468 62.8358H103.658H104.429H104.866H105.235C105.384 62.8358 105.454 62.8933 105.454 63.0027C105.454 63.6818 104.653 64.0214 103.042 64.0214H102.984L102.426 65.345C101.964 66.4208 101.665 67.5594 101.54 68.7232C101.53 68.8738 101.574 69.0234 101.667 69.1435C101.728 69.2002 101.8 69.2432 101.88 69.2689C101.959 69.2947 102.044 69.3031 102.127 69.2931C102.338 69.2978 102.548 69.2585 102.743 69.1782C102.915 69.1115 103.08 69.0244 103.232 68.919C103.37 68.8271 103.491 68.7406 103.589 68.6598C103.657 68.602 103.741 68.5643 103.831 68.5506Z" fill="#01628A"/>
<path d="M110.978 68.5218C110.978 68.994 111.145 69.2296 111.485 69.2296C111.682 69.237 111.879 69.1997 112.06 69.1205C112.155 69.069 112.259 69.0339 112.365 69.0166C112.388 69.014 112.41 69.016 112.432 69.0234C112.453 69.0307 112.473 69.0433 112.488 69.0596C112.504 69.0759 112.516 69.0953 112.522 69.1168C112.529 69.1383 112.53 69.1614 112.526 69.1834C112.519 69.419 112.451 69.6489 112.328 69.8503C112.207 70.0518 112.035 70.2187 111.83 70.3347C111.619 70.4937 111.373 70.5996 111.112 70.6427C110.852 70.6857 110.585 70.6647 110.334 70.5823C110.161 70.5178 110.005 70.4155 109.876 70.2832C109.748 70.1505 109.651 69.9915 109.591 69.8168C109.518 69.6436 109.48 69.4579 109.476 69.27C109.476 68.9846 109.502 68.6996 109.551 68.4184C109.188 69.2669 108.562 69.9768 107.767 70.4443C107.487 70.586 107.177 70.6589 106.863 70.6568C106.573 70.6652 106.285 70.5981 106.029 70.4611C105.8 70.3226 105.604 70.1363 105.453 69.9144C105.105 69.3734 104.945 68.7317 104.999 68.0904C105.044 67.1391 105.322 66.2146 105.81 65.3968C106.254 64.6056 106.86 63.9172 107.589 63.3768C108.156 62.904 108.86 62.6257 109.597 62.5825C109.902 62.5797 110.202 62.6576 110.467 62.8082C110.731 62.9588 110.951 63.1768 111.105 63.44C111.461 62.8645 111.773 62.5825 112.049 62.5825C112.281 62.5682 112.511 62.6244 112.71 62.7437C112.993 62.9508 113.096 63.135 113.01 63.2847C111.721 65.9318 111.057 67.582 111.019 68.2342C110.999 68.3292 110.986 68.4252 110.978 68.5218ZM106.691 68.5218C106.691 69.1378 106.892 69.4484 107.266 69.4484C107.565 69.4484 107.94 69.1892 108.382 68.6771C109.124 67.7594 109.707 66.7246 110.109 65.6155C110.264 65.2218 110.398 64.8203 110.512 64.4127C110.51 64.2569 110.469 64.1042 110.391 63.9692C110.313 63.8342 110.203 63.7213 110.069 63.6415C109.941 63.5757 109.798 63.5459 109.654 63.5552C109.428 63.5659 109.208 63.6353 109.016 63.7566C108.75 63.9116 108.51 64.1056 108.302 64.3321C108.058 64.5809 107.844 64.857 107.663 65.1551C107.027 66.1742 106.682 67.349 106.668 68.5506L106.691 68.5218Z" fill="#01628A"/>
<path d="M119.835 67.5668L119.766 68.1418C119.737 68.3921 119.781 68.645 119.893 68.8707C120.004 69.0963 120.178 69.2847 120.394 69.4138C120.553 69.4982 120.732 69.5402 120.912 69.535C121.098 69.5386 121.283 69.5014 121.453 69.4253C121.6 69.3618 121.733 69.27 121.844 69.1551C122.052 68.9389 122.168 68.6498 122.166 68.3491C122.172 68.0621 122.109 67.7777 121.982 67.5206C121.85 67.2619 121.696 67.0153 121.522 66.7839L120.9 66.0241C120.47 65.5447 120.13 64.9908 119.899 64.3896C119.736 63.9548 119.649 63.4956 119.64 63.0314C119.639 62.6425 119.692 62.2553 119.795 61.8804C119.891 61.5134 120.032 61.1596 120.215 60.8272C120.396 60.4979 120.614 60.1908 120.865 59.9121C121.113 59.6362 121.395 59.3942 121.706 59.1927C122.266 58.7915 122.933 58.567 123.622 58.5482C124.13 58.5241 124.637 58.6126 125.107 58.8071C125.437 58.9664 125.73 59.194 125.965 59.4748C126.36 60.001 126.563 60.647 126.54 61.3049C126.538 61.9734 126.337 62.6261 125.965 63.1811C125.709 63.6425 125.303 64.0021 124.813 64.1997C124.695 64.2561 124.565 64.2818 124.434 64.2746C124.292 64.2768 124.151 64.2514 124.02 64.1997C123.913 64.1515 123.815 64.0853 123.731 64.0041C123.569 63.8551 123.472 63.6484 123.461 63.4285C123.453 63.373 123.462 63.3163 123.485 63.2653C123.508 63.2143 123.546 63.1711 123.593 63.1408C123.999 62.9159 124.348 62.6009 124.612 62.22C124.904 61.8436 125.076 61.3886 125.107 60.9136C125.13 60.7395 125.114 60.5624 125.061 60.3951C125.007 60.228 124.917 60.0747 124.796 59.9467C124.552 59.7276 124.232 59.6139 123.904 59.6301C123.553 59.6259 123.205 59.7131 122.897 59.8834C122.596 60.0513 122.333 60.2807 122.126 60.5567C121.657 61.1772 121.412 61.9376 121.43 62.7149C121.457 63.3329 121.656 63.9309 122.005 64.4414C122.166 64.7062 122.339 64.9652 122.529 65.2184C122.719 65.4716 122.891 65.7364 123.058 66.0068C123.397 66.5032 123.596 67.0819 123.634 67.6817C123.645 68.113 123.555 68.5412 123.369 68.9305C123.193 69.271 122.953 69.5738 122.661 69.8225C122.066 70.3535 121.295 70.6447 120.497 70.64C120.172 70.661 119.846 70.6117 119.542 70.4941C119.238 70.3771 118.963 70.1951 118.736 69.9605C118.423 69.6425 118.246 69.2154 118.241 68.7694C118.236 68.3523 118.374 67.9456 118.633 67.6182C118.776 67.4188 118.977 67.2682 119.208 67.1869C119.634 67.0714 119.835 67.1984 119.835 67.5668Z" fill="#01628A"/>
<path d="M131.524 64.0386C131.24 64.0386 130.734 64.4702 130.005 65.3335L129.36 66.1222L128.129 67.7393C127.83 68.3144 127.593 68.7751 127.421 69.155L127.006 70.047C126.932 70.215 126.837 70.3734 126.724 70.5188C126.683 70.5623 126.633 70.597 126.578 70.6195C126.522 70.6421 126.462 70.6531 126.402 70.651C126.266 70.6526 126.131 70.6274 126.005 70.5765C125.887 70.5335 125.775 70.471 125.677 70.3923C125.591 70.3299 125.519 70.2491 125.468 70.1551C125.417 70.0617 125.389 69.9578 125.383 69.8513C125.409 69.6892 125.464 69.5333 125.544 69.3906L125.856 68.7694C126.972 66.3457 127.848 63.8185 128.474 61.2243C128.735 60.2268 128.945 59.2163 129.101 58.1971C129.159 57.7654 129.366 57.5467 129.734 57.5467C129.939 57.5413 130.141 57.6018 130.31 57.7194C130.436 57.7909 130.542 57.8934 130.617 58.0173C130.693 58.1412 130.736 58.2823 130.742 58.4272C130.726 58.7135 130.69 58.9983 130.632 59.279C130.574 59.5956 130.494 59.9351 130.396 60.3035C130.298 60.6718 130.183 61.0574 130.062 61.4545C129.723 62.4904 129.487 63.2386 129.302 63.6932C128.802 65.0802 128.485 65.8917 128.371 66.1274C128.445 66.0356 128.549 65.909 128.67 65.7478C129.608 64.5162 130.189 63.7853 130.396 63.5436C130.575 63.3391 130.767 63.1468 130.972 62.9681C131.317 62.678 131.758 62.5263 132.209 62.5422C132.393 62.5351 132.576 62.5679 132.746 62.6385C132.916 62.709 133.068 62.8156 133.193 62.9508C133.411 63.1856 133.535 63.4934 133.538 63.8141C133.542 64.0976 133.507 64.3803 133.435 64.6544C133.361 64.9143 133.273 65.1699 133.17 65.4198C133.061 65.673 132.94 65.938 132.813 66.214L132.428 67.0257C132.135 67.5945 131.952 68.2132 131.887 68.8496C131.887 69.1262 131.996 69.2642 132.226 69.2642C132.426 69.2636 132.623 69.2164 132.802 69.1262C132.906 69.0601 133.021 69.0134 133.141 68.9882C133.163 68.984 133.186 68.985 133.207 68.9918C133.229 68.9987 133.248 69.0102 133.265 69.0259C133.28 69.0422 133.292 69.0616 133.299 69.0831C133.305 69.1041 133.307 69.1272 133.302 69.1493C133.297 69.3843 133.23 69.6142 133.109 69.8162C132.988 70.0177 132.817 70.1845 132.612 70.3C132.358 70.4889 132.053 70.599 131.737 70.6169C131.516 70.6216 131.295 70.5943 131.081 70.5361C130.911 70.4841 130.755 70.3934 130.626 70.2716C130.466 70.1105 130.342 69.9174 130.263 69.7055C130.184 69.4929 130.151 69.2657 130.166 69.0396C130.211 68.2777 130.406 67.5326 130.742 66.8473L131.576 65.0687C131.707 64.8287 131.787 64.5642 131.812 64.2918C131.84 64.1364 131.737 64.0386 131.524 64.0386Z" fill="#01628A"/>
<path d="M135.449 70.0471C135.224 69.8272 135.051 69.5596 134.943 69.2642C134.809 68.9053 134.743 68.5249 134.747 68.1418C134.742 67.6995 134.796 67.2582 134.908 66.83C135.016 66.3856 135.175 65.9548 135.38 65.5464C135.581 65.1372 135.826 64.7513 136.111 64.3953C136.389 64.0461 136.708 63.7312 137.061 63.4573C137.718 62.9106 138.542 62.6041 139.397 62.5883C139.861 62.5523 140.323 62.6697 140.713 62.9224C141.103 63.1752 141.399 63.5491 141.556 63.9867C141.828 64.7788 141.844 65.6367 141.601 66.4386C141.383 67.3222 140.977 68.1486 140.41 68.8612C139.892 69.5586 139.193 70.1016 138.39 70.4327C138.024 70.5818 137.634 70.6594 137.239 70.6626C136.896 70.6694 136.554 70.6206 136.226 70.5188C135.935 70.4228 135.669 70.2612 135.449 70.0471ZM136.928 66.3001C136.776 66.6742 136.653 67.0588 136.56 67.4513C136.471 67.8286 136.429 68.2148 136.433 68.6025C136.423 68.8937 136.48 69.1829 136.6 69.4484C136.646 69.5444 136.719 69.6247 136.81 69.6787C136.901 69.7333 137.006 69.759 137.112 69.7532C137.366 69.748 137.611 69.6635 137.814 69.5119C138.064 69.324 138.288 69.1052 138.482 68.8612C138.713 68.5716 138.917 68.2615 139.092 67.9346C139.284 67.5819 139.45 67.2167 139.593 66.841C139.883 66.14 140.038 65.3902 140.048 64.6313C140.048 64.0558 139.933 63.7048 139.702 63.5493C139.584 63.4806 139.448 63.4485 139.311 63.4573C139.101 63.4732 138.901 63.5514 138.735 63.6817C138.501 63.8638 138.29 64.0746 138.108 64.309C137.875 64.593 137.665 64.8951 137.481 65.2126C137.283 65.5637 137.109 65.927 136.957 66.3001H136.928Z" fill="#01628A"/>
<path d="M144.255 69.8398C144.255 69.9201 144.128 70.3231 143.915 71.0598C143.702 71.7965 143.524 72.3836 143.38 72.7866C143.207 73.4273 142.936 74.037 142.574 74.5937C142.499 74.6835 142.405 74.7553 142.298 74.8041C142.192 74.8529 142.076 74.8771 141.958 74.8755C141.815 74.8771 141.675 74.8361 141.556 74.7585C141.436 74.6808 141.341 74.5691 141.285 74.4379C141.239 74.3555 141.214 74.2621 141.216 74.1677C141.256 73.9378 141.335 73.7164 141.446 73.5112C142.115 71.882 142.662 70.2045 143.08 68.4928C143.353 67.5032 143.531 66.83 143.616 66.4727L143.863 65.5061C143.982 65.0783 144.076 64.644 144.145 64.2054C144.182 64.044 144.169 63.875 144.105 63.722C144.057 63.6371 143.992 63.5627 143.915 63.5033L143.714 63.3766C143.681 63.3569 143.655 63.3273 143.641 63.2921C143.627 63.2569 143.624 63.2179 143.633 63.181C143.645 63.0812 143.689 62.9881 143.759 62.9163C143.841 62.8319 143.937 62.7619 144.042 62.7091C144.262 62.6066 144.501 62.5517 144.744 62.5479C144.939 62.5367 145.135 62.5661 145.319 62.6342C145.445 62.6871 145.559 62.7655 145.653 62.8645C145.732 62.9377 145.795 63.0268 145.838 63.1259C145.88 63.2251 145.902 63.332 145.901 63.44C145.85 63.8237 145.793 64.1632 145.728 64.4586C146.631 63.181 147.564 62.5364 148.531 62.5364C148.94 62.5167 149.344 62.6438 149.669 62.8948C149.994 63.1458 150.219 63.5044 150.303 63.9061C150.414 64.2796 150.466 64.6678 150.458 65.0572C150.458 65.5238 150.386 65.9878 150.245 66.4328C150.107 66.8914 149.913 67.3316 149.67 67.7446C149.435 68.1555 149.16 68.5411 148.847 68.8958C148.544 69.229 148.211 69.5334 147.852 69.8052C147.251 70.2874 146.514 70.5676 145.745 70.6054C145.451 70.6258 145.156 70.5655 144.893 70.4306C144.63 70.2958 144.41 70.0911 144.255 69.8398ZM145.446 66.5477C145.271 66.9014 145.126 67.2687 145.014 67.647C144.906 67.966 144.848 68.3003 144.841 68.6366C144.825 68.8943 144.885 69.1503 145.014 69.3733C145.076 69.4683 145.162 69.5454 145.263 69.5969C145.364 69.6483 145.477 69.6724 145.59 69.6672C145.853 69.6635 146.111 69.5921 146.338 69.4599C146.607 69.303 146.853 69.1094 147.069 68.8843C147.315 68.635 147.535 68.3611 147.725 68.0673C147.929 67.753 148.107 67.4219 148.254 67.0772C148.559 66.3935 148.724 65.6559 148.738 64.9076C148.753 64.6109 148.703 64.3146 148.594 64.0385C148.558 63.9472 148.496 63.8689 148.415 63.8144C148.333 63.7598 148.237 63.7316 148.139 63.7335C147.907 63.7425 147.683 63.8252 147.501 63.9695C147.25 64.1531 147.019 64.3613 146.81 64.591C146.549 64.8728 146.308 65.1728 146.09 65.4888C145.854 65.8279 145.638 66.1815 145.446 66.5477Z" fill="#01628A"/>
<path d="M28.9731 101.28V100.428C29.1662 94.8406 30.6368 89.3714 33.2721 84.4407C35.4767 80.096 38.6224 76.2971 42.4804 73.3219C46.1407 70.5283 49.7069 69.1321 53.1792 69.1321C54.3587 69.0775 55.5347 69.2968 56.6152 69.7733C57.6956 70.2497 58.6509 70.9696 59.4063 71.8774C60.7458 73.5192 61.4487 75.5887 61.3861 77.707C61.3861 80.4581 60.377 83.1745 58.3589 85.8564C57.3836 87.2301 56.1158 88.3698 54.6468 89.1946C54.1085 89.5068 53.5019 89.6826 52.8799 89.7067C52.3653 89.7104 51.8569 89.5939 51.3951 89.3672C50.9654 89.1511 50.5761 88.863 50.2441 88.5151C49.6493 88.0151 49.2667 87.3072 49.1737 86.5353C49.1475 86.3118 49.1744 86.0857 49.2525 85.8747C49.3305 85.6633 49.4573 85.4738 49.6225 85.3212C52.7188 83.0922 54.829 80.7902 55.9532 78.4148C56.3503 77.5821 56.5623 76.6728 56.5748 75.7503C56.5748 73.9201 55.7057 73.005 53.9677 73.005C51.2167 73.005 48.3679 74.5629 45.4212 77.6781C42.4901 80.87 40.1358 84.5467 38.4633 88.544C36.5449 93.014 35.5262 97.1173 35.4073 100.854C35.2193 104.837 36.1631 107.506 38.2388 108.86C39.0351 109.355 39.9608 109.601 40.8977 109.568C41.9485 109.568 42.9829 109.307 43.9076 108.808C44.8401 108.314 45.6795 107.661 46.3881 106.88C47.7472 105.442 48.5491 103.567 48.6499 101.591C48.6902 100.21 48.1953 99.2602 47.1766 98.7135C46.7502 98.5015 46.3 98.341 45.8357 98.236C45.4234 98.1458 45.0234 98.0067 44.6444 97.8215C44.3336 97.6604 44.253 97.3608 44.4026 96.9179C44.5963 96.4095 44.8854 95.9425 45.2544 95.5421C45.6875 95.0001 46.2326 94.5583 46.8525 94.2461C47.4723 93.9344 48.1521 93.7602 48.8456 93.735C49.5055 93.7644 50.161 93.8588 50.8023 94.0173C51.8781 94.2907 52.9758 94.4701 54.0828 94.5525C54.6583 94.5525 55.0957 94.5525 55.4295 94.5121C55.7663 94.4822 56.1008 94.4302 56.4309 94.3568C57.17 94.1946 57.8985 93.9869 58.6121 93.735C59.7228 93.3556 60.2811 93.6085 60.2811 94.4832C60.2859 95.3375 60.1032 96.1823 59.7459 96.9583C59.3986 97.7139 58.8967 98.3882 58.2726 98.9381C56.9076 100.157 55.1163 100.788 53.2886 100.693C53.4957 101.919 53.0641 103.507 51.9879 105.447C50.2506 108.794 47.3226 111.369 43.781 112.664C42.4155 113.154 40.9728 113.393 39.5222 113.372C38.0324 113.389 36.5546 113.105 35.1771 112.537C33.8845 111.999 32.7255 111.183 31.7816 110.149C29.9092 108.027 28.9731 105.071 28.9731 101.28Z" fill="#01628A" stroke="#02638B" stroke-width="1.39" stroke-miterlimit="10"/>
<path d="M63.0436 103.231C63.1123 101.631 63.389 100.047 63.8666 98.5177C64.3411 97.0023 64.9759 95.542 65.76 94.161C66.5604 92.7463 67.493 91.4109 68.5455 90.1726C69.5735 88.9516 70.7314 87.8455 71.9986 86.8753C74.6841 84.8567 77.4106 83.8477 80.1769 83.8477C83.3997 83.8477 85.55 85.1773 86.6282 87.836C87.0234 88.8592 87.2054 89.9517 87.1635 91.0473C87.1624 92.2342 86.9216 93.409 86.4556 94.5005C86.0028 95.5635 85.3658 96.5374 84.5735 97.378C83.7213 98.2705 82.7537 99.045 81.6959 99.6805C80.5562 100.379 79.3468 100.958 78.0874 101.407C75.3201 102.368 72.4132 102.865 69.4836 102.88C69.3934 103.271 69.3452 103.67 69.3397 104.071C69.3289 104.665 69.3868 105.258 69.5124 105.838C69.6314 106.45 69.8616 107.035 70.1915 107.565C70.4761 108.093 70.902 108.531 71.4214 108.83C71.9404 109.131 72.5328 109.28 73.1325 109.262C75.4046 109.24 77.6236 108.573 79.532 107.34C80.1832 106.968 80.7861 106.518 81.3276 106C81.6251 105.622 82.0553 105.373 82.5307 105.303C82.7196 105.317 82.9022 105.381 83.0586 105.488C83.2155 105.595 83.3409 105.742 83.4228 105.913C83.6778 106.324 83.8095 106.799 83.8027 107.283C83.8226 108.222 83.5246 109.141 82.9563 109.89C80.5814 112.265 77.0438 113.452 72.3439 113.452C69.5699 113.452 67.3427 112.622 65.6621 110.96C63.8013 109.057 62.9285 106.481 63.0436 103.231ZM79.5724 87.6115C77.5848 87.6115 75.6779 88.9699 73.8519 91.6864C72.2012 94.258 70.9424 97.0605 70.1167 100.003C73.195 99.7182 76.0872 98.4017 78.3236 96.2672C80.4565 94.2302 81.5233 92.2793 81.5233 90.4145C81.5233 88.5496 80.8732 87.6156 79.5724 87.6115Z" fill="#01628A" stroke="#02638B" stroke-width="1.39" stroke-miterlimit="10"/>
<path d="M106.57 105.723C107.116 105.723 107.387 106.092 107.387 106.828C107.376 107.474 107.176 108.102 106.811 108.635C106.103 109.938 105.044 111.016 103.756 111.749C102.21 112.804 100.389 113.384 98.5183 113.418C95.4797 113.418 93.5613 112.06 92.7632 109.343C91.8004 106.12 93.2428 99.2812 97.0911 88.8262C94.9193 88.6342 93.7413 88.2506 93.5571 87.675C93.4963 87.4893 93.4669 87.2951 93.4711 87.0994C93.4889 86.8454 93.5828 86.6025 93.7413 86.4031C93.9381 86.1192 94.17 85.8621 94.4324 85.6375C94.9833 85.1354 95.6954 84.8457 96.4405 84.8206H98.6794C100.717 80.0514 102.169 77.3349 103.036 76.6712C103.437 76.3731 103.924 76.2136 104.423 76.2168C104.855 76.2063 105.286 76.2724 105.695 76.412C106.031 76.5442 106.337 76.7394 106.598 76.9876C106.876 77.2206 107.101 77.5102 107.257 77.8366C107.414 78.163 107.499 78.5192 107.508 78.8813C107.488 79.3341 107.372 79.7775 107.168 80.1821L105.074 84.7397H105.753C106.904 84.7397 107.865 84.7398 108.584 84.7109L110.195 84.6826C110.552 84.6826 111.001 84.6826 111.537 84.6826C112.072 84.6826 112.348 84.884 112.348 85.2576C112.348 87.7443 109.403 88.9889 103.514 88.9931H103.29L101.367 93.9711C99.1994 99.8568 98.1138 103.98 98.1096 106.339C98.0749 106.891 98.236 107.437 98.5645 107.881C98.7912 108.1 99.0635 108.265 99.3626 108.365C99.6612 108.464 99.9786 108.496 100.291 108.457C101.066 108.466 101.835 108.322 102.553 108.031C103.179 107.778 103.777 107.46 104.337 107.082C104.849 106.736 105.286 106.419 105.654 106.132C105.911 105.905 106.23 105.763 106.57 105.723Z" fill="#01628A" stroke="#02638B" stroke-width="1.39" stroke-miterlimit="10"/>
<path d="M132.744 105.631C132.744 107.358 133.354 108.232 134.58 108.232C135.305 108.259 136.026 108.125 136.693 107.841C137.038 107.645 137.416 107.51 137.809 107.444C138.206 107.444 138.384 107.651 138.384 108.065C138.384 109.688 137.538 111.081 135.84 112.255C135.067 112.84 134.164 113.229 133.207 113.386C132.25 113.543 131.27 113.465 130.35 113.159C129.72 112.919 129.15 112.544 128.68 112.06C128.211 111.575 127.854 110.994 127.634 110.356C127.371 109.718 127.227 109.037 127.208 108.348C127.212 107.304 127.307 106.262 127.49 105.234C125.736 108.817 123.557 111.288 120.952 112.647C119.928 113.173 118.793 113.445 117.643 113.441C116.583 113.466 115.535 113.218 114.598 112.721C113.727 112.228 112.978 111.545 112.405 110.724C111.182 108.952 110.625 106.726 110.736 104.048C110.889 100.56 111.911 97.1644 113.712 94.1725C115.323 91.2703 117.541 88.7495 120.215 86.7829C122.839 84.8415 125.293 83.8707 127.576 83.8707C129.859 83.8707 131.699 84.9181 133.095 87.0133C134.396 84.9181 135.547 83.8707 136.548 83.8707C137.398 83.8072 138.247 84.0082 138.977 84.4463C140.017 85.2135 140.385 85.8736 140.082 86.4261C135.348 96.1218 132.915 102.159 132.784 104.538C132.749 104.901 132.736 105.266 132.744 105.631ZM117.038 105.746C117.038 108.01 117.763 109.142 119.214 109.142C120.33 109.142 121.698 108.198 123.317 106.31C125.692 103.536 127.802 99.8011 129.648 95.1049C130.222 93.6625 130.713 92.1885 131.121 90.6905C131.117 90.1196 130.966 89.5592 130.683 89.0638C130.4 88.568 129.993 88.1529 129.504 87.8591C129.036 87.6225 128.514 87.5154 127.991 87.5485C127.159 87.5983 126.353 87.8512 125.643 88.2852C124.681 88.823 123.805 89.4999 123.041 90.2938C122.148 91.2078 121.36 92.2195 120.693 93.3093C118.369 97.0458 117.112 101.346 117.056 105.746H117.038Z" fill="#01628A" stroke="#02638B" stroke-width="1.39" stroke-miterlimit="10"/>
<path d="M143.668 112.002C143.159 111.46 142.767 110.82 142.516 110.12C142.206 109.269 142.056 108.367 142.073 107.462C142.135 106.085 142.369 104.722 142.77 103.404C143.23 101.678 143.823 99.7723 144.536 97.6026L146.913 90.5525C150.294 80.7461 152.247 73.1624 152.772 67.8024C152.945 66.2141 153.716 65.4256 155.074 65.4256C155.84 65.3947 156.595 65.6128 157.227 66.0472C158.32 66.8757 158.848 67.8008 158.809 68.8214C158.742 70.0739 158.563 71.318 158.274 72.539C157.952 74.0009 157.537 75.5949 157.031 77.3213C156.525 79.0481 155.94 80.8741 155.276 82.8004L151.368 94.3105C149.124 100.833 148.001 105.054 148.001 106.972C148.001 107.991 148.416 108.503 149.244 108.503C149.998 108.511 150.743 108.335 151.414 107.991C151.8 107.751 152.225 107.58 152.669 107.484C152.746 107.476 152.824 107.486 152.898 107.511C152.972 107.538 153.038 107.58 153.094 107.635C153.149 107.69 153.191 107.757 153.217 107.83C153.243 107.904 153.252 107.982 153.244 108.06C153.244 109.74 152.381 111.145 150.666 112.278C149.751 112.964 148.653 113.364 147.512 113.429C146.73 113.454 145.951 113.339 145.21 113.09C144.622 112.845 144.096 112.474 143.668 112.002Z" fill="#01628A" stroke="#02638B" stroke-width="1.39" stroke-miterlimit="10"/>
<path d="M159.851 112.002C159.345 111.459 158.953 110.819 158.7 110.12C158.392 109.268 158.244 108.367 158.263 107.461C158.322 106.085 158.556 104.721 158.959 103.404C159.42 101.678 160.006 99.7723 160.726 97.6026L163.103 90.5525C166.483 80.7455 168.436 73.1623 168.962 67.8024C169.128 66.214 169.906 65.4256 171.263 65.4256C172.029 65.3955 172.784 65.6135 173.416 66.0472C174.509 66.8757 175.033 67.8024 174.998 68.8214C174.925 70.0733 174.747 71.3169 174.463 72.539C174.141 74.0008 173.725 75.5949 173.214 77.3212C172.704 79.0481 172.129 80.8741 171.488 82.8003L167.586 94.3105C165.342 100.833 164.219 105.054 164.219 106.972C164.219 107.991 164.634 108.503 165.462 108.503C166.215 108.511 166.958 108.336 167.626 107.991C168.014 107.75 168.44 107.579 168.887 107.484C168.964 107.476 169.043 107.486 169.116 107.511C169.19 107.538 169.256 107.58 169.312 107.635C169.367 107.69 169.409 107.757 169.435 107.83C169.461 107.904 169.471 107.982 169.462 108.06C169.462 109.74 168.605 111.147 166.889 112.278C165.974 112.964 164.877 113.364 163.736 113.429C162.954 113.455 162.174 113.34 161.434 113.09C160.831 112.851 160.29 112.479 159.851 112.002Z" fill="#01628A" stroke="#02638B" stroke-width="1.39" stroke-miterlimit="10"/>
<path d="M95.0883 57C96.0265 57.5755 95.2378 59.3366 95.8654 60.3668C95.9603 60.5436 96.0899 60.6998 96.2458 60.8265C96.4016 60.9532 96.5806 61.0478 96.7731 61.1051C96.9657 61.1623 97.1677 61.1809 97.3671 61.1599C97.567 61.1389 97.7606 61.0786 97.9369 60.9825H97.9831C97.9543 60.2091 97.7176 59.4576 97.2984 58.8071C96.9269 58.2055 96.4179 57.7006 95.8134 57.3338C96.4966 57.6999 97.0691 58.2425 97.471 58.9049C97.8462 59.4931 98.0765 60.1616 98.1442 60.8559C98.3861 60.5907 98.532 60.2519 98.5582 59.8939C98.5839 59.5358 98.4889 59.1794 98.288 58.8819C97.9585 58.3222 97.492 57.8556 96.9321 57.5263C96.3722 57.197 95.7379 57.0159 95.0883 57Z" fill="#659B41"/>
<path d="M102.547 59.0142C101.448 59.0891 101.332 61.017 100.297 61.6386C99.9603 61.865 99.5473 61.9486 99.149 61.8709C98.7508 61.7932 98.3997 61.5606 98.1731 61.2242V61.1782C98.553 60.5039 99.1102 59.9466 99.7845 59.5667C100.391 59.2044 101.076 58.9932 101.782 58.9509C100.993 58.9547 100.22 59.1757 99.5483 59.5898C98.9428 59.9362 98.4281 60.4214 98.0466 61.0055C97.9532 60.6579 97.9805 60.289 98.1237 59.9588C98.267 59.6286 98.5173 59.3565 98.8347 59.1869C99.3878 58.8441 100.019 58.6484 100.669 58.6181C101.318 58.5879 101.965 58.7243 102.547 59.0142Z" fill="#659B41"/>
<path d="M34.7973 72.6711C43.0962 63.9867 53.5706 59.4344 62.4911 59.6934C53.6627 56.0849 40.2129 60.643 29.8478 71.4858C17.6239 84.2737 14.3089 100.963 22.4927 108.767C23.8084 110.023 25.3622 111.001 27.0624 111.645C19.5519 102.178 22.7172 85.3095 34.7973 72.6711Z" fill="#881012"/>
<path d="M27.6091 120.473L27.7242 120.531C28.5414 119.138 29.537 118.436 30.7169 118.436C30.905 118.411 31.0966 118.428 31.2766 118.489C31.4566 118.55 31.6202 118.651 31.7545 118.786C31.8888 118.92 31.9902 119.083 32.0508 119.263C32.1114 119.443 32.1295 119.635 32.1038 119.823C32.0581 120.502 31.9444 121.175 31.7643 121.832C31.5754 122.531 31.4616 123.249 31.4247 123.973C31.3961 124.338 31.4805 124.704 31.6665 125.02C31.3316 125.371 30.8733 125.577 30.3888 125.596C29.514 125.596 29.0709 125.118 29.0709 124.174C29.1168 123.57 29.2326 122.973 29.4162 122.396C29.5856 121.864 29.7013 121.316 29.7615 120.761C29.7615 120.416 29.6291 120.243 29.3702 120.243C29.1093 120.263 28.8606 120.362 28.6565 120.525C28.3677 120.736 28.1134 120.991 27.9026 121.279C27.6366 121.642 27.4324 122.047 27.2983 122.476C27.1343 122.952 27.0507 123.452 27.0508 123.955C27.0206 124.33 27.1049 124.706 27.2925 125.031C26.9548 125.381 26.4951 125.588 26.0091 125.607C25.1343 125.607 24.697 125.13 24.697 124.186C24.743 123.582 24.8569 122.986 25.0365 122.407C25.2059 121.875 25.3216 121.328 25.3818 120.773C25.3818 120.428 25.2552 120.255 24.9962 120.255C24.7334 120.274 24.4825 120.372 24.2768 120.537C23.9894 120.749 23.7353 121.003 23.5229 121.291C23.2714 121.658 23.0773 122.062 22.9474 122.488C22.7861 122.964 22.7026 123.464 22.6999 123.967C22.6698 124.342 22.754 124.717 22.9416 125.043C22.6068 125.394 22.1485 125.6 21.664 125.619C20.7835 125.619 20.3461 125.141 20.3461 124.197C20.3831 123.603 20.462 123.013 20.582 122.43C20.7393 121.548 20.9005 120.748 21.0655 120.03L20.4899 119.115C21.1211 118.724 21.8427 118.502 22.5848 118.471C23.2236 118.471 23.5402 118.764 23.5402 119.34C23.5343 119.737 23.4461 120.129 23.2812 120.491L23.3963 120.548C24.2078 119.156 25.2092 118.454 26.389 118.454C26.7546 118.434 27.1146 118.549 27.4019 118.776C27.5306 118.899 27.6304 119.049 27.6941 119.215C27.7578 119.381 27.7837 119.559 27.7702 119.737C27.7491 119.988 27.6948 120.236 27.6091 120.473Z" fill="#881012"/>
<path d="M35.1541 125.584C34.8979 125.612 34.6388 125.582 34.3959 125.496C34.1529 125.41 33.9322 125.271 33.7498 125.089C33.4727 124.738 33.3298 124.299 33.3469 123.852C33.3702 123.161 33.4549 122.473 33.6002 121.797C33.7354 121.178 33.8181 120.548 33.8477 119.916C33.8683 119.593 33.7856 119.272 33.6117 119.001C34.1546 118.67 34.7679 118.473 35.4016 118.425C35.6453 118.403 35.8886 118.471 36.0864 118.615C36.1614 118.697 36.2185 118.793 36.2541 118.898C36.2898 119.003 36.3032 119.114 36.2936 119.225C36.2291 119.925 36.1137 120.619 35.9483 121.302C35.7823 121.972 35.6649 122.653 35.5972 123.34C35.586 123.566 35.6646 123.787 35.8159 123.955C35.8917 124.029 35.9819 124.087 36.0809 124.125C36.1799 124.162 36.2856 124.179 36.3915 124.174C36.665 124.161 36.9282 124.065 37.1454 123.898C37.4264 123.693 37.6502 123.42 37.7957 123.104C37.9051 122.482 38.1122 121.51 38.4288 120.174L37.7439 119.259C38.3684 118.757 39.136 118.465 39.9366 118.425C40.1966 118.403 40.4563 118.47 40.6733 118.615C40.7517 118.687 40.8127 118.777 40.8516 118.877C40.8905 118.976 40.9062 119.083 40.8977 119.19C40.8087 119.928 40.6683 120.659 40.4776 121.377C40.2563 122.217 40.1175 123.077 40.0632 123.944C40.0422 124.136 40.0627 124.331 40.1232 124.514C40.1838 124.698 40.2831 124.867 40.4143 125.009C40.0547 125.361 39.5764 125.566 39.0733 125.584C38.7079 125.619 38.3437 125.507 38.0604 125.274C37.9569 125.166 37.8765 125.039 37.8241 124.899C37.7716 124.76 37.7483 124.611 37.7554 124.462L37.6403 124.405C37.3739 124.78 37.0124 125.078 36.5929 125.268C36.1425 125.478 35.6512 125.586 35.1541 125.584Z" fill="#881012"/>
<path d="M41.9624 124.163C41.9995 123.569 42.0783 122.978 42.1984 122.396C42.3557 121.513 42.5168 120.713 42.6818 119.996L42.1063 119.081C42.733 118.75 43.4128 118.532 44.1149 118.436C44.4947 118.436 44.6904 118.684 44.6904 119.173C44.6266 119.74 44.4992 120.298 44.3105 120.836L44.4256 120.894C44.9724 119.259 45.6573 118.436 46.4745 118.436C46.6333 118.426 46.7923 118.452 46.9398 118.512C47.0872 118.571 47.2193 118.664 47.3262 118.782C47.5168 118.991 47.6233 119.264 47.6255 119.547C47.6277 119.749 47.5874 119.949 47.507 120.135C47.4267 120.32 47.3082 120.487 47.1593 120.624C46.763 120.945 46.2586 121.104 45.7493 121.066C44.8055 121.066 44.3336 122.039 44.3336 123.984C44.3054 124.346 44.3899 124.708 44.5752 125.02C44.2182 125.352 43.7603 125.555 43.2746 125.596C42.3941 125.584 41.9624 125.107 41.9624 124.163Z" fill="#881012"/>
<path d="M51.9189 123.892L51.8037 123.835C51.6321 124.336 51.3254 124.78 50.9174 125.118C50.558 125.42 50.1034 125.585 49.634 125.584C49.3351 125.594 49.038 125.533 48.7677 125.404C48.4974 125.276 48.2617 125.085 48.0801 124.847C47.6677 124.284 47.4643 123.594 47.5046 122.897C47.4929 122.308 47.5999 121.724 47.8192 121.179C48.0385 120.633 48.3656 120.137 48.7809 119.721C49.1962 119.304 49.6912 118.976 50.2363 118.756C50.7814 118.535 51.3654 118.426 51.9534 118.436C52.2569 118.436 52.5597 118.467 52.857 118.528C52.896 118.718 52.9211 118.91 52.9318 119.104C53.2806 118.868 53.6907 118.74 54.1116 118.736C54.6871 118.736 54.9461 119.035 54.9461 119.639C54.8689 120.291 54.7478 120.937 54.5835 121.573C54.3873 122.356 54.2678 123.155 54.2267 123.961C54.2036 124.154 54.2231 124.351 54.2838 124.535C54.3444 124.72 54.4447 124.889 54.5777 125.032C54.2219 125.383 53.7477 125.588 53.2483 125.607C53.0595 125.623 52.8698 125.594 52.6946 125.522C52.5195 125.45 52.364 125.337 52.2411 125.193C51.9965 124.805 51.8835 124.349 51.9189 123.892ZM49.6168 122.338C49.5979 122.644 49.6787 122.946 49.847 123.201C49.9261 123.301 50.0281 123.38 50.1443 123.433C50.2604 123.485 50.3875 123.508 50.5146 123.501C50.8277 123.494 51.1296 123.382 51.3721 123.184C51.6724 122.949 51.9146 122.648 52.08 122.304C52.1732 121.384 52.3231 120.471 52.5289 119.57C51.766 119.567 51.0332 119.867 50.4916 120.405C50.2243 120.647 50.0109 120.943 49.8651 121.273C49.7194 121.603 49.6446 121.96 49.6455 122.321L49.6168 122.338Z" fill="#881012"/>
<path d="M62.3875 118.436C62.5754 118.41 62.7669 118.429 62.9467 118.489C63.1265 118.55 63.2898 118.651 63.4237 118.785C63.5576 118.92 63.6585 119.084 63.7183 119.264C63.7782 119.444 63.7955 119.635 63.7687 119.823C63.723 120.502 63.6092 121.175 63.4292 121.832C63.2415 122.531 63.1296 123.249 63.0954 123.973C63.0683 124.337 63.1504 124.702 63.3314 125.02C62.9965 125.371 62.5382 125.577 62.0537 125.596C61.1789 125.596 60.7415 125.118 60.7415 124.174C60.7846 123.57 60.8986 122.973 61.0811 122.396C61.2504 121.864 61.3661 121.316 61.4264 120.761C61.4264 120.416 61.294 120.244 61.035 120.244C60.7693 120.265 60.5154 120.363 60.3041 120.525C60.0035 120.736 59.7359 120.99 59.5099 121.279C59.2302 121.64 59.0124 122.044 58.8653 122.476C58.6903 122.95 58.6007 123.451 58.6006 123.955C58.5704 124.331 58.6547 124.706 58.8423 125.032C58.5075 125.382 58.0492 125.589 57.5647 125.607C56.6841 125.607 56.2467 125.13 56.2467 124.186C56.3214 123.035 56.4753 121.891 56.7071 120.761C56.9661 119.242 57.11 118.396 57.1503 118.212L56.5115 117.297C57.1813 116.837 57.9543 116.551 58.7618 116.462C58.9986 116.438 59.2356 116.506 59.4236 116.652C59.4965 116.737 59.5515 116.836 59.5851 116.943C59.6187 117.05 59.6303 117.162 59.6192 117.274C59.6154 117.875 59.5615 118.476 59.4581 119.069C59.3863 119.55 59.2884 120.026 59.1646 120.496L59.2739 120.554C60.0912 119.138 61.1271 118.436 62.3875 118.436Z" fill="#881012"/>
<path d="M65.6276 125.32L64.8277 124.289C64.8483 123.921 65.0137 123.575 65.2881 123.328C65.5564 123.064 65.9186 122.917 66.2952 122.92C66.465 122.913 66.634 122.944 66.7902 123.011C66.9464 123.078 67.086 123.178 67.1988 123.305C67.4171 123.564 67.5337 123.894 67.5268 124.232C67.5396 125.011 67.2603 125.766 66.7441 126.35C66.1854 126.974 65.4337 127.393 64.609 127.541L64.4363 127.04C64.7934 126.874 65.0965 126.611 65.3111 126.28C65.5083 125.998 65.6184 125.664 65.6276 125.32Z" fill="#881012"/>
<path d="M79.4344 120.474L79.5493 120.531C80.3668 119.139 81.3622 118.437 82.5423 118.437C82.7301 118.41 82.9216 118.429 83.1011 118.489C83.2811 118.55 83.4443 118.651 83.5781 118.786C83.7124 118.92 83.8131 119.084 83.873 119.264C83.9328 119.444 83.9501 119.636 83.9233 119.823C83.8803 120.502 83.7685 121.176 83.5896 121.832C83.4007 122.531 83.2868 123.249 83.2501 123.973C83.2213 124.339 83.3057 124.704 83.4915 125.02C83.1567 125.371 82.6986 125.577 82.2138 125.596C81.3333 125.596 80.8962 125.118 80.8962 124.174C80.9419 123.57 81.0579 122.973 81.2415 122.396C81.4099 121.864 81.5238 121.316 81.581 120.762C81.581 120.416 81.4545 120.244 81.1953 120.244C80.9345 120.263 80.6853 120.361 80.4817 120.525C80.1915 120.735 79.9371 120.989 79.7277 121.279C79.4617 121.643 79.2575 122.047 79.1232 122.476C78.9595 122.952 78.8761 123.452 78.8761 123.956C78.8456 124.331 78.9301 124.706 79.1174 125.032C78.7801 125.382 78.3204 125.588 77.8345 125.607C76.9593 125.607 76.5222 125.13 76.5222 124.186C76.5684 123.582 76.6822 122.985 76.8617 122.408C77.0312 121.876 77.1466 121.328 77.207 120.773C77.207 120.428 77.0747 120.255 76.8155 120.255C76.5547 120.275 76.306 120.373 76.1019 120.537C75.8144 120.75 75.5604 121.003 75.3479 121.291C75.0944 121.657 74.9003 122.061 74.7728 122.488C74.6112 122.964 74.5278 123.464 74.5251 123.967C74.4947 124.342 74.5792 124.717 74.767 125.043C74.4317 125.394 73.9737 125.601 73.4893 125.619C72.6089 125.619 72.1712 125.141 72.1712 124.197C72.2085 123.603 72.2872 123.013 72.4074 122.431C72.5643 121.548 72.7259 120.748 72.8906 120.031L72.315 119.116C72.9447 118.725 73.6641 118.503 74.4044 118.471C75.0488 118.471 75.3652 118.765 75.3652 119.34C75.3594 119.737 75.2713 120.129 75.1065 120.491L75.2157 120.549C76.0332 119.156 77.0286 118.454 78.2139 118.454C78.578 118.434 78.9364 118.549 79.2213 118.776C79.3509 118.898 79.4517 119.048 79.5168 119.214C79.5813 119.381 79.6081 119.559 79.5955 119.737C79.574 119.989 79.5199 120.236 79.4344 120.474Z" fill="#881012"/>
<path d="M86.9908 125.584C86.7337 125.612 86.4735 125.583 86.2295 125.497C85.9855 125.412 85.7635 125.272 85.5809 125.089C85.3081 124.736 85.1674 124.298 85.1837 123.852C85.2042 123.16 85.2887 122.473 85.4371 121.797C85.572 121.178 85.6549 120.548 85.6843 119.915C85.7021 119.593 85.6197 119.273 85.4482 119.001C85.9912 118.67 86.6046 118.473 87.2385 118.425C87.4804 118.402 87.7218 118.47 87.9175 118.615C87.9946 118.695 88.0534 118.791 88.0901 118.897C88.1268 119.002 88.1405 119.114 88.1305 119.225C88.066 119.925 87.9505 120.619 87.7847 121.302C87.6189 121.972 87.5019 122.653 87.4337 123.339C87.4227 123.566 87.5014 123.787 87.6525 123.955C87.7286 124.029 87.8188 124.087 87.9175 124.125C88.0167 124.162 88.1221 124.179 88.2281 124.174C88.5015 124.161 88.7649 124.065 88.9821 123.898C89.2613 123.691 89.4848 123.419 89.6323 123.104C89.7419 122.482 89.9487 121.51 90.2656 120.174L89.5751 119.259C90.2021 118.757 90.9708 118.465 91.7731 118.425C92.0334 118.403 92.2931 118.47 92.5098 118.615C92.5875 118.688 92.6473 118.778 92.6851 118.877C92.7228 118.977 92.7381 119.084 92.7286 119.19C92.6431 119.928 92.5046 120.659 92.3141 121.377C92.0932 122.217 91.9541 123.077 91.9001 123.944C91.8791 124.136 91.8996 124.331 91.9599 124.514C92.0208 124.698 92.1199 124.867 92.2511 125.009C91.8912 125.361 91.4131 125.566 90.9099 125.584C90.5447 125.619 90.1806 125.507 89.8972 125.274C89.7928 125.166 89.7115 125.039 89.658 124.9C89.605 124.76 89.5803 124.611 89.5866 124.462L89.4769 124.405C89.2104 124.78 88.8489 125.078 88.4296 125.268C87.9789 125.478 87.4877 125.586 86.9908 125.584Z" fill="#881012"/>
<path d="M98.1096 124.462L97.9947 124.405C97.758 124.753 97.4411 125.039 97.0706 125.24C96.6997 125.44 96.2867 125.548 95.8654 125.555C95.5689 125.557 95.2761 125.492 95.008 125.366C94.7404 125.239 94.5037 125.054 94.3169 124.824C93.872 124.272 93.6469 123.576 93.6841 122.868C93.6873 121.837 94.0703 120.843 94.7603 120.077C95.146 119.641 95.6261 119.301 96.1645 119.081C96.7862 118.816 97.4568 118.685 98.1327 118.695C98.2649 118.695 98.5126 118.695 98.8636 118.741C98.8814 118.547 98.9161 118.354 98.9675 118.166L98.3226 117.251C98.9942 116.791 99.7693 116.504 100.579 116.416C100.816 116.393 101.052 116.461 101.241 116.606C101.393 116.809 101.463 117.062 101.436 117.314C101.33 118.301 101.159 119.279 100.924 120.244C100.653 121.368 100.483 122.513 100.418 123.668C100.355 124.14 100.481 124.617 100.769 124.997C100.413 125.348 99.9387 125.553 99.4392 125.573C99.255 125.588 99.0698 125.565 98.8956 125.504C98.7209 125.444 98.5614 125.347 98.4265 125.222C98.2271 125.018 98.1143 124.746 98.1096 124.462ZM95.8076 122.459C95.7877 122.833 95.9089 123.201 96.1471 123.489C96.2505 123.611 96.3796 123.708 96.5249 123.773C96.6703 123.839 96.8282 123.871 96.9872 123.869C97.2197 123.86 97.4469 123.799 97.6525 123.691C97.8588 123.584 98.0382 123.432 98.1788 123.248C98.2754 122.066 98.4464 120.892 98.691 119.731C98.3226 119.72 97.9553 119.781 97.6111 119.912C97.2664 120.044 96.951 120.242 96.6834 120.495C96.4163 120.749 96.2012 121.053 96.0522 121.39C95.9026 121.727 95.8218 122.091 95.8134 122.459H95.8076Z" fill="#881012"/>
<path d="M106.598 123.892L106.484 123.835C106.312 124.336 106.005 124.78 105.597 125.118C105.238 125.42 104.783 125.585 104.314 125.584C104.015 125.594 103.718 125.533 103.448 125.404C103.177 125.276 102.941 125.085 102.76 124.847C102.347 124.284 102.144 123.594 102.185 122.897C102.171 122.309 102.277 121.724 102.495 121.178C102.713 120.632 103.04 120.136 103.455 119.719C103.87 119.303 104.365 118.974 104.91 118.754C105.455 118.533 106.04 118.425 106.627 118.436C106.931 118.436 107.234 118.466 107.531 118.528C107.572 118.718 107.599 118.91 107.612 119.104C107.951 118.872 108.351 118.744 108.762 118.736C109.338 118.736 109.597 119.035 109.597 119.639C109.52 120.291 109.401 120.937 109.24 121.573C109.04 122.355 108.918 123.155 108.878 123.961C108.855 124.155 108.876 124.351 108.938 124.536C108.999 124.721 109.1 124.89 109.235 125.032C108.877 125.383 108.4 125.588 107.899 125.607C107.711 125.626 107.521 125.598 107.347 125.525C107.172 125.453 107.018 125.339 106.898 125.193C106.659 124.804 106.553 124.347 106.598 123.892ZM104.325 122.321C104.305 122.627 104.388 122.931 104.561 123.184C104.64 123.284 104.742 123.364 104.858 123.416C104.974 123.468 105.101 123.492 105.229 123.484C105.542 123.476 105.843 123.365 106.086 123.167C106.386 122.932 106.629 122.63 106.794 122.286C106.885 121.367 107.033 120.454 107.238 119.553C106.477 119.551 105.746 119.852 105.206 120.387C104.93 120.629 104.709 120.926 104.558 121.259C104.406 121.593 104.326 121.955 104.325 122.321Z" fill="#881012"/>
<path d="M117.067 118.436C117.255 118.41 117.446 118.429 117.626 118.489C117.806 118.55 117.97 118.651 118.103 118.785C118.237 118.92 118.338 119.084 118.398 119.264C118.458 119.444 118.475 119.635 118.449 119.823C118.406 120.502 118.294 121.175 118.114 121.832C117.926 122.531 117.812 123.249 117.775 123.973C117.747 124.338 117.831 124.704 118.017 125.02C117.68 125.371 117.22 125.577 116.733 125.596C115.859 125.596 115.421 125.118 115.421 124.174C115.467 123.57 115.583 122.973 115.766 122.396C115.932 121.863 116.046 121.316 116.106 120.761C116.106 120.416 115.979 120.244 115.721 120.244C115.455 120.264 115.201 120.362 114.99 120.525C114.688 120.735 114.42 120.989 114.195 121.279C113.914 121.639 113.694 122.044 113.545 122.476C113.375 122.951 113.287 123.451 113.286 123.955C113.257 124.329 113.339 124.704 113.522 125.032C113.187 125.382 112.729 125.589 112.244 125.607C111.37 125.607 110.932 125.13 110.932 124.186C111.004 123.035 111.156 121.891 111.387 120.761C111.646 119.242 111.795 118.396 111.83 118.212L111.191 117.297C111.861 116.838 112.634 116.552 113.441 116.462C113.68 116.438 113.919 116.506 114.109 116.652C114.252 116.826 114.32 117.05 114.299 117.274C114.294 117.875 114.243 118.476 114.143 119.069C114.07 119.55 113.971 120.027 113.844 120.496L113.959 120.554C114.771 119.138 115.807 118.436 117.067 118.436Z" fill="#881012"/>
<path d="M120.313 125.32L119.513 124.289C119.521 124.107 119.565 123.928 119.643 123.763C119.722 123.598 119.832 123.45 119.968 123.328C120.237 123.066 120.599 122.92 120.975 122.92C121.145 122.913 121.314 122.944 121.47 123.011C121.626 123.078 121.766 123.178 121.879 123.305C122.097 123.564 122.213 123.894 122.207 124.232C122.218 125.012 121.936 125.767 121.418 126.35C120.86 126.975 120.108 127.395 119.283 127.541L119.11 127.04C119.468 126.875 119.772 126.612 119.985 126.28C120.186 125.999 120.3 125.665 120.313 125.32Z" fill="#881012"/>
<path d="M133.135 118.436C133.323 118.41 133.515 118.428 133.695 118.489C133.875 118.55 134.038 118.651 134.172 118.785C134.306 118.92 134.406 119.084 134.467 119.264C134.526 119.444 134.544 119.635 134.517 119.823C134.471 120.502 134.358 121.175 134.177 121.832C133.99 122.531 133.878 123.249 133.843 123.973C133.817 124.337 133.898 124.702 134.079 125.02C133.745 125.371 133.286 125.577 132.802 125.596C131.927 125.596 131.489 125.118 131.489 124.174C131.536 123.571 131.649 122.974 131.829 122.396C131.998 121.864 132.114 121.317 132.175 120.761C132.175 120.416 132.042 120.243 131.783 120.243C131.517 120.265 131.263 120.363 131.052 120.525C130.753 120.738 130.486 120.991 130.258 121.279C129.98 121.641 129.763 122.045 129.614 122.476C129.441 122.95 129.352 123.451 129.349 123.955C129.319 124.33 129.403 124.706 129.59 125.032C129.256 125.382 128.797 125.589 128.313 125.607C127.438 125.607 126.995 125.13 126.995 124.186C127.07 123.035 127.223 121.891 127.455 120.761C127.714 119.242 127.864 118.396 127.898 118.212L127.26 117.297C127.93 116.838 128.703 116.552 129.51 116.462C129.747 116.438 129.984 116.505 130.172 116.652C130.245 116.737 130.299 116.836 130.333 116.943C130.367 117.05 130.379 117.162 130.368 117.274C130.363 117.875 130.309 118.476 130.206 119.069C130.137 119.55 130.039 120.027 129.913 120.496L130.028 120.554C130.839 119.138 131.875 118.436 133.135 118.436Z" fill="#881012"/>
<path d="M138.816 125.584C137.935 125.642 137.066 125.351 136.399 124.773C136.11 124.487 135.884 124.144 135.738 123.765C135.591 123.386 135.526 122.98 135.547 122.574C135.527 122.015 135.63 121.458 135.848 120.942C136.065 120.426 136.393 119.963 136.807 119.587C137.677 118.81 138.813 118.398 139.978 118.437C140.555 118.396 141.128 118.565 141.59 118.914C141.77 119.067 141.912 119.259 142.007 119.475C142.102 119.692 142.146 119.927 142.136 120.163C142.132 120.521 142.035 120.873 141.855 121.182C141.674 121.492 141.417 121.75 141.106 121.93C140.133 122.472 139.024 122.72 137.912 122.643C137.911 123.05 138.024 123.45 138.24 123.794C138.32 123.92 138.429 124.023 138.559 124.096C138.689 124.168 138.834 124.207 138.983 124.209C139.268 124.214 139.544 124.109 139.754 123.915C139.873 123.785 139.965 123.631 140.021 123.464C140.077 123.296 140.098 123.119 140.082 122.943C141.193 122.943 141.751 123.207 141.751 123.731C141.727 123.992 141.639 124.244 141.496 124.463C141.353 124.683 141.157 124.864 140.928 124.991C140.304 125.407 139.565 125.615 138.816 125.584ZM139.783 119.777C139.574 119.787 139.369 119.844 139.185 119.944C139 120.043 138.841 120.183 138.718 120.353C138.387 120.753 138.148 121.22 138.016 121.723C138.629 121.716 139.227 121.537 139.743 121.204C139.905 121.112 140.043 120.98 140.143 120.821C140.243 120.663 140.304 120.482 140.318 120.295C140.321 120.157 140.27 120.022 140.174 119.921C140.123 119.871 140.062 119.831 139.994 119.807C139.927 119.782 139.854 119.772 139.783 119.777Z" fill="#881012"/>
<path d="M150.458 120.474L150.574 120.531C151.385 119.139 152.387 118.437 153.566 118.437C153.754 118.41 153.946 118.429 154.126 118.489C154.306 118.55 154.469 118.651 154.603 118.786C154.736 118.92 154.837 119.084 154.897 119.264C154.957 119.444 154.974 119.636 154.947 119.823C154.905 120.502 154.793 121.176 154.614 121.832C154.425 122.531 154.311 123.249 154.274 123.973C154.246 124.339 154.33 124.704 154.516 125.02C154.18 125.372 153.719 125.579 153.233 125.596C152.358 125.596 151.92 125.118 151.92 124.174C151.966 123.57 152.082 122.973 152.266 122.396C152.431 121.863 152.545 121.316 152.605 120.762C152.605 120.416 152.479 120.244 152.22 120.244C151.959 120.263 151.71 120.361 151.506 120.525C151.216 120.735 150.962 120.989 150.752 121.279C150.486 121.644 150.281 122.048 150.142 122.476C149.983 122.953 149.901 123.453 149.9 123.956C149.872 124.33 149.954 124.704 150.136 125.032C149.802 125.382 149.343 125.589 148.859 125.607C147.984 125.607 147.546 125.13 147.546 124.186C147.589 123.582 147.704 122.985 147.886 122.408C148.055 121.876 148.171 121.328 148.232 120.773C148.232 120.428 148.099 120.255 147.84 120.255C147.579 120.275 147.331 120.373 147.127 120.537C146.837 120.748 146.583 121.002 146.372 121.291C146.106 121.654 145.902 122.059 145.768 122.488C145.604 122.964 145.52 123.464 145.521 123.967C145.49 124.342 145.575 124.717 145.762 125.043C145.426 125.395 144.966 125.602 144.479 125.619C143.604 125.619 143.167 125.141 143.167 124.197C143.204 123.603 143.283 123.013 143.403 122.431C143.56 121.548 143.721 120.748 143.886 120.031L143.311 119.116C143.94 118.725 144.66 118.503 145.4 118.471C146.039 118.471 146.361 118.765 146.361 119.34C146.355 119.738 146.265 120.13 146.096 120.491L146.211 120.549C147.028 119.156 148.024 118.454 149.204 118.454C149.57 118.433 149.93 118.548 150.217 118.776C150.347 118.898 150.447 119.048 150.512 119.214C150.577 119.381 150.604 119.559 150.591 119.737C150.579 119.987 150.535 120.235 150.458 120.474Z" fill="#881012"/>
<path d="M160.346 123.892L160.231 123.835C160.059 124.336 159.753 124.78 159.345 125.118C158.983 125.42 158.527 125.585 158.055 125.584C157.757 125.593 157.46 125.531 157.19 125.403C156.92 125.275 156.684 125.084 156.502 124.847C156.092 124.282 155.888 123.593 155.926 122.897C155.914 122.309 156.021 121.725 156.24 121.18C156.459 120.635 156.785 120.139 157.2 119.723C157.615 119.306 158.109 118.978 158.653 118.757C159.198 118.536 159.782 118.427 160.369 118.436C160.673 118.435 160.975 118.466 161.272 118.528C161.316 118.718 161.343 118.91 161.353 119.104C161.702 118.868 162.112 118.74 162.533 118.736C163.108 118.736 163.368 119.035 163.368 119.639C163.29 120.291 163.169 120.937 163.005 121.573C162.806 122.355 162.686 123.155 162.648 123.961C162.625 124.154 162.644 124.351 162.705 124.535C162.766 124.72 162.866 124.889 162.999 125.032C162.643 125.383 162.169 125.588 161.67 125.607C161.481 125.624 161.291 125.595 161.115 125.523C160.94 125.451 160.785 125.338 160.663 125.193C160.42 124.804 160.309 124.348 160.346 123.892ZM158.044 122.338C158.027 122.644 158.109 122.947 158.28 123.201C158.359 123.301 158.461 123.38 158.577 123.433C158.693 123.485 158.82 123.508 158.947 123.501C159.261 123.494 159.562 123.382 159.805 123.184C160.118 122.958 160.374 122.663 160.553 122.321C160.646 121.402 160.796 120.489 161.002 119.587C160.239 119.585 159.506 119.885 158.965 120.422C158.69 120.658 158.469 120.949 158.314 121.276C158.16 121.603 158.075 121.959 158.067 122.321L158.044 122.338Z" fill="#881012"/>
<path d="M164.639 121.17C164.59 120.982 164.563 120.789 164.559 120.595C164.547 120.437 164.571 120.28 164.629 120.133C164.687 119.987 164.777 119.855 164.892 119.748C165.126 119.548 165.425 119.44 165.733 119.443C165.721 118.997 165.615 118.558 165.422 118.154C165.74 117.911 166.083 117.703 166.447 117.533C166.752 117.39 167.087 117.317 167.425 117.32C167.678 117.294 167.932 117.361 168.138 117.51C168.209 117.587 168.263 117.678 168.296 117.777C168.33 117.876 168.343 117.981 168.334 118.085C168.316 118.492 168.264 118.896 168.179 119.294C168.489 119.249 168.797 119.186 169.1 119.104C169.161 119.303 169.188 119.512 169.18 119.72C169.178 119.982 169.075 120.233 168.892 120.422C168.783 120.535 168.65 120.623 168.503 120.68C168.355 120.737 168.198 120.76 168.041 120.75H167.868C167.633 121.692 167.496 122.657 167.459 123.627C167.409 124.122 167.533 124.619 167.81 125.032C167.446 125.386 166.961 125.592 166.452 125.607C166.257 125.626 166.061 125.596 165.88 125.521C165.699 125.446 165.54 125.327 165.416 125.175C165.18 124.774 165.072 124.311 165.105 123.846C165.183 122.88 165.315 121.92 165.503 120.969C165.21 121.015 164.922 121.082 164.639 121.17Z" fill="#881012"/>
</svg>
