<?xml version="1.0" standalone="no"?>
<!DOCTYPE svg PUBLIC "-//W3C//DTD SVG 20010904//EN"
 "http://www.w3.org/TR/2001/REC-SVG-20010904/DTD/svg10.dtd">
<svg version="1.0" xmlns="http://www.w3.org/2000/svg"
 width="450.000000pt" height="450.000000pt" viewBox="0 0 450.000000 450.000000"
 preserveAspectRatio="xMidYMid meet">

<g transform="translate(0.000000,450.000000) scale(0.100000,-0.100000)"
fill="#000000" stroke="none">
<path d="M617 2526 c-50 -18 -62 -30 -86 -80 -30 -61 -29 -176 2 -236 25 -50
88 -90 142 -90 54 0 117 40 143 90 32 63 31 179 -1 241 -38 72 -122 104 -200
75z m121 -59 c41 -34 58 -178 27 -237 -43 -84 -148 -78 -185 9 -19 47 -10 173
16 208 32 43 103 53 142 20z"/>
<path d="M908 2533 l-28 -4 0 -200 0 -199 30 0 30 0 0 69 0 69 55 7 c67 8 110
40 124 93 17 60 -5 124 -50 148 -30 15 -118 25 -161 17z m122 -56 c32 -16 47
-67 31 -105 -14 -33 -47 -52 -91 -52 l-30 0 0 85 0 85 33 0 c17 0 43 -6 57
-13z"/>
<path d="M2955 2525 c-59 -21 -101 -71 -115 -139 -35 -170 67 -283 235 -260
l60 9 3 103 3 102 -66 0 -65 0 0 -40 c0 -36 3 -40 25 -40 22 0 25 -4 25 -35 0
-30 -3 -35 -24 -35 -73 0 -116 52 -116 140 0 98 50 148 138 136 39 -5 43 -3
52 20 13 34 15 32 -27 43 -50 14 -80 13 -128 -4z"/>
<path d="M3297 2526 c-104 -38 -152 -156 -115 -279 26 -86 121 -138 225 -122
76 11 73 7 73 116 l0 99 -70 0 -70 0 0 -40 c0 -38 2 -40 30 -40 27 0 30 -3 30
-30 0 -38 -19 -46 -71 -31 -50 15 -70 52 -70 133 -1 97 46 143 133 134 45 -5
48 -3 54 20 4 14 3 29 -2 34 -17 17 -108 21 -147 6z"/>
<path d="M1140 2505 c0 -24 3 -25 55 -25 l55 0 0 -175 0 -175 25 0 25 0 0 174
0 175 53 3 c45 3 52 6 55 26 3 22 3 22 -132 22 l-136 0 0 -25z"/>
<path d="M1450 2330 l0 -200 30 0 30 0 0 200 0 200 -30 0 -30 0 0 -200z"/>
<path d="M1560 2330 l0 -200 25 0 25 0 0 200 0 200 -25 0 -25 0 0 -200z"/>
<path d="M1685 2433 l-64 -97 18 -29 c10 -16 41 -62 70 -103 45 -65 55 -74 82
-74 35 0 38 -8 -47 116 l-62 92 63 96 64 96 -29 0 c-26 0 -37 -11 -95 -97z"/>
<path d="M1852 2498 c3 -32 5 -33 51 -36 l47 -3 0 -165 0 -164 40 0 40 0 0
165 0 165 49 0 c52 0 69 17 55 54 -5 14 -26 16 -146 16 l-139 0 3 -32z"/>
<path d="M2172 2371 c3 -143 5 -163 24 -188 60 -82 188 -82 248 0 19 25 21 45
24 188 l4 159 -40 0 -41 0 -3 -151 c-3 -145 -4 -152 -27 -170 -13 -10 -31 -19
-41 -19 -10 0 -28 9 -41 19 -23 18 -24 25 -27 170 l-3 151 -41 0 -40 0 4 -159z"/>
<path d="M2510 2330 l0 -200 35 0 35 0 0 122 c0 78 3 119 10 112 5 -5 40 -59
77 -119 62 -100 71 -110 101 -113 l32 -3 0 200 0 201 -36 0 -35 0 3 -120 c2
-66 0 -120 -4 -120 -3 0 -39 54 -79 120 -70 114 -75 120 -106 120 l-33 0 0
-200z"/>
<path d="M3625 2517 c-3 -7 -32 -97 -64 -200 l-58 -187 38 0 c36 0 39 2 50 40
l12 40 68 0 67 0 9 -37 c8 -36 11 -38 52 -41 37 -3 42 -1 37 15 -3 10 -26 86
-52 168 -25 83 -51 165 -56 183 -8 30 -12 32 -54 32 -27 0 -47 -5 -49 -13z
m72 -162 l20 -75 -47 0 -47 0 20 75 c11 41 23 75 27 75 4 0 16 -34 27 -75z"/>
<path d="M3870 2330 l0 -200 110 0 110 0 0 35 0 35 -70 0 -70 0 0 165 0 165
-40 0 -40 0 0 -200z"/>
<path d="M1470 1661 c0 -67 17 -93 22 -34 4 53 31 52 39 -2 7 -49 22 -25 17
27 -3 29 -6 33 -30 31 -22 -1 -28 3 -28 18 0 10 -4 19 -10 19 -6 0 -10 -26
-10 -59z"/>
<path d="M1700 1710 c0 -5 7 -10 15 -10 8 0 15 5 15 10 0 6 -7 10 -15 10 -8 0
-15 -4 -15 -10z"/>
<path d="M2530 1710 c0 -5 7 -10 15 -10 8 0 15 5 15 10 0 6 -7 10 -15 10 -8 0
-15 -4 -15 -10z"/>
<path d="M3432 1659 c2 -36 7 -63 13 -61 14 3 11 115 -4 120 -9 3 -11 -13 -9
-59z"/>
<path d="M3490 1710 c0 -5 7 -10 15 -10 8 0 15 5 15 10 0 6 -7 10 -15 10 -8 0
-15 -4 -15 -10z"/>
<path d="M852 1653 c2 -47 7 -58 21 -61 46 -9 88 22 70 51 -4 7 -6 24 -4 39 2
27 1 28 -44 28 l-46 0 3 -57z m68 27 c0 -5 -12 -10 -26 -10 -14 0 -23 4 -19
10 3 6 15 10 26 10 10 0 19 -4 19 -10z m-3 -46 c5 -15 -20 -24 -37 -14 -7 4
-9 13 -5 19 8 14 37 11 42 -5z"/>
<path d="M1207 1696 c-9 -23 5 -97 19 -103 22 -8 39 8 20 19 -20 11 -21 47 0
55 13 5 12 8 -5 24 -24 23 -27 23 -34 5z"/>
<path d="M1347 1703 c-12 -11 -8 -88 5 -101 17 -17 54 -15 72 4 20 20 20 34 1
34 -8 0 -15 -4 -15 -10 0 -5 -9 -10 -20 -10 -16 0 -20 7 -20 35 0 28 4 35 20
35 11 0 20 -4 20 -10 0 -5 7 -10 16 -10 11 0 14 5 10 16 -3 9 -6 18 -6 20 0 7
-76 5 -83 -3z"/>
<path d="M2100 1681 c0 -17 4 -31 9 -31 5 0 22 -5 38 -11 26 -9 26 -11 10 -21
-13 -7 -22 -7 -30 1 -15 15 -27 14 -27 -3 0 -19 34 -30 66 -22 17 5 24 13 24
32 0 24 -11 33 -46 38 -10 2 -20 9 -22 16 -4 10 4 11 33 6 28 -6 36 -4 33 6
-3 7 -23 14 -46 16 -41 3 -42 2 -42 -27z"/>
<path d="M2890 1686 c0 -14 -4 -28 -10 -31 -5 -3 -10 -17 -10 -30 0 -26 16
-33 68 -30 38 2 51 12 28 21 -16 6 -16 8 1 27 18 20 17 20 -14 14 -23 -5 -33
-2 -37 9 -9 25 -8 27 20 20 19 -5 25 -3 22 6 -3 7 -19 14 -36 16 -28 3 -32 0
-32 -22z m21 -59 c-1 -12 -15 -9 -19 4 -3 6 1 10 8 8 6 -3 11 -8 11 -12z"/>
<path d="M3066 1695 c-8 -22 -7 -68 2 -80 4 -6 20 -16 35 -23 41 -18 59 3 55
65 l-3 48 -41 3 c-31 2 -43 -1 -48 -13z m72 -44 c3 -31 2 -33 -12 -22 -11 9
-16 10 -16 2 0 -6 -4 -11 -10 -11 -5 0 -10 16 -10 36 0 31 3 35 23 32 17 -2
23 -11 25 -37z"/>
<path d="M3557 1696 c-9 -23 5 -97 19 -103 22 -8 39 8 20 19 -20 11 -21 47 0
55 13 5 12 8 -5 24 -24 23 -27 23 -34 5z"/>
<path d="M978 1665 c-22 -49 15 -88 66 -69 26 10 18 27 -8 20 -14 -3 -27 -2
-30 3 -4 5 7 12 24 16 33 7 42 38 14 49 -32 12 -55 6 -66 -19z m52 -5 c0 -5
-7 -10 -15 -10 -8 0 -15 5 -15 10 0 6 7 10 15 10 8 0 15 -4 15 -10z"/>
<path d="M1097 1684 c-18 -18 -6 -45 23 -50 16 -4 27 -10 24 -15 -3 -5 -16 -6
-30 -3 -14 4 -24 2 -24 -4 0 -15 36 -25 61 -17 28 9 22 49 -8 53 -13 2 -23 8
-23 13 0 5 12 6 26 3 20 -5 25 -3 22 7 -5 15 -59 25 -71 13z"/>
<path d="M1589 1667 c-15 -33 4 -77 34 -77 30 0 47 18 47 50 0 14 -5 31 -12
38 -20 20 -57 14 -69 -11z m49 -22 c-2 -14 -7 -26 -13 -26 -5 0 -11 12 -13 26
-2 18 1 25 13 25 12 0 15 -7 13 -25z"/>
<path d="M1773 1683 c-18 -7 -16 -68 2 -83 19 -15 65 -5 65 15 0 17 -16 20
-25 5 -11 -18 -34 8 -28 30 6 23 14 25 30 9 8 -8 13 -8 17 0 16 25 -23 40 -61
24z"/>
<path d="M1883 1684 c-18 -8 -16 -69 2 -84 17 -14 65 -6 65 11 0 7 -10 9 -24
5 -14 -3 -27 -2 -30 3 -4 5 8 12 24 16 25 5 30 11 28 28 -3 22 -37 33 -65 21z
m47 -24 c0 -5 -7 -10 -15 -10 -8 0 -15 5 -15 10 0 6 7 10 15 10 8 0 15 -4 15
-10z"/>
<path d="M2232 1678 c-17 -17 -15 -63 3 -78 16 -13 65 -6 65 10 0 6 -11 8 -25
4 -16 -4 -25 -2 -25 5 0 6 14 14 30 18 34 6 34 7 20 34 -12 21 -50 25 -68 7z
m48 -18 c0 -5 -7 -10 -15 -10 -8 0 -15 5 -15 10 0 6 7 10 15 10 8 0 15 -4 15
-10z"/>
<path d="M2340 1639 c0 -27 5 -49 10 -49 6 0 10 13 10 30 0 19 7 33 21 40 24
14 19 22 -16 26 -24 2 -25 0 -25 -47z"/>
<path d="M2424 1665 c21 -83 39 -94 62 -39 21 49 12 81 -9 34 -16 -36 -17 -36
-33 18 -7 24 -26 13 -20 -13z"/>
<path d="M2602 1678 c-17 -17 -15 -63 3 -78 19 -15 65 -5 65 15 0 17 -16 20
-25 5 -10 -16 -25 -1 -25 26 0 26 9 31 28 12 15 -15 26 -4 19 17 -7 18 -48 20
-65 3z"/>
<path d="M2712 1678 c-19 -19 -15 -66 7 -78 26 -13 34 -13 57 5 18 15 17 16
-13 10 -42 -8 -44 11 -3 20 45 10 33 55 -15 55 -12 0 -26 -5 -33 -12z m48 -18
c0 -5 -7 -10 -15 -10 -8 0 -15 5 -15 10 0 6 7 10 15 10 8 0 15 -4 15 -10z"/>
<path d="M3200 1646 c0 -48 7 -54 52 -48 26 4 28 8 28 48 0 24 -4 44 -10 44
-5 0 -10 -15 -10 -34 0 -20 -6 -36 -14 -39 -20 -8 -26 2 -26 40 0 18 -4 33
-10 33 -5 0 -10 -20 -10 -44z"/>
<path d="M3327 1684 c-15 -15 -6 -24 18 -18 15 4 25 2 25 -4 0 -6 -10 -12 -21
-14 -24 -3 -48 -33 -36 -44 4 -4 23 -8 42 -9 l36 -1 -3 46 c-3 40 -6 45 -28
48 -14 2 -29 0 -33 -4z m43 -64 c0 -5 -7 -10 -15 -10 -8 0 -15 5 -15 10 0 6 7
10 15 10 8 0 15 -4 15 -10z"/>
<path d="M3638 1685 c-3 -4 1 -23 9 -43 12 -28 13 -40 3 -55 -10 -16 -8 -18
11 -15 17 2 27 16 41 57 10 30 16 56 14 59 -9 8 -26 -10 -26 -28 0 -10 -4 -22
-10 -25 -5 -3 -10 0 -10 7 0 19 -24 51 -32 43z"/>
<path d="M1702 1638 c2 -24 8 -43 13 -43 6 0 11 19 13 43 3 33 0 42 -13 42
-13 0 -16 -9 -13 -42z"/>
<path d="M2540 1634 c0 -27 4 -43 10 -39 6 3 10 24 10 46 0 21 -4 39 -10 39
-5 0 -10 -21 -10 -46z"/>
<path d="M3492 1638 c2 -24 8 -43 13 -43 6 0 11 19 13 43 3 33 0 42 -13 42
-13 0 -16 -9 -13 -42z"/>
<path d="M1985 1595 c0 -30 19 -27 23 3 2 13 -2 22 -10 22 -7 0 -13 -11 -13
-25z"/>
<path d="M3740 1611 c0 -6 5 -13 10 -16 6 -3 10 1 10 9 0 9 -4 16 -10 16 -5 0
-10 -4 -10 -9z"/>
</g>
</svg>
