<svg width="375" height="792" viewBox="0 0 375 792" fill="none" xmlns="http://www.w3.org/2000/svg">
<g clip-path="url(#clip0_27_1030)">
<rect width="375" height="792" fill="white"/>
<rect x="-2" width="375" height="791" fill="#CDB9C8"/>
<path d="M398.438 -7.35742H-23.028V792H398.438V-7.35742Z" fill="url(#paint0_linear_27_1030)"/>
<path d="M-18.0799 732.819C-65.4634 732.819 -104 694.265 -104 646.898C-104 599.493 -65.4634 560.939 -18.0799 560.939C29.3036 560.939 67.8401 599.493 67.8401 646.898C67.8401 694.265 29.2661 732.819 -18.0799 732.819ZM-18.0799 563.526C-64.0014 563.526 -101.376 600.918 -101.376 646.86C-101.376 692.802 -64.0014 730.194 -18.0799 730.194C27.8416 730.194 65.216 692.802 65.216 646.86C65.216 600.918 27.8416 563.526 -18.0799 563.526Z" fill="white"/>
<path d="M402.786 226.179C365.711 226.179 335.572 196.026 335.572 158.935C335.572 121.843 365.711 91.6903 402.786 91.6903C439.86 91.6903 470 121.843 470 158.935C470 196.026 439.86 226.179 402.786 226.179ZM402.786 94.2781C367.173 94.2781 338.158 123.269 338.158 158.935C338.158 194.601 367.136 223.591 402.786 223.591C438.398 223.591 467.413 194.601 467.413 158.935C467.413 123.269 438.398 94.2781 402.786 94.2781Z" fill="white"/>
<path d="M131.418 35.5844C106.189 35.5844 85.6466 15.0323 85.6466 -10.2078C85.6466 -35.4479 106.152 -56 131.418 -56C156.647 -56 177.19 -35.4479 177.19 -10.2078C177.19 15.0323 156.647 35.5844 131.418 35.5844ZM131.418 -53.4122C107.614 -53.4122 88.2332 -34.0227 88.2332 -10.2078C88.2332 13.6072 107.614 32.9967 131.418 32.9967C155.222 32.9967 174.603 13.6072 174.603 -10.2078C174.566 -34.0227 155.222 -53.4122 131.418 -53.4122Z" fill="white"/>
<path d="M92.9566 55.6866C92.9566 59.0244 90.2575 61.7247 86.9212 61.7247C83.5848 61.7247 80.8857 59.0244 80.8857 55.6866C80.8857 52.3487 83.5848 49.6484 86.9212 49.6484C90.2575 49.6484 92.9566 52.3487 92.9566 55.6866Z" fill="white"/>
<path d="M16.933 700.265C16.933 703.603 14.2339 706.304 10.8976 706.304C7.56124 706.304 4.86218 703.603 4.86218 700.265C4.86218 696.928 7.56124 694.227 10.8976 694.227C14.2339 694.227 16.933 696.965 16.933 700.265Z" fill="white"/>
<path d="M373.096 148.509C373.096 151.846 370.397 154.547 367.061 154.547C363.725 154.547 361.026 151.846 361.026 148.509C361.026 145.171 363.725 142.47 367.061 142.47C370.397 142.47 373.096 145.171 373.096 148.509Z" fill="white"/>
</g>
<defs>
<linearGradient id="paint0_linear_27_1030" x1="-36.9165" y1="745.436" x2="455.677" y2="-28.2901" gradientUnits="userSpaceOnUse">
<stop stop-color="#789ECA"/>
<stop offset="1" stop-color="#F9C8C8"/>
</linearGradient>
<clipPath id="clip0_27_1030">
<rect width="375" height="792" fill="white"/>
</clipPath>
</defs>
</svg>
