<svg width="199" height="197" viewBox="0 0 199 197" fill="none" xmlns="http://www.w3.org/2000/svg">
<g clip-path="url(#clip0_251:1116)">
<path d="M174.36 168.78C169.22 174.08 164.62 177.19 161.1 179.55C126.75 202.49 87.49 195.87 75.35 193.62C55.76 189.97 39.23 187.4 25.03 174.57C-7.25 145.41 -5.68 84.57 18.99 46.89C21.91 42.42 46.54 5.92 85.89 0.770005C86.85 0.640005 87.57 0.570005 88.2 0.510005C94.29 -0.129995 132.01 -3.54 162.77 22.23C167.17 25.92 174.26 32.57 180.83 42.72C204.84 79.82 204.92 137.29 174.36 168.78Z" fill="#D0EDF5"/>
<path d="M25.8 37.27C29.7212 37.27 32.9 34.0912 32.9 30.17C32.9 26.2488 29.7212 23.07 25.8 23.07C21.8788 23.07 18.7 26.2488 18.7 30.17C18.7 34.0912 21.8788 37.27 25.8 37.27Z" fill="#DEF2F6"/>
<path d="M52.17 142.7H36.02V163.43H52.17V142.7Z" fill="#FAA31B"/>
<path d="M52.17 163.43V142.7H61.65L61.51 163.43H52.17Z" fill="#DD8026"/>
<path d="M44.47 142.7H42.06V147.42H44.47V142.7Z" fill="#FEC867"/>
<path d="M28.57 163.43V142.7H36.02L35.91 163.43H28.57Z" fill="#DD8026"/>
<path d="M36.91 126.53H24.95V142.7H36.91V126.53Z" fill="#DD8026"/>
<path d="M26.34 142.7V126.53H16.92L17.04 142.7H26.34Z" fill="#FAA31B"/>
<path d="M32.2 126.53H30.32V130.21H32.2V126.53Z" fill="#FEC867"/>
<path d="M56.82 126.53H44.86V142.7H56.82V126.53Z" fill="#FAA31B"/>
<path d="M44.86 142.7V126.53H36.83L36.96 142.7H44.86Z" fill="#FAA31B"/>
<path d="M56.83 126.53H49.65V142.7H56.83V126.53Z" fill="#DD8026"/>
<path d="M28.97 142.7H12.24V163.43H28.97V142.7Z" fill="#FAA31B"/>
<path d="M21.8 142.7H19.39V147.42H21.8V142.7Z" fill="#FEC867"/>
<path d="M44.1 126.53H42.22V130.21H44.1V126.53Z" fill="#FEC867"/>
<path d="M45.79 110.62H33.83V126.79H45.79V110.62Z" fill="#DD8026"/>
<path d="M35.23 126.79V110.62H25.8L25.93 126.79H35.23Z" fill="#FAA31B"/>
<path d="M41.09 110.62H39.21V114.3H41.09V110.62Z" fill="#FEC867"/>
<path d="M63.1241 183.923C63.1398 181.228 60.9676 179.03 58.2725 179.015C55.5773 178.999 53.3798 181.171 53.3641 183.866C53.3484 186.561 55.5205 188.759 58.2157 188.775C60.9108 188.79 63.1084 186.618 63.1241 183.923Z" fill="#4E4E4E"/>
<path d="M61.1706 183.925C61.1868 182.301 59.8839 180.972 58.2603 180.956C56.6367 180.939 55.3074 182.242 55.2912 183.866C55.275 185.49 56.5779 186.819 58.2015 186.835C59.8251 186.851 61.1544 185.548 61.1706 183.925Z" fill="#BDBDBD"/>
<path d="M51.1566 183.925C51.1717 181.23 48.9992 179.033 46.304 179.018C43.6089 179.002 41.4118 181.175 41.3966 183.87C41.3814 186.565 43.554 188.762 46.2491 188.778C48.9443 188.793 51.1414 186.62 51.1566 183.925Z" fill="#4E4E4E"/>
<path d="M49.2219 183.924C49.2373 182.3 47.9334 180.972 46.3097 180.956C44.686 180.941 43.3573 182.245 43.3419 183.869C43.3266 185.492 44.6304 186.821 46.2541 186.836C47.8779 186.852 49.2066 185.548 49.2219 183.924Z" fill="#BDBDBD"/>
<path d="M24.5553 183.924C24.5706 181.229 22.3982 179.032 19.703 179.017C17.0079 179.001 14.8106 181.174 14.7953 183.869C14.78 186.564 16.9525 188.761 19.6476 188.777C22.3428 188.792 24.54 186.619 24.5553 183.924Z" fill="#4E4E4E"/>
<path d="M22.6205 183.924C22.6359 182.3 21.332 180.971 19.7083 180.956C18.0846 180.941 16.7559 182.245 16.7406 183.868C16.7252 185.492 18.0291 186.821 19.6528 186.836C21.2765 186.851 22.6052 185.548 22.6205 183.924Z" fill="#BDBDBD"/>
<path d="M15.5708 183.92C15.5861 181.225 13.4137 179.028 10.7186 179.012C8.02341 178.997 5.82615 181.169 5.81084 183.864C5.79553 186.56 7.96795 188.757 10.6631 188.772C13.3583 188.788 15.5555 186.615 15.5708 183.92Z" fill="#4E4E4E"/>
<path d="M13.6364 183.92C13.652 182.296 12.3484 180.968 10.7246 180.952C9.10092 180.936 7.772 182.24 7.75639 183.864C7.74077 185.487 9.04439 186.816 10.6681 186.832C12.2918 186.848 13.6208 185.544 13.6364 183.92Z" fill="#BDBDBD"/>
<path d="M58.06 182.57L60.99 181.11V176.8H65.14V181.76L59.28 184.69C57.46 185.34 56.64 183.22 58.06 182.57Z" fill="#4E4E4E"/>
<path d="M46.1 182.57L49.03 181.11V176.8H53.18V181.76L47.32 184.69C45.49 185.34 44.68 183.22 46.1 182.57Z" fill="#4E4E4E"/>
<path d="M19.5 182.57L22.43 181.11V176.8H26.58V181.76L20.72 184.69C18.89 185.34 18.07 183.22 19.5 182.57Z" fill="#4E4E4E"/>
<path d="M10.51 182.57L13.44 181.11V176.8H17.59V181.76L11.73 184.69C9.9 185.34 9.09 183.22 10.51 182.57Z" fill="#4E4E4E"/>
<path d="M29.65 163.67C29.57 163.65 29.49 163.61 29.42 163.55C29.31 163.46 29.23 163.35 29.21 163.25L23.11 130.17C23.08 130.02 23.17 129.92 23.33 129.92L73.54 129.69C73.66 129.69 73.79 129.75 73.9 129.85C74.01 129.95 74.08 130.07 74.08 130.18L74.17 163.46C74.17 163.58 74.08 163.65 73.95 163.65L29.78 163.68C29.74 163.69 29.7 163.69 29.65 163.67ZM23.99 130.65L29.94 163.01L73.43 163.02L73.33 130.39L23.99 130.65Z" fill="#4E4E4E"/>
<path d="M25.7 141.69L25.48 141.27L73.65 140.73L73.84 141.14L25.7 141.69Z" fill="#4E4E4E"/>
<path d="M27.77 152.93L27.55 152.51L73.68 152.06L73.87 152.46L27.77 152.93Z" fill="#4E4E4E"/>
<path d="M33.59 163.45C33.52 163.43 33.46 163.37 33.45 163.32L27.36 130.24C27.35 130.18 27.4 130.15 27.47 130.17C27.54 130.19 27.61 130.25 27.62 130.31L33.71 163.38C33.72 163.44 33.67 163.47 33.59 163.45Z" fill="#4E4E4E"/>
<path d="M37.25 163.45C37.18 163.43 37.12 163.37 37.11 163.32L31.57 130.22C31.56 130.16 31.61 130.13 31.68 130.15C31.75 130.17 31.82 130.24 31.83 130.29L37.37 163.38C37.38 163.44 37.33 163.47 37.25 163.45C37.26 163.45 37.26 163.45 37.25 163.45Z" fill="#4E4E4E"/>
<path d="M40.92 163.45C40.85 163.43 40.79 163.37 40.78 163.32L35.79 130.2C35.78 130.14 35.83 130.11 35.9 130.13C35.97 130.15 36.04 130.22 36.05 130.27L41.03 163.38C41.05 163.44 41 163.47 40.92 163.45C40.93 163.45 40.93 163.45 40.92 163.45Z" fill="#4E4E4E"/>
<path d="M44.6 163.45C44.53 163.43 44.47 163.37 44.46 163.32L40.03 130.18C40.02 130.12 40.07 130.09 40.14 130.11C40.21 130.13 40.27 130.2 40.28 130.26L44.7 163.39C44.72 163.44 44.67 163.47 44.6 163.45Z" fill="#4E4E4E"/>
<path d="M48.27 163.45C48.2 163.43 48.14 163.37 48.14 163.31L44.27 130.15C44.26 130.09 44.31 130.06 44.39 130.09C44.46 130.11 44.52 130.18 44.53 130.24L48.4 163.39C48.4 163.44 48.35 163.47 48.27 163.45C48.28 163.45 48.28 163.45 48.27 163.45Z" fill="#4E4E4E"/>
<path d="M51.96 163.44C51.89 163.42 51.83 163.36 51.83 163.3L48.52 130.12C48.51 130.06 48.57 130.03 48.64 130.06C48.71 130.08 48.77 130.15 48.78 130.21L52.09 163.38C52.08 163.44 52.02 163.46 51.96 163.44Z" fill="#4E4E4E"/>
<path d="M55.64 163.44C55.57 163.42 55.51 163.36 55.51 163.3L52.76 130.1C52.76 130.04 52.81 130.02 52.88 130.04C52.95 130.06 53.01 130.13 53.01 130.19L55.76 163.38C55.76 163.44 55.71 163.46 55.64 163.44Z" fill="#4E4E4E"/>
<path d="M59.33 163.44C59.26 163.42 59.2 163.36 59.2 163.3L57.01 130.08C57.01 130.02 57.06 130 57.13 130.02C57.2 130.04 57.26 130.11 57.26 130.17L59.45 163.38C59.45 163.43 59.4 163.46 59.33 163.44Z" fill="#4E4E4E"/>
<path d="M63.02 163.44C62.95 163.42 62.89 163.36 62.89 163.3L61.26 130.06C61.26 130 61.31 129.98 61.38 130C61.45 130.02 61.5 130.09 61.51 130.15L63.14 163.38C63.14 163.43 63.09 163.46 63.02 163.44Z" fill="#4E4E4E"/>
<path d="M66.72 163.44C66.65 163.42 66.59 163.35 66.59 163.3L65.52 130.04C65.52 129.99 65.57 129.96 65.64 129.99C65.71 130.02 65.76 130.08 65.76 130.14L66.82 163.39C66.83 163.43 66.78 163.46 66.72 163.44Z" fill="#4E4E4E"/>
<path d="M70.42 163.44C70.35 163.41 70.29 163.35 70.29 163.3L69.79 130.02C69.79 129.97 69.84 129.94 69.91 129.97C69.98 130 70.03 130.06 70.03 130.12L70.53 163.39C70.53 163.43 70.48 163.46 70.42 163.44Z" fill="#4E4E4E"/>
<path d="M6.26 163.68C6.22 163.66 6.17 163.61 6.13 163.55C6.06 163.45 6.01 163.33 5.99 163.21L0.0099978 130.34C-0.0100022 130.21 0.0199978 130.12 0.0999978 130.12L23.57 129.92C23.62 129.92 23.7 129.97 23.76 130.06C23.83 130.15 23.88 130.26 23.89 130.35L29.74 163.47C29.76 163.6 29.73 163.69 29.66 163.69L6.33 163.7C6.31 163.7 6.29 163.7 6.26 163.68ZM0.449998 130.76L6.34 162.93L29.25 162.96L23.56 130.52L0.449998 130.76Z" fill="#4E4E4E"/>
<path d="M2.26 142.14L2.12 141.74L25.47 141.24L25.63 141.62L2.26 142.14Z" fill="#4E4E4E"/>
<path d="M4.29 153.37L4.14 152.94L27.43 152.49L27.59 152.9L4.29 153.37Z" fill="#4E4E4E"/>
<path d="M8.31 163.44C8.27 163.42 8.23 163.35 8.22 163.29L2 130.4C1.99 130.35 2.01 130.32 2.05 130.34C2.09 130.36 2.12 130.41 2.13 130.47L8.37 163.36C8.38 163.42 8.36 163.46 8.31 163.44C8.32 163.44 8.31 163.44 8.31 163.44Z" fill="#4E4E4E"/>
<path d="M10.25 163.44C10.21 163.42 10.17 163.35 10.16 163.29L3.97 130.38C3.96 130.33 3.98 130.3 4.02 130.32C4.06 130.34 4.09 130.4 4.1 130.45L10.3 163.36C10.31 163.42 10.29 163.46 10.25 163.44Z" fill="#4E4E4E"/>
<path d="M12.18 163.44C12.14 163.42 12.1 163.35 12.09 163.29L5.95 130.36C5.94 130.31 5.96 130.28 6 130.3C6.04 130.32 6.07 130.38 6.08 130.43L12.24 163.36C12.25 163.42 12.22 163.46 12.18 163.44Z" fill="#4E4E4E"/>
<path d="M14.12 163.44C14.08 163.42 14.04 163.35 14.03 163.29L7.93 130.34C7.92 130.29 7.94 130.26 7.98 130.28C8.01 130.3 8.05 130.36 8.06 130.41L14.18 163.36C14.18 163.42 14.16 163.46 14.12 163.44Z" fill="#4E4E4E"/>
<path d="M16.06 163.44C16.02 163.42 15.98 163.35 15.97 163.29L9.91 130.32C9.9 130.27 9.92 130.24 9.96 130.26C10 130.28 10.03 130.34 10.04 130.39L16.11 163.36C16.12 163.43 16.1 163.46 16.06 163.44Z" fill="#4E4E4E"/>
<path d="M18 163.44C17.96 163.42 17.92 163.35 17.91 163.29L11.89 130.3C11.88 130.25 11.9 130.22 11.94 130.25C11.98 130.27 12.01 130.33 12.02 130.38L18.05 163.37C18.06 163.43 18.04 163.46 18 163.44Z" fill="#4E4E4E"/>
<path d="M19.95 163.44C19.91 163.42 19.87 163.35 19.86 163.29L13.88 130.28C13.87 130.23 13.89 130.21 13.93 130.23C13.97 130.25 14 130.31 14.01 130.36L20 163.37C20.01 163.43 19.98 163.46 19.95 163.44Z" fill="#4E4E4E"/>
<path d="M21.89 163.44C21.85 163.42 21.81 163.35 21.8 163.29L15.87 130.27C15.86 130.22 15.88 130.2 15.92 130.22C15.96 130.24 15.99 130.3 16 130.35L21.95 163.38C21.95 163.43 21.93 163.46 21.89 163.44Z" fill="#4E4E4E"/>
<path d="M23.84 163.44C23.8 163.41 23.76 163.35 23.75 163.28L17.86 130.24C17.85 130.19 17.87 130.17 17.91 130.19C17.95 130.21 17.98 130.27 17.99 130.32L23.89 163.37C23.9 163.43 23.88 163.46 23.84 163.44Z" fill="#4E4E4E"/>
<path d="M25.79 163.44C25.75 163.41 25.71 163.34 25.7 163.28L19.85 130.22C19.84 130.17 19.86 130.15 19.9 130.17C19.94 130.19 19.97 130.25 19.98 130.3L25.84 163.37C25.85 163.43 25.83 163.46 25.79 163.44Z" fill="#4E4E4E"/>
<path d="M27.75 163.44C27.74 163.44 27.74 163.44 27.75 163.44C27.71 163.41 27.67 163.34 27.66 163.28L21.85 130.2C21.84 130.15 21.86 130.13 21.9 130.15C21.93 130.17 21.97 130.23 21.98 130.28L27.8 163.37C27.8 163.43 27.78 163.46 27.75 163.44Z" fill="#4E4E4E"/>
<path d="M51.04 163.67C51 163.64 50.96 163.6 50.93 163.54C50.88 163.44 50.85 163.32 50.84 163.2L50.33 130.05C50.33 129.92 50.38 129.83 50.45 129.83L73.75 129.64C73.8 129.64 73.87 129.69 73.92 129.78C73.97 129.87 74 129.98 74 130.07L74.34 163.48C74.34 163.61 74.3 163.7 74.23 163.7H51.11C51.08 163.69 51.06 163.69 51.04 163.67ZM50.7 130.47L51.24 162.92L73.95 162.96L73.65 130.24L50.7 130.47Z" fill="#4E4E4E"/>
<path d="M50.62 141.95L50.54 141.54L73.78 141.04L73.88 141.43L50.62 141.95Z" fill="#4E4E4E"/>
<path d="M50.78 153.27L50.7 152.83L73.86 152.39L73.96 152.8L50.78 153.27Z" fill="#4E4E4E"/>
<path d="M53.11 163.42C53.08 163.4 53.05 163.33 53.05 163.27L52.29 130.1C52.29 130.05 52.31 130.02 52.35 130.03C52.38 130.05 52.41 130.11 52.41 130.16L53.18 163.34C53.18 163.41 53.15 163.45 53.11 163.42C53.11 163.43 53.11 163.42 53.11 163.42Z" fill="#4E4E4E"/>
<path d="M55.03 163.43C55 163.41 54.97 163.34 54.97 163.28L54.26 130.09C54.26 130.04 54.28 130.01 54.32 130.03C54.35 130.05 54.38 130.11 54.38 130.16L55.1 163.36C55.09 163.41 55.07 163.45 55.03 163.43Z" fill="#4E4E4E"/>
<path d="M56.94 163.43C56.91 163.41 56.88 163.34 56.88 163.28L56.21 130.07C56.21 130.02 56.23 129.99 56.27 130.01C56.3 130.03 56.33 130.09 56.33 130.14L57.01 163.36C57.01 163.41 56.98 163.45 56.94 163.43C56.95 163.43 56.95 163.43 56.94 163.43Z" fill="#4E4E4E"/>
<path d="M58.87 163.43C58.84 163.41 58.81 163.34 58.81 163.28L58.19 130.05C58.19 130 58.21 129.97 58.25 129.99C58.28 130.01 58.31 130.07 58.31 130.12L58.95 163.36C58.93 163.42 58.9 163.45 58.87 163.43Z" fill="#4E4E4E"/>
<path d="M60.79 163.43C60.76 163.41 60.73 163.34 60.73 163.28L60.15 130.03C60.15 129.98 60.17 129.95 60.21 129.97C60.24 129.99 60.27 130.05 60.27 130.1L60.86 163.36C60.85 163.42 60.83 163.45 60.79 163.43Z" fill="#4E4E4E"/>
<path d="M62.71 163.43C62.67 163.41 62.65 163.34 62.64 163.28L62.11 130.01C62.11 129.96 62.13 129.93 62.17 129.95C62.2 129.97 62.23 130.03 62.23 130.08L62.78 163.36C62.78 163.42 62.75 163.45 62.71 163.43C62.72 163.43 62.71 163.43 62.71 163.43Z" fill="#4E4E4E"/>
<path d="M64.64 163.43C64.6 163.41 64.58 163.34 64.57 163.28L64.08 129.99C64.08 129.94 64.1 129.92 64.14 129.94C64.17 129.96 64.2 130.02 64.2 130.07L64.7 163.37C64.7 163.42 64.68 163.45 64.64 163.43Z" fill="#4E4E4E"/>
<path d="M66.57 163.43C66.53 163.41 66.5 163.34 66.5 163.27L66.06 129.96C66.06 129.91 66.08 129.89 66.12 129.91C66.15 129.93 66.18 129.99 66.18 130.04L66.64 163.36C66.63 163.43 66.61 163.46 66.57 163.43Z" fill="#4E4E4E"/>
<path d="M68.5 163.44C68.5 163.44 68.5 163.43 68.5 163.44C68.46 163.41 68.43 163.34 68.43 163.28L68.03 129.95C68.03 129.9 68.06 129.88 68.09 129.9C68.12 129.92 68.15 129.98 68.15 130.03L68.56 163.37C68.56 163.43 68.54 163.46 68.5 163.44Z" fill="#4E4E4E"/>
<path d="M70.44 163.44C70.4 163.41 70.37 163.34 70.37 163.28L70.02 129.93C70.02 129.88 70.04 129.86 70.08 129.88C70.11 129.9 70.14 129.96 70.14 130.01L70.5 163.37C70.5 163.43 70.47 163.46 70.44 163.44Z" fill="#4E4E4E"/>
<path d="M72.38 163.44C72.38 163.44 72.37 163.44 72.38 163.44C72.34 163.41 72.31 163.34 72.31 163.28L72 129.91C72 129.86 72.02 129.84 72.06 129.86C72.09 129.88 72.12 129.94 72.12 129.99L72.44 163.37C72.43 163.43 72.41 163.46 72.38 163.44Z" fill="#4E4E4E"/>
<path d="M74.14 163.7C74.53 163.7 74.84 163.39 74.84 163V121.6C74.84 119.79 76.31 118.32 78.12 118.32H88.01C88.4 118.32 88.71 118.01 88.71 117.62C88.71 117.23 88.4 116.92 88.01 116.92H78.12C75.54 116.92 73.44 119.02 73.44 121.6V163C73.44 163.38 73.75 163.7 74.14 163.7Z" fill="#4E4E4E"/>
<path d="M51.24 163.7C51.63 163.7 51.94 163.39 51.94 163V121.6C51.94 119.79 53.41 118.32 55.22 118.32H65.11C65.5 118.32 65.81 118.01 65.81 117.62C65.81 117.23 65.5 116.92 65.11 116.92H55.22C52.64 116.92 50.54 119.02 50.54 121.6V163C50.54 163.38 50.85 163.7 51.24 163.7Z" fill="#4E4E4E"/>
<path d="M28.1 176.86H68.2C69.96 176.86 71.62 176.17 72.86 174.92C74.1 173.67 74.79 172.01 74.78 170.25C74.77 166.63 71.81 163.69 68.19 163.69H25.52C25.13 163.69 24.82 164 24.82 164.39C24.82 164.78 25.13 165.09 25.52 165.09H68.2C71.05 165.09 73.37 167.41 73.38 170.26C73.38 171.65 72.85 172.95 71.87 173.94C70.89 174.92 69.59 175.46 68.2 175.46H28.1C27.71 175.46 27.4 175.77 27.4 176.16C27.4 176.55 27.71 176.86 28.1 176.86Z" fill="#4E4E4E"/>
<path d="M12.01 176.86H52.1C53.86 176.86 55.52 176.17 56.76 174.92C58 173.67 58.69 172.01 58.68 170.25C58.67 166.63 55.71 163.69 52.09 163.69H9.43C9.04 163.69 8.73 164 8.73 164.39C8.73 164.78 9.04 165.09 9.43 165.09H52.1C54.95 165.09 57.27 167.41 57.28 170.26C57.28 171.65 56.75 172.95 55.77 173.94C54.79 174.92 53.49 175.46 52.1 175.46H12.01C11.62 175.46 11.31 175.77 11.31 176.16C11.31 176.55 11.62 176.86 12.01 176.86Z" fill="#4E4E4E"/>
<path d="M64.39 118.86H86.1C86.79 118.86 87.35 118.3 87.35 117.61C87.35 116.92 86.79 116.36 86.1 116.36H64.39C63.7 116.36 63.14 116.92 63.14 117.61C63.13 118.3 63.69 118.86 64.39 118.86Z" fill="#4E4E4E"/>
<path d="M63.15 17.34C63.07 6.44 83.76 4.83 83.52 10.57L120.66 10.7C124.96 10.76 128.43 14.65 128.41 19.39L127.92 177.56C127.91 182.19 124.45 185.95 120.2 185.95L80.85 186.15C80.47 186.92 79.76 187.62 78.64 188.2C67.63 188.11 62.63 183.78 62.58 178.19C62.19 177.16 62.71 19.39 63.15 17.34Z" fill="#4E4E4E"/>
<path d="M79.31 188.23L127.72 188.18C132.12 188.19 135.7 184.33 135.71 179.57L136.3 16.89C136.32 12.02 132.72 8.02001 128.27 7.97001L79.73 7.34001C75.24 7.29001 71.59 11.22 71.59 16.11L71.3 179.55C71.29 184.33 74.88 188.22 79.31 188.23Z" fill="#4E4E4E"/>
<path d="M78.33 187.07C78.62 187.11 78.92 187.13 79.22 187.13L127.62 187C131.4 187 134.51 183.62 134.52 179.46L135.09 16.96C135.11 12.71 131.99 9.21001 128.16 9.16001L79.63 8.45001C79.52 8.45001 79.41 8.45001 79.29 8.45001C77.5 8.52001 75.82 9.32001 74.58 10.71C73.31 12.13 72.61 14.01 72.6 16.02L72.3 179.62C72.3 183.4 74.88 186.6 78.33 187.07Z" fill="#0F0F0F"/>
<path d="M75.11 16.9L74.78 179.9H132.18L132.73 17.37L75.11 16.9Z" fill="white"/>
<path d="M115.4 42.7L108.92 42.65L88.1 17L94.61 17.06L115.4 42.7Z" fill="#EE3624"/>
<path d="M108.92 42.65L102.45 42.59L81.59 16.95L88.1 17L108.92 42.65Z" fill="#F1E2E0"/>
<path d="M102.45 42.59L95.97 42.54L75.08 16.9L81.59 16.95L102.45 42.59Z" fill="#EE3624"/>
<path d="M121.88 42.75L115.4 42.7L94.61 17.06L101.11 17.11L121.88 42.75Z" fill="#F1E2E0"/>
<path d="M134.83 42.86L128.36 42.8L107.62 17.16L114.12 17.22L134.83 42.86Z" fill="#F1E2E0"/>
<path d="M153.63 43.01L147.78 42.96L127.13 17.33L133 17.37L153.63 43.01Z" fill="#EE3624"/>
<path d="M147.78 42.96L141.31 42.91L120.63 17.27L127.13 17.33L147.78 42.96Z" fill="#F1E2E0"/>
<path d="M128.36 42.8L121.88 42.75L101.11 17.11L107.62 17.16L128.36 42.8Z" fill="#EE3624"/>
<path d="M141.31 42.91L134.83 42.86L114.12 17.22L120.63 17.27L141.31 42.91Z" fill="#EE3624"/>
<path d="M102.45 42.59V46.49C102.45 50.63 95.98 50.57 95.97 46.44L95.96 42.54L102.45 42.59Z" fill="#D53027"/>
<path d="M108.92 42.65V46.55C108.92 50.69 102.45 50.63 102.45 46.5V42.6L108.92 42.65Z" fill="#F0C5BD"/>
<path d="M115.4 42.7L115.39 46.6C115.38 50.74 108.91 50.68 108.91 46.55V42.65L115.4 42.7Z" fill="#D53027"/>
<path d="M121.88 42.75L121.87 46.65C121.86 50.79 115.39 50.73 115.4 46.6L115.41 42.7L121.88 42.75Z" fill="#F0C5BD"/>
<path d="M128.36 42.8L128.34 46.7C128.32 50.84 121.85 50.78 121.87 46.65L121.88 42.75L128.36 42.8Z" fill="#D53027"/>
<path d="M134.83 42.86L134.81 46.76C134.79 50.9 128.32 50.84 128.34 46.71L128.36 42.81L134.83 42.86Z" fill="#F0C5BD"/>
<path d="M141.31 42.91L141.29 46.81C141.26 50.95 134.79 50.89 134.82 46.76L134.84 42.86L141.31 42.91Z" fill="#D53027"/>
<path d="M147.78 42.96L147.75 46.86C147.72 51 141.25 50.94 141.28 46.81L141.3 42.91L147.78 42.96Z" fill="#F0C5BD"/>
<path d="M153.63 43.01L153.6 46.91C153.57 51.05 147.73 51 147.76 46.86L147.79 42.96L153.63 43.01Z" fill="#D53027"/>
<path d="M95.97 42.54L96.47 42.61L75.06 42.42L75.08 16.9L95.97 42.54Z" fill="#F1E2E0"/>
<path d="M67.1 71.89C68.01 71.91 68.76 71.19 68.77 70.29L69.12 28.99C69.13 28.07 68.38 27.31 67.46 27.29C66.54 27.27 65.78 28 65.78 28.92L65.45 70.22C65.45 71.12 66.19 71.87 67.1 71.89Z" fill="#0F0F0F"/>
<path d="M126.35 59.38H117.4V108.8H126.35V59.38Z" fill="#66CAD9"/>
<path d="M121.88 104.39C121.36 104.39 120.94 103.97 120.94 103.45V64.72C120.94 64.2 121.36 63.78 121.88 63.78C122.4 63.78 122.82 64.2 122.82 64.72V103.45C122.82 103.97 122.4 104.39 121.88 104.39Z" fill="#0F0F0F"/>
<path d="M165.92 111.79C165.92 111.79 169.14 111.59 170.8 114.46C172.46 117.32 170.38 119.99 170.38 119.99C170.38 119.99 176.34 120.12 177.04 125.71C177.74 131.3 172.63 132.13 172.63 132.13C172.63 132.13 174.7 136.4 169.77 139.74C164.83 143.08 160.02 136.94 160.02 136.94C160.02 136.94 155.91 138.54 152.61 134.45C149.31 130.37 152.94 126.25 152.94 126.25C152.94 126.25 150.52 124.49 151.05 120.21C151.58 115.93 155.04 115.83 155.04 115.83C155.04 115.83 153.41 113.28 155.22 111.42C157.03 109.55 159.91 111.19 159.91 111.19C159.91 111.19 160.77 107.95 163.06 108.39C165.35 108.81 165.92 111.79 165.92 111.79Z" fill="#0F0F0F"/>
<path d="M155 120.08L148.32 113.29L148.33 101.54L146.12 101.25C146.12 101.25 144.31 111.94 144.32 114.21C144.33 116.23 151.09 124.99 151.09 124.99L155 120.08Z" fill="#F8A790"/>
<path d="M162.79 120.62C160.68 118.84 154.58 119.67 154.58 119.67C154.58 119.67 150.6 122.94 150.27 125.35C150.04 127.08 151.04 136.73 151.04 136.73H160.81L164.51 126.59C164.52 126.59 164.9 122.4 162.79 120.62Z" fill="#059E74"/>
<path d="M163.64 148.09C164.44 152.8 165.37 160.46 165.74 165.8C168.29 176.99 167.69 179.16 168.67 185.95C167.6 186.78 166.02 186.22 166.02 186.22C164.22 181.61 161.42 173.91 160.7 167.34C159.02 161.88 157.24 156.11 155.41 150.14L155.28 149.8C153.72 144.6 162.41 141.49 163.64 148.09Z" fill="#F8A790"/>
<path d="M151.06 136.73C151.06 136.73 149.84 140 149.08 145.07C148.32 150.14 145.82 185.6 145.82 185.6L148.6 185.62C150.08 179.55 153.03 174.71 152.67 166.89L159.71 145.38L156.26 136.73H151.06Z" fill="#F8A790"/>
<path d="M162.02 120.69L168.87 114.3L166.13 101.98L168.49 101.25C168.49 101.25 174.27 112.96 174.26 115.24C174.25 117.26 164.52 126.66 164.52 126.66C162.99 127.37 160.7 123.99 162.02 120.69Z" fill="#F8A790"/>
<path d="M155 110.58C153.38 113.54 153.18 116.42 155.69 117.82C158.21 119.22 161.56 117.95 163.18 114.99C164.8 112.03 164.07 108.5 161.55 107.1C159.03 105.7 156.61 107.62 155 110.58Z" fill="#F8A790"/>
<path d="M156.56 116.65H160.23L160.38 120.61C160.38 121.43 158.48 122.58 156.95 122.49C155.75 122.42 154.96 121.58 155.34 120.72L156.56 116.65Z" fill="#F8A790"/>
<path d="M146.94 161.62C148.11 146.23 151.06 136.73 151.06 136.73H160.83C162.56 138.09 164.13 140.45 165.13 142.97C165.81 144.97 168.55 153.7 169.61 161.62C161.88 164.42 147.94 163.39 146.94 161.62Z" fill="#059E74"/>
<path d="M161.51 135.26L161.03 137H150.93L150.85 135.26H161.51Z" fill="#0F0F0F"/>
<path d="M140.82 188.4C140.82 188.37 142.47 188.36 144.22 188.37C146.24 188.38 148.77 188.4 148.77 188.4C148.82 187.62 148.85 186.81 148.59 185.61L145.42 185.59C145.42 185.59 144.54 185.74 143 186.21C142.9 186.24 142.79 186.26 142.68 186.29C140.21 186.87 140.82 188.48 140.82 188.4Z" fill="#994B22"/>
<path d="M140.82 188.4C140.82 188.37 142.47 188.36 144.22 188.37C144.27 188.21 144.3 188.04 144.3 187.86C144.3 187.1 143.75 186.45 142.99 186.21C142.89 186.24 142.78 186.26 142.67 186.29C140.21 186.87 140.82 188.48 140.82 188.4Z" fill="#994B22"/>
<path d="M148.88 187.91H140.66V188.41H148.88V187.91Z" fill="#994B22"/>
<path d="M165.52 188.43C165.57 188.43 166.37 188.42 167.37 188.41C169 188.39 171.13 188.38 171.33 188.43C171.9 187.06 170.72 186.36 169.64 185.97C169.18 185.81 168.73 185.7 168.45 185.62L165.69 185.64C165.44 186.84 165.47 187.64 165.52 188.43Z" fill="#994B22"/>
<path d="M171.5 187.93H165.41V188.43H171.5V187.93Z" fill="#994B22"/>
<path d="M167.37 188.41C169 188.39 171.13 188.38 171.33 188.43C171.9 187.06 170.72 186.36 169.64 185.97C169.01 185.9 168.28 186.01 167.7 186.61C167.1 187.24 167.16 187.9 167.37 188.41Z" fill="#994B22"/>
<path d="M158.81 108.36C158.88 108.26 157.99 112.07 163.29 114.45C166.56 112.22 165.66 105.18 159.76 106.6C159.05 105.33 155.66 104.66 154.61 107.75C151.86 108.11 151.92 110.74 153.73 110.59C153.74 110.6 157 110.95 158.81 108.36Z" fill="#0F0F0F"/>
<path d="M162.02 114.46C162.02 115.02 162.47 115.47 163.03 115.47C163.59 115.47 164.04 115.02 164.04 114.46C164.04 113.9 163.59 113.45 163.03 113.45C162.47 113.45 162.02 113.9 162.02 114.46Z" fill="#F8A790"/>
<path d="M169.19 67.22H120.93V100.95H169.19C170.87 100.95 172.24 99.58 172.24 97.9V70.27C172.24 68.59 170.88 67.22 169.19 67.22Z" fill="#2E67B2"/>
<path d="M163.04 75.74H159.04V74.14C159.04 73.61 159.47 73.17 160.01 73.17H165.61V77.04C165.61 77.27 165.73 77.46 165.96 77.46C166.19 77.46 166.28 77.27 166.28 77.04V73.17H167.25C167.78 73.17 168.22 73.6 168.22 74.14V78.83H162.97C162.81 78.83 162.66 78.95 162.64 79.11C162.62 79.3 162.77 79.45 162.95 79.45H168.22V81.38C168.22 81.91 167.79 82.35 167.25 82.35H160.01C159.48 82.35 159.04 81.92 159.04 81.38V76.38H163.06C163.25 76.38 163.4 76.22 163.38 76.03C163.36 75.86 163.21 75.74 163.04 75.74Z" fill="#FFCB05"/>
<path d="M121.879 97.1571H132.969V91.5571H121.879V97.1571Z" fill="#ECEAE9"/>
<path d="M168.21 85.76H157.86V88.37H168.21V85.76Z" fill="#ECEAE9"/>
<path d="M156.41 85.76H145.86V88.37H156.41V85.76Z" fill="#ECEAE9"/>
<path d="M132.7 85.76H121.93V88.37H132.7V85.76Z" fill="#ECEAE9"/>
<path d="M144.21 85.76H134.24V88.37H144.21V85.76Z" fill="#ECEAE9"/>
<path d="M136.228 94.932H168.158V91.562H136.228V94.932Z" fill="#FFCB05"/>
<path d="M121.871 74.3284H135.611V70.3984H121.871V74.3284Z" fill="#ECEAE9"/>
<path d="M148.16 101.77C148.16 101.77 149.03 101.56 149.26 100.08C149.5 98.6 149.53 98.94 149.53 98.94C149.53 98.94 148.71 98.52 148.28 100.23C147 100.14 146.19 100.95 146.19 100.95C146.19 100.95 145.87 101.1 146.04 101.58C146.23 102.06 148 102 148.16 101.77Z" fill="#F8A790"/>
<path d="M166.13 101.97C166.13 101.97 164.85 101.54 164.35 98.89C165.17 98.31 165.49 99.85 165.49 99.85C165.49 99.85 168.62 99.59 168.49 101.25C168.36 102.91 166.13 101.97 166.13 101.97Z" fill="#F8A790"/>
<path d="M121.54 67.22H120.93V100.95H121.54V67.22Z" fill="#0F0F0F"/>
<path d="M110.12 59.38H82.84V74.49H110.12V59.38Z" fill="#66CAD9"/>
<path d="M110.12 76.52H82.84V91.63H110.12V76.52Z" fill="#66CAD9"/>
<path d="M110.12 93.64H82.84V108.75H110.12V93.64Z" fill="#66CAD9"/>
<path d="M125.09 120.86H82.51V163.44H125.09V120.86Z" fill="#66CAD9"/>
<path d="M110.29 147.13H95.18C94.88 147.13 94.61 146.94 94.52 146.65L91.63 137.63C91.56 137.42 91.6 137.19 91.73 137.01C91.86 136.83 92.07 136.73 92.29 136.73H113.19C113.41 136.73 113.62 136.84 113.75 137.01C113.88 137.19 113.92 137.42 113.85 137.63L110.96 146.65C110.85 146.93 110.59 147.13 110.29 147.13ZM95.68 145.74H109.78L112.23 138.11H93.23L95.68 145.74Z" fill="#095C76"/>
<path d="M109.05 150.95H96.16C95.78 150.95 95.47 150.64 95.47 150.26C95.47 149.88 95.78 149.57 96.16 149.57H108.54C109.38 149.55 109.76 148.96 109.82 148.37C109.87 147.84 109.67 147.29 109.31 147.14L113.66 133.51C113.75 133.22 114.02 133.03 114.32 133.03H118.82C119.2 133.03 119.51 133.34 119.51 133.72C119.51 134.1 119.2 134.41 118.82 134.41H114.83L110.84 147.06C111.91 148.79 110.46 150.95 109.05 150.95Z" fill="#095C76"/>
<path d="M98.8 154.85C99.6781 154.85 100.39 154.138 100.39 153.26C100.39 152.382 99.6781 151.67 98.8 151.67C97.9219 151.67 97.21 152.382 97.21 153.26C97.21 154.138 97.9219 154.85 98.8 154.85Z" fill="#095C76"/>
<path d="M106.8 154.85C107.678 154.85 108.39 154.138 108.39 153.26C108.39 152.382 107.678 151.67 106.8 151.67C105.922 151.67 105.21 152.382 105.21 153.26C105.21 154.138 105.922 154.85 106.8 154.85Z" fill="#095C76"/>
<path d="M103.11 147.13C102.73 147.13 102.42 146.82 102.42 146.44V137.42C102.42 137.04 102.73 136.73 103.11 136.73C103.49 136.73 103.8 137.04 103.8 137.42V146.44C103.8 146.82 103.49 147.13 103.11 147.13Z" fill="#095C76"/>
<path d="M99.25 147.13C98.93 147.13 98.65 146.91 98.58 146.59L96.53 137.57C96.45 137.2 96.68 136.83 97.05 136.74C97.42 136.66 97.79 136.89 97.88 137.26L99.93 146.28C100.01 146.65 99.78 147.02 99.41 147.11C99.35 147.12 99.3 147.13 99.25 147.13Z" fill="#095C76"/>
<path d="M106.81 147.13C106.78 147.13 106.74 147.13 106.71 147.12C106.33 147.07 106.07 146.71 106.12 146.34L107.43 137.32C107.48 136.94 107.84 136.68 108.21 136.73C108.59 136.78 108.85 137.14 108.8 137.51L107.49 146.53C107.44 146.88 107.14 147.13 106.81 147.13Z" fill="#095C76"/>
<path d="M111.74 142.68H93.75C93.37 142.68 93.06 142.37 93.06 141.99C93.06 141.61 93.37 141.3 93.75 141.3H111.74C112.12 141.3 112.43 141.61 112.43 141.99C112.43 142.37 112.12 142.68 111.74 142.68Z" fill="#095C76"/>
<path d="M95.5437 137.346C95.5586 135.463 94.044 133.924 92.1607 133.909C90.2774 133.894 88.7386 135.409 88.7237 137.292C88.7088 139.175 90.2234 140.714 92.1067 140.729C93.99 140.744 95.5288 139.229 95.5437 137.346Z" fill="#EE3624"/>
<path d="M96.8 64.61C96.08 63.63 94.93 62.99 93.62 62.99C91.44 62.99 89.68 64.76 89.68 66.93C89.68 69.11 91.45 70.87 93.62 70.87C94.93 70.87 96.08 70.23 96.8 69.25C96.32 68.6 96.04 67.8 96.04 66.93C96.03 66.06 96.32 65.26 96.8 64.61Z" fill="white"/>
<path d="M99.98 62.99C98.67 62.99 97.52 63.63 96.8 64.61C97.28 65.26 97.56 66.06 97.56 66.93C97.56 67.8 97.28 68.6 96.8 69.25C97.52 70.23 98.67 70.87 99.98 70.87C102.16 70.87 103.92 69.1 103.92 66.93C103.92 64.76 102.16 62.99 99.98 62.99Z" fill="#4FC4CE"/>
<path d="M96.8 64.61C96.32 65.26 96.04 66.06 96.04 66.93C96.04 67.8 96.32 68.6 96.8 69.25C97.28 68.6 97.56 67.8 97.56 66.93C97.56 66.06 97.27 65.26 96.8 64.61Z" fill="#00AEB0"/>
<path d="M103.88 79.73H90.59V87.07H103.88V79.73Z" fill="#00AEB0"/>
<path d="M103.32 84.98H103.33V81.79C102.36 81.78 101.88 81.03 101.88 80.28H92.62C92.62 81.04 92.13 81.79 91.16 81.79H91.15V85H91.16C92.14 85 92.62 85.76 92.62 86.51H101.86C101.85 85.75 102.33 84.98 103.32 84.98Z" fill="#00AEB0"/>
<path d="M97.31 85.07C98.2323 85.07 98.98 84.3223 98.98 83.4C98.98 82.4777 98.2323 81.73 97.31 81.73C96.3877 81.73 95.64 82.4777 95.64 83.4C95.64 84.3223 96.3877 85.07 97.31 85.07Z" fill="#00AEB0"/>
<path d="M102.15 81.75H88.86V89.09H102.15V81.75Z" fill="#49C3CC"/>
<path d="M101.58 87H101.59V83.81C100.62 83.8 100.14 83.05 100.14 82.3H90.88C90.88 83.06 90.39 83.81 89.42 83.81H89.41V87.02H89.42C90.4 87.02 90.88 87.78 90.88 88.53H100.12C100.11 87.78 100.6 87 101.58 87Z" fill="white"/>
<path d="M95.6 87.0977C96.5222 87.0818 97.257 86.3213 97.2411 85.3991C97.2252 84.4769 96.4648 83.7422 95.5425 83.758C94.6203 83.7739 93.8856 84.5344 93.9014 85.4566C93.9173 86.3788 94.6778 87.1135 95.6 87.0977Z" fill="#49C3CC"/>
<path d="M91.14 97.9V104.99L100.27 103.72V96.51L91.14 97.9Z" fill="#088C8F"/>
<path d="M92.3 97.9L92.32 104.83L101.05 105.3L101.03 98.25L92.3 97.9Z" fill="white"/>
<path d="M91.14 97.9V104.99L100.27 107.14V99.93L91.14 97.9Z" fill="#03ABB0"/>
<path d="M37.24 69.51C34.91 72.1 31.17 74.15 27.13 75.11C27.13 75.38 27.15 76.88 27.25 83.8C27.38 93.03 36.3 97.39 37.63 97.98C38.94 97.35 47.75 92.75 47.62 83.52C47.53 76.6 47.51 75.1 47.5 74.83C43.43 73.99 39.64 72.04 37.24 69.51Z" fill="#338F67"/>
<path d="M37.59 95.39C36.7 94.95 34.94 93.96 33.25 92.34C30.68 89.88 29.36 87.01 29.32 83.81L29.22 76.82C32.37 75.95 35.23 74.39 37.27 72.45C39.37 74.34 42.26 75.81 45.44 76.6L45.54 83.59C45.58 86.79 44.34 89.69 41.84 92.22C40.2 93.88 38.47 94.92 37.59 95.39Z" fill="#41B783"/>
<path d="M43.7 79.18C41.27 79.6 37.98 81.89 35.94 84.6C35.62 83.34 34.28 82.22 33.59 81.98L31.54 84.12C32.86 84.68 34.31 86.33 34.53 88.03L36.63 88.32C37.48 86.56 39.68 82.36 44.17 80.04C44.06 79.7 43.73 79.23 43.7 79.18Z" fill="white"/>
<path d="M198.74 188.33H3.59V188.94H198.74V188.33Z" fill="#00A9CC"/>
</g>
<defs>
<clipPath id="clip0_251:1116">
<rect width="198.74" height="196.25" fill="white"/>
</clipPath>
</defs>
</svg>
