<svg width="201" height="240" viewBox="0 0 201 240" fill="none" xmlns="http://www.w3.org/2000/svg">
<path d="M176.707 204.739C171.667 209.919 167.157 212.963 163.706 215.263C130.032 237.68 91.5339 231.222 79.6316 229.013C60.4283 225.448 44.2187 222.933 30.2966 210.389C-1.35145 181.885 0.191079 122.421 24.3683 85.5826C27.2377 81.2164 51.3823 45.5315 89.9587 40.5072C90.8999 40.3834 91.6058 40.3117 92.2202 40.2466C98.1877 39.6144 135.169 36.291 165.327 61.4776C169.641 65.0813 176.589 71.5849 183.034 81.5032C206.583 117.781 206.662 173.954 176.707 204.739Z" fill="url(#paint0_linear_693_117)"/>
<path d="M114.103 156.001L32.7934 165.932C28.4272 166.467 24.5578 164.153 24.1395 160.771C20.4793 130.958 48.6632 102.982 87.0958 98.2899L104.685 96.1395C112.175 95.2271 118.822 99.1957 119.535 105.002L124.528 145.653C125.13 150.592 120.463 155.225 114.103 156.001Z" fill="#FCDD2B"/>
<path d="M114.103 156.001L32.7934 165.932C28.4272 166.467 24.5578 164.153 24.1395 160.771C20.4793 130.958 48.6632 102.982 87.0958 98.2899L104.685 96.1395C112.175 95.2271 118.822 99.1957 119.535 105.002L124.528 145.653C125.13 150.592 120.463 155.225 114.103 156.001Z" fill="#FCDD2B"/>
<path d="M85.1873 213.608L85.4291 213.634C87.0305 213.79 88.4619 212.617 88.6253 211.021L93.5732 161.214C93.7301 159.618 92.5535 158.191 90.9522 158.028L90.7103 158.002C89.109 157.845 87.6776 159.018 87.5142 160.615L82.5663 210.421C82.4094 212.018 83.5859 213.451 85.1873 213.608Z" fill="#621222"/>
<path d="M36.1595 225.781C37.8132 226.035 39.3753 224.894 39.6302 223.246L48.0161 169.269C48.271 167.62 47.1272 166.063 45.4736 165.808C43.8199 165.554 42.2578 166.695 42.0029 168.343L33.617 222.32C33.3621 223.969 34.5059 225.527 36.1595 225.781Z" fill="#621222"/>
<path d="M192.838 152.515H95.1223V125.125C95.1223 99.0589 116.312 77.9321 142.457 77.9321H165.288C180.504 77.9321 192.838 90.2289 192.838 105.4V152.515Z" fill="#FCDD2B"/>
<path d="M183.504 176.509C157.15 179.956 130.803 183.41 104.449 186.857C81.2198 183.41 57.9968 179.956 34.7673 176.509C34.5451 176.502 33.5712 176.457 32.813 175.701C32.2705 175.16 32.1071 174.534 32.0744 174.384C32.0286 174.182 32.0025 173.974 32.0025 173.752C32.0025 172.234 33.2444 170.996 34.7673 170.996C58.5655 172.501 82.3571 174.006 106.155 175.505C150.046 169.627 182.485 166.806 183.53 168.526C183.641 168.708 184.543 170.813 185.445 171.804C185.57 171.941 186.014 172.397 186.184 173.12C186.23 173.322 186.256 173.531 186.256 173.752C185.347 174.671 184.426 175.59 183.504 176.509Z" fill="#621222"/>
<path d="M103.887 240H103.587C101.998 240 100.698 238.703 100.698 237.12V182.478C100.698 180.894 101.998 179.598 103.587 179.598H103.887C105.476 179.598 106.776 180.894 106.776 182.478V237.12C106.783 238.703 105.482 240 103.887 240Z" fill="#621222"/>
<path d="M191.093 223.728L190.766 223.78C189.204 224.021 187.727 222.946 187.485 221.382L180.047 173.492C179.805 171.934 180.883 170.461 182.452 170.22L182.779 170.168C184.341 169.927 185.818 171.002 186.06 172.566L193.498 220.457C193.74 222.014 192.655 223.487 191.093 223.728Z" fill="#621222"/>
<path d="M184.746 169.901C164.046 174.743 137.202 179.037 105.776 179.109C77.6772 179.174 53.3562 175.844 34.0287 171.843C33.1987 171.823 29.6234 171.647 26.8259 168.858C24.8324 166.871 24.231 164.551 24.1003 164.003C23.9238 163.254 23.8323 162.478 23.8323 161.683V158.054C25.5971 155.323 27.3619 152.599 29.1266 149.869C51.1208 148.364 73.1215 146.858 95.1157 145.353C107.606 149.68 117.757 150.481 124.555 150.462C143.157 150.403 178.047 144.03 182.798 147.888C182.798 147.888 186.472 150.872 190.001 150.872C191.851 152.717 192.995 155.258 192.995 158.054V161.683C190.25 164.414 187.498 167.157 184.746 169.901Z" fill="#FCDD2B"/>
<path d="M74.8863 159.064C72.3633 159.064 69.8469 159.018 67.3436 158.914C46.454 158.067 37.1661 154.183 34.1137 152.906C32.3424 152.163 30.5646 151.335 28.8325 150.449C28.5057 150.279 28.3815 149.888 28.5449 149.563C28.7149 149.237 29.1136 149.113 29.4338 149.276C31.1398 150.149 32.8849 150.964 34.6236 151.693C37.6237 152.945 46.7481 156.763 67.3959 157.598C77.0236 158.002 86.8344 157.624 96.5929 156.503C96.9785 156.457 97.2792 156.718 97.3184 157.083C97.3576 157.441 97.1027 157.767 96.7367 157.806C89.4554 158.647 82.1349 159.064 74.8863 159.064Z" fill="white"/>
<path d="M110.75 58.8058C110.92 59.0991 110.155 60.2786 109.201 60.2199C108.273 60.1613 107.652 58.9753 107.842 58.695C107.953 58.5387 108.28 58.7472 109.208 58.7863C110.247 58.8384 110.652 58.6234 110.75 58.8058Z" fill="#FC8872"/>
<path d="M8.91683 203.559C8.91683 205.234 7.5573 206.589 5.87751 206.589C4.19772 206.589 2.8382 205.234 2.8382 203.559C2.8382 201.884 4.19772 200.529 5.87751 200.529C7.5573 200.529 8.91683 201.884 8.91683 203.559Z" fill="#97B7FD"/>
<path d="M115.541 61.4516C115.561 63.4131 115.692 72.6536 109.227 76.0553C105.77 77.8734 102.077 77.1566 100.482 76.7395C101.103 73.3313 102.018 68.0138 102.913 61.4516C104.73 48.2033 104.482 44.2738 106.227 43.9414C109.502 43.3158 115.456 52.3935 115.541 61.4516Z" fill="#621222"/>
<path d="M128.699 117.214C128.718 118.087 128.725 118.368 128.738 118.935C128.744 119.436 128.751 119.86 128.757 120.179C131.078 120.629 133.398 121.085 135.731 121.541C135.856 121.111 135.973 120.681 136.111 120.251C136.875 115.031 137.718 108.378 138.254 101.196C138.601 96.55 138.732 92.8681 138.542 88.5997C138.457 86.6839 138.326 85.0873 138.222 83.9664C137.738 83.7318 135.601 82.7413 133.123 83.5559C129.529 84.7289 128.633 88.5606 128.587 88.7496C128.653 108.736 128.685 116.693 128.699 117.214Z" fill="#FC8872"/>
<path d="M92.6516 111.662C92.5405 112.529 92.5078 112.809 92.4293 113.369C92.364 113.865 92.3052 114.282 92.2594 114.601C94.4882 115.396 96.7105 116.185 98.9524 116.98C99.1354 116.569 99.3185 116.165 99.5145 115.761C101.057 110.711 102.881 104.266 104.482 97.2408C105.521 92.6987 106.201 89.0754 106.652 84.8266C106.855 82.9173 106.966 81.3207 107.031 80.1998C106.587 79.8936 104.626 78.6033 102.051 79.0334C98.3184 79.659 96.8609 83.3148 96.789 83.4907C93.8673 103.269 92.7169 111.141 92.6516 111.662Z" fill="#FC8872"/>
<path d="M129.411 126.663C131.385 130.586 132.999 136.145 130.712 140.192C130.306 140.895 129.77 141.534 129.176 142.062C128.548 142.622 127.888 143.085 127.136 143.437C126.79 143.652 126.45 143.795 126.11 143.945C120.43 146.18 112.528 144.812 111.208 144.603C110.75 144.512 110.286 144.421 109.829 144.33C109.005 144.154 108.221 143.939 107.469 143.698C106.325 143.333 105.286 142.948 104.279 142.492C103.992 142.342 103.665 142.225 103.371 142.042C97.6713 139.338 93.9392 135.382 92.2529 133.401C92.6581 132.131 93.2333 130.736 94.0111 129.322C94.7497 127.973 95.619 126.794 96.5079 125.751C97.1485 124.988 97.8217 124.298 98.5537 123.679C100.835 121.554 103.201 120.225 104.776 119.449C104.75 119.384 104.717 119.28 104.691 119.215C104.632 119.078 104.606 118.98 104.547 118.843C103.221 115.187 102.038 110.248 102.064 104.481C102.096 102.76 102.221 101.144 102.404 99.6258C101.247 98.896 100.273 97.8794 99.6126 96.6868C98.8609 95.3184 98.5407 93.8456 98.6583 92.3272C98.8086 90.8089 99.3511 89.4469 100.214 88.3391C100.286 88.2087 100.397 88.0849 100.502 87.9546C100.894 87.4789 101.319 87.0358 101.835 86.7034C101.671 86.5144 100.397 85.0677 98.4622 85.1916C97.4818 85.2502 96.7759 85.6868 96.436 85.9344C96.4099 85.1199 96.3706 81.0665 99.5211 77.6649C102.502 74.4392 106.273 74.0221 107.142 73.9504C107.822 73.7223 108.639 73.403 109.521 72.9925C110.45 72.4777 111.247 71.9303 111.868 71.4676C112.999 71.9954 114.946 72.8687 117.561 73.0446C120.077 73.2531 122.13 72.7709 123.28 72.406C123.881 73.0055 124.509 73.6376 125.365 74.3153C126.13 74.8562 126.901 75.3319 127.555 75.6317C131.359 75.3059 134.947 76.9155 136.836 79.8545C138.503 82.4481 138.274 85.172 138.15 86.0909C137.679 85.9149 136.039 85.361 134.117 86.0127C131.823 86.7881 130.836 88.691 130.653 89.0689C130.934 89.3491 131.215 89.6619 131.431 90.0073C131.614 90.2484 131.764 90.5221 131.888 90.7958C131.98 90.9001 132.012 90.9718 132.071 91.0695C132.509 92.1187 131.32 93.2461 129.999 95.957C129.81 96.3415 129.659 96.7325 129.502 97.0909C128.699 98.9677 128.274 100.603 128.012 101.75C127.927 103.301 127.797 104.956 127.574 106.599C127.208 109.531 126.725 112.255 126.117 114.803C125.646 116.699 125.143 118.53 124.581 120.186C125.561 121.072 126.783 122.362 127.947 124.122C128.417 124.819 128.934 125.673 129.411 126.663Z" fill="#FC8872"/>
<path d="M123.862 72.9403C123.574 73.4552 122.11 75.9771 118.992 76.8438C114.822 78.0037 111.528 75.1364 111.306 74.9409C111.626 73.6898 111.946 72.204 112.103 70.5422C112.221 69.7211 112.293 68.874 112.332 68.0008C112.417 65.8177 112.267 63.8953 112.057 62.2531C114.672 62.0055 117.28 61.7253 119.894 61.4776L120.058 61.4516C120.202 63.5695 120.685 66.4107 122.038 69.4605C122.607 70.7833 123.247 71.9563 123.862 72.9403Z" fill="#FC8872"/>
<path d="M120.136 62.3769C120.587 65.8894 115.763 69.8384 112.11 70.5422C112.227 69.7211 112.299 68.874 112.338 68.0008C112.423 65.8177 112.273 63.8953 112.064 62.2531C114.678 62.0055 117.286 61.7253 119.901 61.4776C120.012 61.7644 120.09 62.0837 120.136 62.3769Z" fill="#FC8872"/>
<path d="M112.678 67.0363C110.129 66.8669 108.142 64.6577 107.763 64.2407C105.907 62.1749 105.547 59.8615 105.456 59.0013C105.168 54.9741 104.874 50.9468 104.587 46.9195C104.6 45.0623 106.123 43.5635 107.985 43.5765L117.679 43.6417C119.541 43.6547 121.045 45.1731 121.032 47.0303L120.953 58.897C119.672 64.0126 115.986 67.2513 112.678 67.0363Z" fill="#FC8872"/>
<path d="M120.96 58.8905C119 58.871 117.032 58.858 115.071 58.8384C111.581 54.8633 108.091 50.8882 104.6 46.913C104.751 45.7075 105.169 44.0522 106.385 42.6577C110.28 38.1873 120.366 38.7999 123.568 43.9936C125.849 47.695 124.045 52.7584 123.496 54.2898C122.758 56.3686 121.725 57.9065 120.96 58.8905Z" fill="#FC8872"/>
<path d="M112.933 61.7709C113.162 62.0902 112.044 63.9344 110.737 63.7975C109.835 63.6998 109.077 62.6832 109.253 62.3313C109.365 62.1163 109.776 62.2596 110.75 62.1749C112.208 62.0446 112.789 61.5754 112.933 61.7709Z" fill="white"/>
<path d="M131.418 152.267C131.274 152.287 131.156 152.319 131.039 152.352C130.463 152.508 129.862 152.625 129.274 152.71C129.202 152.723 129.117 152.762 129.012 152.762C126.842 153.095 124.509 153.055 122.117 152.482C117.62 151.387 114.554 148.813 112.914 147.119C105.58 145.926 98.2204 144.727 90.8477 143.554C87.56 143.033 84.2723 142.505 80.9846 141.984C77.7688 141.449 74.5857 140.928 71.3634 140.42C64.3239 139.292 57.2975 138.126 50.2973 137.012C48.8136 133.252 47.343 129.452 45.8658 125.692C51.2581 124.923 56.9184 124.311 62.8337 123.848C64.9252 123.666 66.9907 123.542 69.0234 123.411C70.128 123.353 71.2261 123.301 72.298 123.235C75.2458 123.092 78.174 123.007 81.0303 122.936C84.6187 122.864 88.0828 122.851 91.4947 122.897C91.5993 122.897 91.7039 122.897 91.8085 122.897C93.2987 122.936 94.789 122.968 96.2792 123.007C101.332 123.17 106.168 123.438 110.842 123.789C115.064 126.989 119.313 130.202 123.561 133.414C128.509 137.168 133.463 140.889 138.437 144.649C139.418 145.418 136.026 151.029 131.418 152.267Z" fill="#97B7FD"/>
<path d="M50.2908 137.025C49.0489 142.551 45.7089 156.346 40.8264 168.454C38.2119 174.951 33.5059 184.641 31.4013 189.262C31.1464 189.842 30.9111 190.343 30.7411 190.734C30.6561 190.904 30.5385 191.073 30.4535 191.269C28.3031 195.283 26.1397 198.958 24.0415 202.282C23.754 202.764 23.4598 203.246 23.1657 203.703C22.4402 203.357 21.7343 202.986 21.0088 202.673C19.8911 202.139 18.7995 201.624 17.708 201.083C17.7734 200.972 17.8191 200.887 17.8779 200.718C17.9825 200.496 18.061 200.223 18.1655 199.975C18.5446 199.089 18.9368 198.066 19.3943 196.932C19.4597 196.821 19.4793 196.736 19.5185 196.625C20.2179 194.833 20.9499 192.794 21.7539 190.513C21.8127 190.324 21.8912 190.102 21.9304 189.939C22.231 189.086 22.4925 188.291 22.7474 187.522C24.5644 181.931 25.3488 178.04 28.4012 166.603C30.2117 159.774 31.8065 153.837 35.238 142.042C36.604 137.403 37.7675 133.545 38.5453 130.788C38.7022 130.293 38.9571 129.713 39.4342 128.996C41.5781 125.881 45.9769 125.419 48.441 125.36C49.1273 126.285 50.2123 127.967 50.7222 130.365C51.3431 133.421 50.6895 135.897 50.2908 137.025Z" fill="#97B7FD"/>
<path d="M24.5906 205.762L24.7213 206.909C24.8912 208.688 24.7801 209.124 24.6886 209.45C24.4729 210.16 23.9958 210.636 23.4141 211.073C22.133 211.953 20.3617 212.226 19.1786 212.33C18.9695 212.383 18.7603 212.376 18.5773 212.396C17.6818 212.943 4.6422 213.38 4.74025 213.106C4.58338 213.126 3.11928 212.122 3.0866 212.044C3.08006 211.966 1.36105 210.571 1.26301 209.919C1.16497 209.535 1.47217 208.942 1.75976 208.649C2.19114 208.232 2.60292 208.368 3.74021 208.349C4.37422 208.329 4.9298 208.297 5.29582 208.258C5.4723 208.16 5.69453 208.056 5.84486 207.932C6.85143 207.45 7.85146 206.889 8.83188 206.413C9.38746 206.14 9.91035 205.846 10.4594 205.573C11.0673 205.084 11.6751 204.621 12.2634 204.133C12.3614 204.067 12.4398 204.035 12.5379 203.97C13.3745 203.403 14.2373 202.803 15.172 202.145C16.0086 201.552 16.9171 200.894 17.8453 200.21C17.9694 200.118 18.0871 200.027 18.1917 199.962C18.2636 199.903 18.3159 199.871 18.3616 199.838C20.1656 200.086 21.9173 200.373 23.7213 200.62C23.8258 201.109 23.9435 201.65 24.0611 202.275C24.1788 202.842 24.2768 203.494 24.3814 204.198C24.4402 204.693 24.5252 205.214 24.5906 205.762Z" fill="#FC8872"/>
<path d="M31.3947 189.262C31.1398 189.842 30.9045 190.343 30.7346 190.734C30.6496 190.904 30.5319 191.073 30.447 191.269C28.2966 195.283 26.1331 198.958 24.035 202.282C24.1526 202.849 24.2507 203.5 24.3553 204.204C24.4337 204.7 24.5187 205.214 24.584 205.762L24.7147 206.909L15.1523 202.152C15.989 201.559 16.8975 200.9 17.8256 200.216C17.9498 200.125 18.0675 200.034 18.172 199.968C18.5511 199.082 18.9433 198.059 19.4008 196.925C19.4662 196.814 19.4858 196.73 19.525 196.619C20.2244 194.827 20.9565 192.787 21.7604 190.506C21.8192 190.317 21.8977 190.096 21.9369 189.933C22.2375 189.079 22.499 188.284 22.7539 187.515C25.6167 188.102 28.5188 188.682 31.3947 189.262Z" fill="#FC8872"/>
<path d="M131.071 151.987C130.934 152.039 130.823 152.091 130.718 152.143C130.182 152.41 129.62 152.638 129.058 152.84C128.986 152.866 128.914 152.925 128.81 152.945C126.744 153.688 124.45 154.105 121.986 154C117.358 153.792 113.855 151.863 111.914 150.52C104.489 150.768 97.0308 151.016 89.573 151.289C86.2461 151.413 82.9192 151.531 79.5923 151.654C76.3373 151.752 73.115 151.85 69.8534 151.98C62.729 152.234 55.6111 152.449 48.5194 152.71C46.3363 149.302 44.1532 145.868 41.9702 142.459C47.1141 140.661 52.5391 138.967 58.2583 137.37C60.2714 136.783 62.278 136.269 64.2454 135.741C65.3173 135.474 66.3893 135.206 67.422 134.933C70.2848 134.222 73.1411 133.571 75.932 132.952C79.442 132.183 82.8342 131.505 86.1938 130.886C86.2984 130.866 86.3964 130.847 86.501 130.827C87.9717 130.573 89.4423 130.326 90.9129 130.071C95.9 129.257 100.698 128.579 105.351 128.025C110.116 130.352 114.907 132.678 119.705 135.004C125.287 137.728 130.875 140.42 136.49 143.15C137.588 143.724 135.346 149.882 131.071 151.987Z" fill="#97B7FD"/>
<path d="M64.0624 221.74C63.2715 221.845 62.4545 221.923 61.6898 222.053C60.4806 222.21 59.2649 222.366 58.0557 222.529C58.0557 222.425 58.0295 222.294 58.0034 222.164C57.9772 222.086 57.9773 222.008 57.9511 221.929C57.742 220.88 57.474 219.59 57.1864 218.15C57.1602 218.019 57.1341 217.941 57.1341 217.837C56.7158 215.947 56.2125 213.842 55.6046 211.509C55.5523 211.301 55.5 211.092 55.4478 210.903C55.2647 210.167 55.0817 209.483 54.8922 208.831C53.3104 202.947 51.8398 199.375 47.9638 187.874C45.6958 181.201 43.7742 175.375 40.1401 163.606C38.7152 159.012 37.5583 155.147 36.7151 152.417C36.5582 151.915 36.4275 151.289 36.4537 150.449C36.5321 146.669 39.9309 143.854 41.9571 142.466C42.8526 142.727 44.8526 143.463 46.6174 145.379C48.5129 147.477 48.99 149.765 49.1208 150.657C52.8071 159.377 56.5458 170.116 59.3695 182.647C61.2911 191.21 62.5068 199.271 63.1866 206.596C63.2127 206.648 63.2127 206.7 63.2127 206.752C63.2389 206.961 63.265 207.176 63.2912 207.358C63.7095 211.979 63.9252 216.286 64.0297 220.255C64.0363 220.743 64.0624 221.245 64.0624 221.74Z" fill="#97B7FD"/>
<path d="M67.7815 227.912C67.8076 228.648 67.5462 229.28 67.1213 229.88C66.2259 231.137 64.6441 232.004 63.5918 232.506C63.4088 232.61 63.1996 232.688 63.0624 232.767C62.3761 233.581 50.258 238.41 50.2842 238.123C50.1535 238.201 48.4148 237.758 48.3625 237.674C48.3364 237.621 46.2056 236.885 45.9115 236.305C45.6762 235.992 45.7808 235.334 45.9376 234.937C46.2252 234.409 46.6501 234.383 47.7024 233.992C48.3103 233.757 48.807 233.516 49.1273 233.36C49.2841 233.229 49.441 233.047 49.5521 232.884C50.3169 232.069 51.0554 231.229 51.8463 230.44C52.2646 229.99 52.6633 229.521 53.0817 229.072C53.4738 228.44 53.8987 227.788 54.2908 227.13C54.3693 227.052 54.3954 226.973 54.4739 226.895C54.9248 226.263 55.3955 225.611 55.8987 224.901C56.5327 223.956 57.2125 222.959 57.9511 221.91C58.0295 221.78 58.108 221.675 58.1864 221.545C58.3171 221.363 58.4217 221.18 58.5263 221.017C60.3172 220.652 62.0558 220.333 63.8467 219.942C63.899 220.02 63.9513 220.124 64.0297 220.229C64.4807 220.991 65.0559 221.91 65.6899 223.063C65.9252 223.513 66.1932 223.982 66.4285 224.458C66.5069 224.614 66.5854 224.771 66.6638 224.908C67.6965 227.019 67.7553 227.547 67.7815 227.912Z" fill="#FC8872"/>
<path d="M55.8987 224.921C56.5327 223.976 57.2125 222.979 57.9511 221.929C57.7419 220.88 57.4739 219.59 57.1863 218.15C57.1602 218.019 57.1341 217.941 57.1341 217.837C56.7157 215.947 56.2125 213.842 55.6046 211.509C55.5523 211.301 55.5 211.092 55.4477 210.903C55.2647 210.167 55.0817 209.483 54.8922 208.831C57.6569 208.095 60.4217 207.358 63.1865 206.596C63.2127 206.648 63.2127 206.7 63.2127 206.752C63.2388 206.961 63.265 207.176 63.2911 207.358C63.7094 211.979 63.9251 216.286 64.0297 220.255C64.4807 221.017 65.0559 221.936 65.6899 223.089C65.9252 223.539 66.1932 224.008 66.4285 224.484C66.5069 224.64 66.5853 224.797 66.6638 224.934H55.8987V224.921Z" fill="#FC8872"/>
<path d="M130.097 131.479C126.437 132.157 119.28 132.965 110.999 130.332C105.299 128.52 101.136 125.731 98.5603 123.679C100.39 118.98 100.992 114.881 101.619 111.949C101.926 110.515 102.221 108.391 101.946 105.875C101.351 100.382 98.5276 97.5405 97.5014 94.8752C96.0831 91.1803 97.0178 84.9765 107.142 73.9374C105.24 79.1181 104.966 82.246 106.332 83.3343C108.469 85.0352 114.62 81.7117 124.77 73.3769C126.515 80.3171 128.065 88.1436 129.104 96.765C130.692 109.844 130.725 121.587 130.097 131.479Z" fill="#404ADF"/>
<path d="M101.024 146.578C100.966 146.571 50.2385 137.337 50.2385 137.337C50.0554 137.305 49.9378 137.135 49.9705 136.953C50.0032 136.777 50.1469 136.666 50.3561 136.686L101.077 145.92C101.26 145.952 101.377 146.122 101.345 146.304C101.319 146.467 101.181 146.578 101.024 146.578Z" fill="#404ADF"/>
<path d="M41.127 167.092C40.9832 167.092 40.8525 167.001 40.8133 166.858C40.029 164.277 39.3296 161.625 38.7348 158.959C37.1857 152.006 36.3295 148.175 37.9505 145.692C39.4865 143.339 42.4996 142.127 45.6893 140.843C46.9573 140.335 48.2449 139.918 49.5325 139.605C49.7286 139.553 49.892 139.67 49.9312 139.846C49.977 140.022 49.8659 140.198 49.6894 140.244C48.4345 140.55 47.173 140.961 45.9442 141.449C42.7088 142.753 39.9178 143.874 38.4995 146.05C37.0877 148.207 37.7478 151.524 39.3753 158.816C39.9701 161.462 40.663 164.108 41.4408 166.669C41.4931 166.838 41.395 167.027 41.2251 167.079C41.1924 167.086 41.1597 167.092 41.127 167.092Z" fill="#404ADF"/>
<path d="M45.0683 238.332C44.3428 237.641 43.9506 236.781 43.9506 236.781C43.7284 236.272 43.6304 235.823 43.5781 235.562C43.9768 234.487 44.6108 233.171 45.6435 231.854C48.4083 228.329 52.1666 227.156 53.7091 226.765C55.768 228.87 57.8269 230.974 59.8792 233.086C62.6048 231.203 65.3304 229.326 68.056 227.442C68.2194 227.618 68.6312 228.107 68.7423 228.87C68.8665 229.736 68.5201 230.388 68.4089 230.583C59.1537 236.598 51.6306 239.902 48.9312 239.733C46.369 239.563 45.0683 238.332 45.0683 238.332Z" fill="#404ADF"/>
<path d="M0.445964 210.232C0.0341859 209.32 0.00150502 208.368 0.00150502 208.368C-0.0115673 207.814 0.0668666 207.365 0.125692 207.098C0.903495 206.257 1.9885 205.28 3.4526 204.452C7.35469 202.236 11.2764 202.575 12.8516 202.803C13.9497 205.534 15.0543 208.258 16.1524 210.988C19.3878 210.284 22.6232 209.574 25.8651 208.87C25.9501 209.092 26.1462 209.704 25.9566 210.454C25.7409 211.301 25.1723 211.777 24.9958 211.913C14.1392 213.966 5.92327 214.175 3.49182 212.995C1.18455 211.868 0.445964 210.232 0.445964 210.232Z" fill="#404ADF"/>
<path d="M51.8594 229.788C51.8594 231.463 50.4999 232.819 48.8201 232.819C47.1403 232.819 45.7808 231.463 45.7808 229.788C45.7808 228.114 47.1403 226.758 48.8201 226.758C50.4933 226.758 51.8594 228.12 51.8594 229.788Z" fill="#97B7FD"/>
<path d="M130.3 116.68C130.548 116.778 132.516 117.749 132.914 119.749C133.372 122.232 131.039 124.206 130.169 124.617C129.699 124.826 128.914 125.197 127.895 125.516C122.757 127.191 118.045 126.5 106.606 123.861C104.58 123.398 102.397 122.871 100.064 122.291C98.7368 121.952 97.3642 121.639 95.972 121.281C96.0308 119.847 96.0896 118.413 96.1485 116.98C97.1746 116.81 98.325 116.686 99.58 116.673C109.868 116.667 120.084 116.673 130.3 116.68Z" fill="#FC8872"/>
<path d="M121.071 132.424L95.3902 130.795L92.4947 130.638L90.7561 130.508L72.2653 129.355L67.2324 129.042C65.6245 128.938 63.9121 127.517 63.4415 125.888L53.0359 90.8023C52.5588 89.1471 53.4804 87.9155 55.0882 87.9937L59.5655 88.2804L78.0825 89.4599L79.8211 89.5642L82.7166 89.7467L108.927 91.4019C110.535 91.5061 112.221 92.9007 112.718 94.5559L123.097 129.641C123.574 131.297 122.679 132.528 121.071 132.424Z" fill="#E0E0E0"/>
<path opacity="0.33" d="M90.7495 130.508L72.2587 129.355L59.5655 88.2804L78.0824 89.4599L90.7495 130.508Z" fill="white"/>
<path opacity="0.33" d="M95.3837 130.795L92.4882 130.638L79.8211 89.5642L82.7166 89.7467L95.3837 130.795Z" fill="white"/>
<path d="M121.94 43.57C121.94 45.7661 117.731 47.1216 112.064 48.9853C106.9 50.6861 105.495 50.1387 104.796 49.7412C102.763 48.5813 101.698 45.7922 102.188 43.57C103.044 39.6731 108.554 38.1547 112.064 38.1547C117.515 38.1547 121.94 40.5789 121.94 43.57Z" fill="#621222"/>
<path d="M129.025 54.1725C131.404 62.5203 131.581 73.8136 131.607 76.0097C131.156 76.3029 126.921 78.9291 122.855 77.0653C120.862 76.153 119.796 74.6086 119.313 73.781C116.672 69.2259 118.077 64.0582 118.326 63.1915C119.6 58.7667 123.751 56.9812 122.934 55.2282C122.594 54.5049 121.894 54.7264 120.646 53.6186C118.927 52.0937 119.234 50.7709 118.162 49.4024C116.273 46.9912 113.378 48.6073 110.345 46.5285C107.894 44.8538 106.077 41.2566 107.051 39.3081C108.691 36.0303 119.077 35.6458 123.404 40.429C124.881 42.0582 125.796 44.6452 127.627 49.8129C127.627 49.8194 128.444 52.1263 129.025 54.1725Z" fill="#621222"/>
<path d="M125.43 45.4729C127.692 48.868 131.006 54.8046 132.457 62.8722C133.542 68.9196 133.202 74.0873 132.679 77.6453L125.43 45.4729Z" fill="#621222"/>
<path d="M102.685 45.6358C102.979 48.4966 104.881 50.7709 107.293 51.2987C109.443 51.7679 111.221 50.6796 111.652 50.3929L102.685 45.6358Z" fill="#621222"/>
<path d="M105.815 59.9006C105.77 59.9006 105.717 59.9006 105.672 59.9006C104.672 59.8745 103.678 59.5748 102.783 59.0339C102.358 58.6103 101.887 57.9847 101.658 57.1376C101.56 56.7987 101.142 55.0588 102.051 53.8011C102.299 53.4622 102.619 53.1885 102.998 52.993C103.894 52.6476 104.757 52.5955 105.587 52.804C107.75 53.3449 108.796 55.4693 109.064 56.1079C109.084 56.147 109.09 56.1992 109.09 56.2448L109.012 58.7602C109.012 58.871 108.953 58.9753 108.855 59.0274C108.195 59.4314 107.142 59.9006 105.815 59.9006ZM103.168 58.493C103.953 58.9557 104.822 59.2164 105.691 59.2424C106.894 59.2424 107.77 58.8905 108.358 58.5582L108.43 56.2904C108.201 55.7691 107.26 53.8988 105.43 53.4361C104.724 53.2537 103.998 53.3058 103.266 53.5925C103.011 53.7229 102.77 53.9249 102.587 54.1856C101.855 55.1956 102.214 56.6749 102.292 56.9616C102.489 57.6524 102.868 58.1672 103.168 58.493Z" fill="#00010E"/>
<path d="M113.633 60.044C112.312 60.044 111.267 59.5748 110.606 59.1773C110.508 59.1186 110.45 59.0209 110.45 58.9101L110.371 56.3947C110.371 56.3491 110.378 56.2969 110.397 56.2578C110.665 55.6192 111.705 53.5013 113.875 52.9539C114.698 52.7454 115.594 52.804 116.43 53.1299C116.829 53.3254 117.156 53.6056 117.411 53.9509C118.293 55.1696 117.933 56.8117 117.803 57.2875C117.567 58.1346 117.097 58.7602 116.744 59.1316C115.79 59.7247 114.79 60.0244 113.79 60.0505C113.731 60.044 113.685 60.044 113.633 60.044ZM111.103 58.7016C111.718 59.0535 112.665 59.4444 113.77 59.3793C114.639 59.3597 115.509 59.0991 116.293 58.6364C116.594 58.3106 116.973 57.7957 117.169 57.0985C117.247 56.8117 117.6 55.326 116.875 54.3224C116.639 53.9966 116.358 53.8141 116.169 53.7229C115.698 53.5404 114.92 53.3579 114.038 53.5795C112.208 54.0422 111.267 55.919 111.038 56.4338L111.103 58.7016Z" fill="#00010E"/>
<path d="M110.698 56.538C110.685 56.538 108.711 56.4794 108.711 56.4794C108.528 56.4729 108.384 56.323 108.391 56.1405C108.397 55.9646 108.541 55.8212 108.717 55.8212C108.731 55.8212 110.704 55.8799 110.704 55.8799C110.887 55.8864 111.031 56.0363 111.025 56.2187C111.025 56.4012 110.874 56.538 110.698 56.538Z" fill="#00010E"/>
<path d="M117.639 56.512C117.515 56.512 117.398 56.4403 117.339 56.3165C117.26 56.1536 117.332 55.9581 117.502 55.8799L122.646 53.5274C122.803 53.4492 123.006 53.5209 123.084 53.6903C123.162 53.8532 123.091 54.0487 122.921 54.1269L117.777 56.4794C117.731 56.4989 117.685 56.512 117.639 56.512Z" fill="#00010E"/>
<path d="M124.091 55.8864C124.091 57.7371 123.208 59.2424 122.117 59.2424C121.025 59.2424 120.136 57.7436 120.13 55.8864C120.13 54.0357 121.012 52.5303 122.104 52.5303C123.202 52.5303 124.091 54.0292 124.091 55.8864Z" fill="#FC8872"/>
<path d="M186.315 172.697L104.521 177.271C100.129 177.519 96.4164 174.873 96.2138 171.374C94.4752 140.511 124.404 113.734 163.066 111.571L180.759 110.58C188.295 110.157 194.675 114.692 195.014 120.707L197.387 162.791C197.328 163.541 196.949 167.223 193.753 170.025C190.655 172.736 187.099 172.723 186.315 172.697Z" fill="#FCDD2B"/>
<path d="M104.345 177.265C99.861 177.265 96.155 174.423 95.9458 170.728C94.1941 139.553 124.463 112.418 163.419 110.235L181.105 109.244C183.759 109.094 186.419 109.551 188.746 110.554C189.08 110.698 189.23 111.082 189.086 111.421C188.942 111.753 188.55 111.903 188.217 111.76C186.08 110.834 183.648 110.411 181.171 110.554L163.484 111.545C125.254 113.682 95.5406 140.205 97.2531 170.657C97.4295 173.791 100.822 176.163 104.861 175.935C105.155 175.942 105.534 176.189 105.554 176.554C105.574 176.919 105.299 177.226 104.933 177.245C104.737 177.258 104.541 177.265 104.345 177.265Z" fill="white"/>
<path d="M119.025 34.0623C118.45 35.2027 116.509 35.0072 116.214 36.2779C116.058 36.9622 116.567 37.2359 116.541 38.0309C116.482 39.8621 113.639 41.6476 112.816 41.0937C112.071 40.5854 113.659 38.5913 112.698 37.1577C111.561 35.4568 108.476 37.0404 106.221 35.0789C105.129 34.1274 104.325 32.4266 104.685 31.0321C105.476 27.9432 111.705 27.1677 112.554 27.0634C112.711 27.0439 112.77 27.0374 112.809 27.0374C116.502 26.7897 120.019 32.0812 119.025 34.0623Z" fill="#621222"/>
<path d="M117.339 34.147C117.744 33.5344 119.064 31.3644 118.365 29.2661C117.437 26.477 113.182 24.535 108.325 25.9817L117.339 34.147Z" fill="#621222"/>
<path d="M143.686 235.38C142.104 235.999 138.705 237.126 134.156 237.068C130.104 237.015 127.045 236.044 125.483 235.445C124.927 233.62 124.064 222.197 123.483 216.801C123.385 215.863 124.012 214.963 125.13 214.514C127.169 213.706 130.437 212.748 134.588 212.774C138.614 212.793 141.784 213.732 143.777 214.527C144.889 214.97 145.516 215.856 145.425 216.788C144.849 222.979 144.268 229.176 143.686 235.38Z" fill="#FEAA3A"/>
<path d="M143.346 215.641C143.32 216.501 138.228 217.088 134.457 217.094C130.666 217.094 125.594 216.501 125.568 215.641C125.542 214.826 130.11 213.771 134.333 213.751C138.699 213.738 143.379 214.813 143.346 215.641Z" fill="#FEAA3A"/>
<path d="M144.876 230.342C143.771 230.342 142.647 230.114 141.588 229.652L142.64 227.24C143.993 227.827 145.477 227.866 146.719 227.358C147.601 226.993 148.268 226.374 148.542 225.663C149.013 224.477 148.647 222.698 147.366 221.936C146.032 221.134 144.117 221.63 143.104 223.044L140.96 221.519C142.771 218.977 146.176 218.163 148.719 219.675C151.261 221.187 151.876 224.393 150.993 226.615C150.457 227.983 149.268 229.137 147.725 229.769C146.83 230.153 145.862 230.342 144.876 230.342Z" fill="#FEAA3A"/>
<path d="M16.6295 8.41294C16.5315 8.26306 16.7014 8.08059 16.8517 8.17183C19.3224 9.63155 28.0482 15.5226 31.1659 27.4479C34.0157 38.3567 34.2249 46.4764 34.1856 49.5001C34.1791 50.0997 33.5255 50.4646 33.0091 50.1648C29.9371 48.3858 21.5905 42.9444 20.3355 35.7827C18.8322 27.2329 21.4074 15.5291 16.6295 8.41294Z" fill="#BDD0FB"/>
<path opacity="0.5" d="M22.2048 16.3828C22.2048 16.3828 29.2181 23.4142 33.4666 49.272C33.4732 49.272 27.8194 23.5119 22.2048 16.3828Z" fill="white"/>
<path d="M16.3354 31.7424C15.7994 36.9426 13.9366 67.3491 42.2448 74.2176C42.2448 74.2176 48.6371 54.5114 17.0413 31.4296C16.7603 31.2276 16.3681 31.4035 16.3354 31.7424Z" fill="#91B3FA"/>
<path opacity="0.5" d="M19.2178 36.2063C19.6688 37.8615 20.1852 39.5037 20.7277 41.1393C21.2767 42.7685 21.8584 44.3911 22.4728 45.9942C23.0872 47.6038 23.7409 49.1939 24.4337 50.7709C25.1265 52.3479 25.8455 53.9054 26.6233 55.4433C28.1658 58.5126 29.8783 61.5037 31.8392 64.3254C32.0745 64.6838 32.3359 65.0227 32.5908 65.3746L32.9699 65.8959C33.0941 66.0719 33.2314 66.2348 33.3621 66.4042C33.6301 66.7431 33.885 67.0819 34.1595 67.4143L34.9896 68.3983C36.1138 69.6886 37.3099 70.9202 38.5976 72.0476C38.7152 72.1518 38.7283 72.3278 38.6237 72.4451C38.5191 72.5624 38.3426 72.5754 38.225 72.4712C36.9243 71.3112 35.7216 70.0535 34.5909 68.7371L33.7608 67.7336C33.4863 67.3947 33.2314 67.0493 32.9634 66.704C32.8327 66.528 32.6954 66.3651 32.5712 66.1892L32.1921 65.6613C31.9437 65.3094 31.6823 64.964 31.447 64.5991C29.4927 61.7383 27.7933 58.7211 26.2704 55.6192C25.5056 54.0748 24.7932 52.4978 24.1134 50.9142C23.4337 49.3307 22.7931 47.7276 22.1853 46.1115C21.5839 44.4954 21.0087 42.8662 20.4728 41.2306C19.9433 39.5884 19.4335 37.9397 18.9956 36.2714C18.976 36.2063 19.0152 36.1411 19.0806 36.1216C19.1394 36.102 19.2048 36.1411 19.2178 36.2063Z" fill="white"/>
<path d="M33.6889 0.345388C31.2575 6.36021 18.5185 41.9409 49.8594 59.8485C49.8594 59.8485 64.2912 38.5783 34.6301 0.208539C34.3752 -0.123807 33.8458 -0.0456082 33.6889 0.345388Z" fill="#91B3FA"/>
<path opacity="0.5" d="M35.506 6.80334C35.4406 8.97989 35.4668 11.163 35.5387 13.3395C35.6105 15.516 35.7347 17.6926 35.9178 19.8691C36.2772 24.2157 36.8459 28.5427 37.6956 32.8176C38.5518 37.086 39.6826 41.3088 41.2578 45.3686C41.65 46.3852 42.0814 47.3822 42.5323 48.3728C42.9833 49.3633 43.4801 50.3343 44.003 51.2792C45.0488 53.182 46.2645 54.9936 47.6436 56.6684C47.7155 56.7531 47.7024 56.8834 47.6175 56.9551C47.5325 57.0268 47.4018 57.0138 47.3299 56.9291C45.9377 55.2282 44.722 53.384 43.6696 51.4616C43.1402 50.5037 42.65 49.5197 42.199 48.5226C41.748 47.5256 41.3166 46.5155 40.931 45.4924C39.3623 41.4065 38.2446 37.1577 37.408 32.8698C36.5779 28.5818 36.0289 24.2418 35.689 19.8887C35.519 17.7121 35.4014 15.5291 35.3426 13.346C35.2837 11.163 35.2641 8.97989 35.336 6.79683C35.336 6.75121 35.3752 6.71211 35.4275 6.71211C35.4668 6.71863 35.506 6.75773 35.506 6.80334Z" fill="white"/>
<path d="M44.5455 7.87206C45.2644 6.9076 47.4214 6.86198 49.1273 5.59776C49.2515 5.50653 49.3888 5.42182 49.5326 5.35665C52.5719 3.923 55.6504 4.40523 57.9184 5.81933C57.925 5.82584 57.9315 5.82584 57.9381 5.83236C59.6309 7.20085 61.7029 5.19373 64.6311 6.99232C64.6964 7.03142 64.7487 7.07703 64.7095 7.1422C62.997 9.69671 60.5264 12.5379 56.1079 14.8188C56.0426 14.8513 55.9641 14.8513 55.8988 14.8122L44.6108 8.18486C44.4997 8.11969 44.4736 7.97632 44.5455 7.87206Z" fill="url(#paint1_linear_693_117)"/>
<path d="M49.9182 17.4124C36.604 24.6849 26.1462 50.634 28.1593 72.0411C26.2573 84.1098 97.7956 90.2289 85.0566 56.525C78.6642 42.3514 72.0496 24.9651 58.8401 17.3863L49.9182 17.4124Z" fill="url(#paint2_linear_693_117)"/>
<path d="M49.4018 17.1517C47.8332 13.8608 46.4867 11.2411 44.4866 8.18486C44.467 8.14576 44.4997 8.10014 44.5455 8.11317C46.5782 8.73877 48.6829 8.36732 51.9902 7.43545C51.9967 7.43545 51.9967 7.42893 52.0032 7.42893C53.8726 6.22987 56.0099 6.6339 58.2387 7.58533C58.2387 7.58533 58.2453 7.58533 58.2518 7.58533C60.6571 8.06104 61.4741 8.47159 64.6768 7.05748C64.7226 7.03793 64.7618 7.08355 64.7357 7.12917C62.3042 10.1333 60.3107 13.3916 58.7224 16.8976C58.7159 16.9106 58.7159 16.9301 58.7159 16.9432C58.9969 18.6505 49.6045 19.022 49.4018 17.1517Z" fill="url(#paint3_linear_693_117)"/>
<path d="M53.6961 19.3478C52.5392 19.3478 50.4542 19.2435 49.2254 18.5397C48.2907 18.0119 48.2646 17.3472 48.3299 16.9953C48.3757 16.7346 48.6567 16.5587 48.9508 16.6043C49.245 16.6434 49.4476 16.891 49.3953 17.1517C49.3757 17.2495 49.3365 17.4775 49.8136 17.7447C50.5914 18.1878 52.2189 18.4355 54.0752 18.3964C55.8792 18.3573 57.5459 18.0445 58.3172 17.6013C58.5917 17.445 58.7224 17.2951 58.6963 17.1582C58.644 16.8976 58.8466 16.6564 59.1407 16.6108C59.4349 16.5652 59.7159 16.7412 59.7682 17.0018C59.827 17.3081 59.7943 17.8946 58.9185 18.3964C57.9577 18.9503 56.1602 19.3022 54.1079 19.3478C53.9902 19.3478 53.853 19.3478 53.6961 19.3478Z" fill="url(#paint4_linear_693_117)"/>
<path d="M44.5651 38.3111C45.4867 38.1221 46.8135 38.0179 48.0685 38.0179C50.0228 38.0179 51.2777 38.3763 52.1601 39.1713C52.8725 39.7969 53.2712 40.7614 53.2712 41.8496C53.2712 43.7134 52.0947 44.945 50.6045 45.4468V45.512C51.696 45.8899 52.3496 46.8935 52.683 48.3597C53.1471 50.3277 53.4804 51.6897 53.7745 52.2306H51.8856C51.6568 51.8331 51.3431 50.621 50.9378 48.8615C50.5195 46.913 49.7613 46.1832 48.1011 46.118H46.3821V52.2306H44.5585V38.3111H44.5651ZM46.3887 44.7365H48.258C50.2123 44.7365 51.4476 43.6678 51.4476 42.0582C51.4476 40.24 50.1273 39.445 48.1926 39.4189C47.3103 39.4189 46.6828 39.5037 46.3887 39.5884V44.7365V44.7365Z" fill="white"/>
<path d="M56.0034 45.4077C56.0034 44.1109 55.9641 43.0617 55.9184 42.1038H57.5786L57.6635 43.8437H57.7028C58.461 42.6121 59.6571 41.8757 61.3107 41.8757C63.7683 41.8757 65.6115 43.948 65.6115 47.0238C65.6115 50.6666 63.3892 52.4652 60.9905 52.4652C59.644 52.4652 58.474 51.8787 57.8662 50.8751H57.827V56.3817H56.0034V45.4077V45.4077ZM57.827 48.1056C57.827 48.3793 57.8662 48.6269 57.9119 48.8615C58.2453 50.1388 59.3629 51.0185 60.6833 51.0185C62.6376 51.0185 63.7683 49.4284 63.7683 47.102C63.7683 45.0688 62.6964 43.3354 60.7486 43.3354C59.4871 43.3354 58.3106 44.2347 57.9577 45.6162C57.8923 45.8443 57.8335 46.118 57.8335 46.3722V48.1056H57.827Z" fill="white"/>
<path d="M81.4159 80.5192C90.0795 80.5192 97.1027 73.517 97.1027 64.8793C97.1027 56.2417 90.0795 49.2395 81.4159 49.2395C72.7523 49.2395 65.7291 56.2417 65.7291 64.8793C65.7291 73.517 72.7523 80.5192 81.4159 80.5192Z" fill="white"/>
<path d="M80.8342 74.7063C80.0957 74.752 79.4094 74.4131 79.0237 73.8005L72.5987 63.5173C71.9973 62.5529 72.3242 61.2365 73.3242 60.5718C74.3242 59.9071 75.6249 60.1483 76.2262 61.1127L80.6839 68.2484L86.5599 56.3165C87.0893 55.2478 88.3574 54.7525 89.3901 55.2217C90.4228 55.6844 90.8346 56.9291 90.3117 57.9978L82.7167 73.4356C82.3702 74.1394 81.6774 74.6281 80.9127 74.7063C80.88 74.7063 80.8538 74.7063 80.8342 74.7063Z" fill="url(#paint5_linear_693_117)"/>
<defs>
<linearGradient id="paint0_linear_693_117" x1="217.698" y1="262.875" x2="81.5968" y2="117.558" gradientUnits="userSpaceOnUse">
<stop stop-color="#DAE1F2"/>
<stop offset="1" stop-color="#E9EEF7"/>
</linearGradient>
<linearGradient id="paint1_linear_693_117" x1="52.2351" y1="-17.5851" x2="54.0443" y2="1.62072" gradientUnits="userSpaceOnUse">
<stop stop-color="#4F52FF"/>
<stop offset="1" stop-color="#4042E2"/>
</linearGradient>
<linearGradient id="paint2_linear_693_117" x1="77.767" y1="6.60529" x2="42.6715" y2="120.075" gradientUnits="userSpaceOnUse">
<stop stop-color="#4F52FF"/>
<stop offset="1" stop-color="#4042E2"/>
</linearGradient>
<linearGradient id="paint3_linear_693_117" x1="57.4166" y1="2.23283" x2="52.5783" y2="26.386" gradientUnits="userSpaceOnUse">
<stop stop-color="#4F52FF"/>
<stop offset="1" stop-color="#4042E2"/>
</linearGradient>
<linearGradient id="paint4_linear_693_117" x1="54.8768" y1="12.9299" x2="48.0442" y2="48.1927" gradientUnits="userSpaceOnUse">
<stop stop-color="#FF928E"/>
<stop offset="1" stop-color="#FE7062"/>
</linearGradient>
<linearGradient id="paint5_linear_693_117" x1="78.2319" y1="32.4285" x2="80.1673" y2="49.1236" gradientUnits="userSpaceOnUse">
<stop stop-color="#F4908E"/>
<stop offset="1" stop-color="#F27064"/>
</linearGradient>
</defs>
</svg>
