<svg width="375" height="792" viewBox="0 0 375 792" fill="none" xmlns="http://www.w3.org/2000/svg">
<g clip-path="url(#clip0_27_997)">
<rect width="375" height="792" fill="white"/>
<rect x="-1" width="375" height="791" fill="#AFC7D0"/>
<circle cx="187" cy="610" r="263" fill="#799FCB" fill-opacity="0.5"/>
<path d="M335.534 455C292.277 455 257.112 419.844 257.112 376.598C257.112 333.352 292.277 298.196 335.534 298.196C378.791 298.196 413.956 333.352 413.956 376.598C413.956 419.844 378.791 455 335.534 455ZM335.534 301.213C293.983 301.213 260.13 335.014 260.13 376.598C260.13 418.182 293.94 451.983 335.534 451.983C377.085 451.983 410.938 418.182 410.938 376.598C410.938 335.014 377.129 301.213 335.534 301.213Z" fill="white"/>
<path d="M18.9151 232.781C-10.5206 232.781 -34.489 208.818 -34.489 179.39C-34.489 149.962 -10.5206 126 18.9151 126C48.3507 126 72.3191 149.962 72.3191 179.39C72.3191 208.818 48.3945 232.781 18.9151 232.781ZM18.9151 129.017C-8.85851 129.017 -31.471 151.624 -31.471 179.39C-31.471 207.157 -8.85851 229.764 18.9151 229.764C46.6887 229.764 69.3012 207.157 69.3012 179.39C69.3012 151.624 46.6887 129.017 18.9151 129.017Z" fill="white"/>
<path d="M300.894 364.442C300.894 368.334 297.744 371.482 293.852 371.482C289.959 371.482 286.81 368.334 286.81 364.442C286.81 360.55 289.959 357.402 293.852 357.402C297.744 357.402 300.894 360.55 300.894 364.442Z" fill="white"/>
</g>
<defs>
<clipPath id="clip0_27_997">
<rect width="375" height="792" fill="white"/>
</clipPath>
</defs>
</svg>
