<svg width="210" height="197" viewBox="0 0 210 197" fill="none" xmlns="http://www.w3.org/2000/svg">
<g clip-path="url(#clip0_377:2)">
<path d="M28.6902 139.41C31.6502 141.75 34.9102 143.81 38.6502 144.61C39.7202 144.84 41.7602 144.38 42.5702 145.28C43.4502 146.24 42.6602 148.64 41.7502 149.44C40.8802 150.2 39.6102 150.25 38.4602 150.13C33.4902 149.65 27.4902 146.75 26.9502 141.12C26.8502 139.89 27.1902 138.23 28.6902 139.41Z" fill="#77B24F"/>
<path opacity="0.1" d="M100.79 194.78C156.455 194.78 201.58 191.767 201.58 188.05C201.58 184.333 156.455 181.32 100.79 181.32C45.1252 181.32 0 184.333 0 188.05C0 191.767 45.1252 194.78 100.79 194.78Z" fill="#231F20"/>
<path d="M135.3 180.19C133.29 180.2 132.09 180.4 131.4 182.43C130.86 184.03 130.95 185.85 131.03 187.46C131.05 187.83 131.09 188.23 131.33 188.51C131.55 188.76 131.88 188.86 132.2 188.94C135.46 189.76 138.88 189.53 142.24 189.29C142.65 189.26 143.09 189.22 143.38 188.93C143.64 188.68 143.71 188.3 143.77 187.95C144.12 185.55 143.85 183.06 143 180.79C142.94 180.64 142.88 180.49 142.76 180.39C142.61 180.27 142.4 180.26 142.2 180.25C139.9 180.21 137.6 180.18 135.3 180.19Z" fill="#5E3729"/>
<path d="M68.3302 178.76C64.4502 178.1 60.6302 178.67 56.7502 178.59C56.2002 178.58 55.5702 178.58 55.2002 178.99C54.3102 179.99 54.9002 182.51 54.9002 183.7C54.9002 184.19 54.9202 184.71 55.2302 185.09C55.4902 185.4 55.9002 185.53 56.2902 185.63C57.6302 185.96 59.0102 186.03 60.3902 186.08C64.0602 186.22 68.2002 186.64 71.8302 185.98C72.0902 185.93 72.3502 185.87 72.5702 185.72C73.0102 185.4 73.0902 184.78 73.1102 184.23C73.1302 183.54 73.1002 182.84 72.9002 182.19C72.2702 180.19 70.2502 179.09 68.3302 178.76Z" fill="#353B4B"/>
<path d="M36.3898 178.1C40.2698 177.44 44.0898 178.01 47.9698 177.93C48.5198 177.92 49.1498 177.92 49.5198 178.33C50.4098 179.33 49.8198 181.85 49.8198 183.04C49.8198 183.53 49.7998 184.05 49.4898 184.43C49.2298 184.74 48.8198 184.87 48.4298 184.97C47.0898 185.3 45.7098 185.37 44.3298 185.42C40.6598 185.56 36.5198 185.98 32.8898 185.32C32.6298 185.27 32.3698 185.21 32.1498 185.06C31.7098 184.74 31.6298 184.12 31.6098 183.57C31.5898 182.88 31.6198 182.18 31.8198 181.53C32.4398 179.53 34.4598 178.43 36.3898 178.1Z" fill="#353B4B"/>
<path d="M108.13 186.66C108.82 186.73 109.54 186.7 110.15 186.71C114.64 186.74 119.12 186.78 123.61 186.81C123.88 186.81 124.17 186.81 124.37 186.63C124.57 186.47 124.63 186.2 124.67 185.95C125.02 184.05 125.02 182.08 124.69 180.17C124.65 179.97 124.61 179.75 124.45 179.62C124.3 179.49 124.08 179.49 123.88 179.48C121.92 179.45 119.96 179.43 118 179.4C115.32 179.36 112.59 179.4 110 180.15C108.86 180.48 107.46 181.18 106.64 182.05C105.9 182.84 105.48 184 105.78 185.04C106.12 186.18 107.08 186.55 108.13 186.66Z" fill="#5E3729"/>
<path d="M69.1699 154C68.6499 161.74 67.8499 169.49 67.3699 177.16C67.3399 177.58 67.3099 178.02 67.0899 178.39C66.6899 179.05 65.8399 179.24 65.0799 179.35C61.5899 179.87 54.3899 180.36 54.3899 180.36C54.3899 180.36 54.3599 174.88 54.2699 172.35C54.2299 171.15 54.1899 169.95 54.1399 168.75C53.8299 160.89 53.2699 153.03 52.4799 145.2C52.0899 141.36 51.6499 137.53 51.1499 133.7C50.8999 131.77 48.8099 125.19 51.0099 124.26C53.0599 123.41 55.3299 123.29 57.5499 123.28C59.7099 123.27 61.8799 123.35 64.0399 123.46C66.0899 123.57 67.9899 123.39 70.0399 123.25C70.3499 128.5 70.4199 133.77 70.2699 139.03C70.1099 144.05 69.4199 149.02 69.1699 154Z" fill="#876656"/>
<path d="M51.7998 154.45C52.3698 149.4 53.0498 144.36 53.2998 139.28C53.5098 134.93 54.0398 130.54 53.8098 126.18C53.7998 126.07 53.7998 125.95 53.7298 125.86C53.6398 125.74 53.4898 125.7 53.3398 125.67C50.5298 125.11 47.8998 124.89 45.0298 124.89C42.0598 124.91 39.0898 124.93 36.1198 124.95C35.3598 124.96 34.5298 124.98 33.9298 125.45C33.0298 126.15 33.0398 127.49 33.1198 128.63C34.2298 143.01 37.3898 157.02 37.8598 171.49C37.9098 172.89 37.7898 174.28 37.8798 175.68C37.9698 176.95 37.7498 178.31 38.8998 179.19C39.5098 179.65 40.2898 179.82 41.0498 179.95C42.7598 180.24 44.4798 180.42 46.2098 180.48C47.5998 180.53 50.3798 180.51 50.3798 180.51C50.3798 180.51 51.1498 160.21 51.7998 154.45Z" fill="#967255"/>
<path d="M114.05 28.1099C113.82 33.5999 115.55 39.5599 120.61 42.3999C121.82 43.0799 123.13 43.5399 124.47 43.9299C127.15 44.6999 129.96 45.1699 132.74 44.8699C135.51 44.5699 138.26 43.4499 140.17 41.4099C141.29 40.2199 142.09 38.7599 142.8 37.2799C144.07 34.6499 145.12 31.9099 145.93 29.0999C146.34 27.6699 146.57 25.8499 145.39 24.9399C145.09 24.7099 144.73 24.5699 144.48 24.2899C144.26 24.0499 144.16 23.7399 144.06 23.4299C143.66 22.1299 143.41 20.7599 142.68 19.6199C141.62 17.9699 139.74 17.0799 137.94 16.2799C136.26 15.5399 135.04 15.0099 133.21 15.2899C131.61 15.5399 130.03 15.9499 128.51 16.5099C126.68 17.1799 124.97 18.2499 123.06 18.6899C120.98 19.1699 117.77 18.5999 116.41 20.5499C114.92 22.7199 114.16 25.5199 114.05 28.1099Z" fill="#353B4B"/>
<path d="M67.5902 85.3899C69.2502 87.3499 71.0902 88.5099 73.4902 89.3199C75.7502 90.0799 77.4602 91.5799 79.4702 92.7699C82.7802 94.7299 87.0102 94.5699 90.6002 93.1999C94.1902 91.8299 97.2502 89.3799 100.14 86.8499C103.52 83.8999 106.83 80.7199 108.92 76.7599C110.4 73.9599 111.22 70.8699 112.04 67.8099C112.86 64.7299 113.68 61.5199 113.06 58.3899C112.37 54.9299 109.94 51.7199 110.47 48.2299C110.6 47.3599 110.92 46.5299 111.13 45.6799C112.19 41.5099 110.68 36.7899 107.39 34.0199C106.84 33.5599 106.23 33.1399 105.54 32.9399C104.83 32.7399 104.06 32.7899 103.34 32.6399C100.93 32.1699 99.3802 29.8099 97.1702 28.7399C94.6202 27.5099 91.5902 28.1599 88.9202 29.0699C85.9202 30.0899 82.8002 31.3899 80.0302 32.9299C77.5802 34.2899 75.1402 37.5099 73.8002 39.9099C72.2002 42.7699 71.5902 46.3899 73.0402 49.3299C73.5002 50.2599 74.1702 51.1399 74.2502 52.1699C74.4102 54.2199 72.3402 55.6399 70.6302 56.7899C68.6402 58.1299 66.7202 59.8599 66.1402 62.1899C65.4302 65.0399 66.9102 67.9699 68.6902 70.3199C69.0002 70.7399 69.3402 71.1599 69.4602 71.6699C69.6202 72.3799 69.3402 73.1099 68.9602 73.7299C67.8802 75.4999 66.0002 76.8099 65.4102 78.7999C64.7302 81.1199 66.0402 83.5499 67.5902 85.3899Z" fill="#5E3729"/>
<path d="M69.3001 76.8399C70.0601 77.2099 70.6101 77.4999 70.8301 77.6399C75.8301 80.8199 80.1601 84.9099 84.4301 88.9899C85.9001 90.3899 87.4001 91.8399 88.2501 93.6799C89.1001 95.5199 89.1601 97.8799 87.8501 99.4399C86.2801 101.3 83.3401 101.36 81.1101 100.38C78.8801 99.3999 77.1301 97.6099 75.2201 96.1099C71.8401 93.4699 66.9901 92.4699 63.8801 89.7099C61.5201 87.6099 59.9201 83.7899 58.6501 80.9499C58.2401 79.9999 57.9301 78.9999 57.6301 78.0099C57.1601 76.4899 56.6901 74.9699 56.2201 73.4499C56.2001 73.3799 56.1801 73.2999 56.2101 73.2299C56.2601 73.1299 56.4001 73.1099 56.5101 73.1099C59.1201 73.1099 60.9301 73.3399 63.3601 74.2599C65.3801 75.0199 67.3601 75.8999 69.3001 76.8399Z" fill="#057694"/>
<path d="M113.56 139.81C114.06 152.4 114.41 164.97 114.95 177.54C114.98 178.15 115.02 178.81 115.39 179.3C115.74 179.77 116.33 179.99 116.89 180.16C119.06 180.82 121.37 181.03 123.62 180.79C123.95 180.75 124.3 180.71 124.58 180.53C125.38 180.06 125.42 178.93 125.36 178C124.15 155.58 130.85 133.18 128.68 110.83C128.64 110.45 128.58 110.02 128.28 109.78C128.05 109.59 127.73 109.56 127.43 109.54C123.61 109.26 119.78 108.99 115.96 108.71C115.23 108.66 114.61 108.41 114.19 109.04C113.83 109.58 113.92 110.97 113.85 111.62C113.64 113.53 113.48 115.45 113.37 117.37C112.96 124.88 113.56 132.32 113.56 139.81Z" fill="#84889B"/>
<path d="M145.05 160.64C145.29 153.18 145.38 145.71 145.61 138.25C145.68 135.97 147.6 109.15 146.49 109.18C139.99 109.31 133.49 109.45 126.99 109.58C126.57 109.59 126.09 109.62 125.82 109.94C125.6 110.2 125.58 110.57 125.57 110.91C125.13 133.62 129.46 156.53 132.18 179.02C132.23 179.47 132.31 179.96 132.63 180.28C132.83 180.48 133.1 180.58 133.37 180.68C136.03 181.62 138.91 181.93 141.71 181.59C142.02 181.55 142.34 181.5 142.6 181.33C144.61 179.97 144.27 175.61 144.41 173.62C144.72 169.3 144.91 164.97 145.05 160.64Z" fill="#9193A8"/>
<path d="M29.8502 84.1498C29.8302 84.3798 29.8202 84.6098 29.8102 84.8398C29.4402 91.8798 29.5302 98.9298 29.7402 105.97C29.9302 112.25 29.2602 119.48 30.9702 125.57C31.0902 126.01 31.2602 126.47 31.6102 126.77C31.9102 127.02 32.3002 127.12 32.6802 127.2C35.0602 127.7 37.5102 127.76 39.9402 127.8C49.3702 127.94 58.7302 127.89 68.1302 127.24C72.6002 126.93 71.2702 118.73 71.1802 115.67C70.9602 108.48 69.9502 101.33 68.5502 94.2698C66.8902 85.8698 64.4802 74.3698 54.7902 72.2598C53.1802 71.9098 51.5302 71.8798 49.8802 71.8798C46.0202 71.8598 42.0902 71.9398 38.4402 73.1798C36.0902 73.9798 33.8702 75.3298 32.2202 77.2098C30.4402 79.2698 30.0202 81.5998 29.8502 84.1498Z" fill="#00ADD0"/>
<path d="M42.1601 76.9323C43.8901 79.0823 47.4901 80.5824 50.1801 79.5924C52.9301 78.5724 55.0801 75.7223 55.7101 72.9223C51.5501 71.7223 47.1201 71.9524 42.8001 72.1924C42.0001 72.2424 40.5401 72.4623 40.4001 73.4923C40.2701 74.4623 41.5801 76.2223 42.1601 76.9323Z" fill="#F79866"/>
<path d="M38.46 74.9924C39.64 79.1324 43.62 82.3224 47.92 82.5524C49.13 82.6224 50.37 82.4724 51.5 82.0124C54.67 80.7424 56.43 77.3924 57.76 74.2524" stroke="#057694" stroke-width="0.5661" stroke-miterlimit="10"/>
<path d="M28.1699 86.8299C35.1999 87.0999 42.2399 87.1899 49.2699 86.9099C56.1399 86.6299 63.3099 86.3199 69.9299 84.4399" stroke="#057694" stroke-width="0.5661" stroke-miterlimit="10"/>
<path d="M28.04 90.3597C35.07 90.6297 42.11 90.7197 49.14 90.4397C56.01 90.1597 63.18 89.8497 69.8 87.9697" stroke="#057694" stroke-width="0.5661" stroke-miterlimit="10"/>
<path d="M42.3416 73.1138H52.6216V63.7538H42.3416V73.1138Z" fill="#F79866"/>
<path d="M86.6701 183.2C89.4101 184.64 92.4501 185.38 95.5801 185.07C95.9401 185.04 96.3201 184.98 96.5701 184.73C97.0201 184.28 96.8001 183.46 96.3101 183.06C95.8201 182.66 95.1501 182.56 94.5301 182.42C93.1201 182.12 90.7501 181.36 91.0301 179.48C91.1001 179 91.3101 178.54 91.3101 178.06C91.3101 177.99 91.3001 177.91 91.2601 177.86C91.2101 177.8 91.1301 177.77 91.0501 177.75C89.2701 177.29 87.4901 176.83 85.7201 176.36C85.2001 177.86 84.6801 179.4 84.7401 180.99C84.7601 181.39 84.8201 181.81 85.0601 182.13C85.2501 182.38 85.5201 182.55 85.7901 182.71C86.0901 182.88 86.3801 183.04 86.6701 183.2Z" fill="#010101"/>
<path d="M134.61 43.5801H124.33V56.0301H134.61V43.5801Z" fill="#F89D6F"/>
<path d="M111.57 84.37C114.03 80.44 115.81 76.09 116.85 71.57C117.75 67.68 118.13 63.66 118.16 59.68C118.17 58.49 118.15 57.25 117.62 56.19C117.52 55.99 117.39 55.79 117.19 55.71C117.01 55.63 116.81 55.66 116.62 55.69C114.03 56.12 110.99 57.76 109.24 59.72C105.76 63.63 103.27 68.29 101.36 73.16C101.08 73.87 100.81 74.61 100.79 75.38C100.76 76.69 101.46 77.9 102.24 78.96C104.14 81.54 106.62 83.68 109.45 85.18C109.69 85.31 109.95 85.44 110.23 85.44C110.82 85.44 111.25 84.88 111.57 84.37Z" fill="#4CAA83"/>
<path d="M149.09 82.06C149.41 84.68 149.49 87.32 149.49 89.96C149.5 95.67 149.17 101.38 148.51 107.05C148.44 107.62 148.36 108.22 148.02 108.67C147.73 109.06 147.29 109.29 146.85 109.5C144.89 110.44 142.77 111.04 140.61 111.26C139.18 111.41 137.74 111.39 136.3 111.38C130.52 111.32 124.74 111.25 118.96 111.19C117.1 111.17 114.99 111.03 113.82 109.59C112.96 108.53 112.87 107.05 112.83 105.68C112.6 98.89 112.37 92.11 112.15 85.32C111.94 79.11 111.73 72.9 112.09 66.7C112.24 64.04 112.52 61.31 113.53 58.82C114.48 56.47 115.69 55.8 118.06 55.1C119.75 54.6 121.53 54.46 123.29 54.33C126.58 54.08 129.88 53.83 133.18 53.75C134.72 53.72 136.27 53.72 137.8 53.91C140.47 54.24 143.12 55.23 145.23 56.91C147.44 58.66 147.81 61.23 148 63.9C148.43 69.93 148.35 76.09 149.09 82.06Z" fill="#5BBE95"/>
<path d="M111.6 77.5401C112.62 78.6201 113.32 79.7101 114.21 80.8801C115.33 82.3601 115.96 84.1401 116.57 85.8901C116.63 86.0701 116.7 86.2701 116.63 86.4601C116.32 87.3401 113.44 88.4901 112.66 88.9001C110.9 89.8401 109.06 90.6201 107.16 91.2301C105.22 85.8801 103.26 80.4101 103.19 74.7301C103.16 72.6801 104.46 70.2701 106.46 72.2001C108.24 73.9101 109.91 75.7501 111.6 77.5401Z" fill="#DC6B3F"/>
<path d="M107.07 86.6103C106.76 88.4103 106.11 90.0703 105.61 91.8103C105.26 93.0403 105.13 94.2703 104.75 95.5103C104.5 96.3103 102.78 105.49 103.57 105.48C96.5602 105.54 89.5402 105.32 82.5502 104.82C82.7202 100.72 82.8302 96.5503 81.7302 92.5903C81.2502 90.8703 80.5502 89.2103 80.0702 87.4903C79.0202 83.7003 79.0802 79.7003 79.1502 75.7603C79.2202 72.0603 80.7902 70.5803 84.2202 69.6003C87.4702 68.6803 90.8902 68.4303 94.2602 68.4503C97.6302 68.4703 101.05 69.0903 104.02 70.6903C104.64 71.0203 105.25 71.4103 105.66 71.9803C106.11 72.6103 106.26 73.4103 106.4 74.1703C107.13 78.2903 107.78 82.5003 107.07 86.6103Z" fill="#EE7C3C"/>
<path d="M92.5701 84.8139C92.6301 84.8539 92.6801 84.8839 92.7401 84.9239C93.8601 85.5939 94.9701 84.6239 95.6701 83.6939C96.7001 82.3439 97.7401 80.9739 98.5401 79.4739C99.9901 76.7739 102.21 69.9639 99.0601 67.8739C97.3101 66.7139 95.4201 65.7039 93.3601 65.2539C91.3101 64.7939 89.0701 64.9239 87.2301 65.9339C85.7101 66.7639 84.5501 68.1839 84.1001 69.8539C83.6301 71.5939 84.4501 73.1139 85.1901 74.6839C86.4001 77.2839 88.0201 79.6539 89.8801 81.8239C90.6401 82.7239 91.5701 84.1239 92.5701 84.8139Z" fill="white"/>
<path d="M92.8904 81.4041C93.0504 81.5541 93.2404 81.7041 93.4604 81.6941C93.6504 81.6841 93.8004 81.5541 93.9404 81.4341C96.6804 78.9741 98.3904 75.4041 98.6004 71.7341C98.6204 71.3941 98.6204 71.0341 98.4804 70.7141C98.1804 70.0541 97.3704 69.8441 96.6504 69.7241C94.5404 69.3741 92.4104 69.2041 90.2704 69.2041C89.4104 69.2041 88.5304 69.2441 87.7304 69.5641C84.8104 70.7241 86.9804 73.6341 88.0704 75.4641C89.3704 77.6641 91.0004 79.6641 92.8904 81.4041Z" fill="#F89D6F"/>
<path d="M92.7399 64.6198C99.2679 64.6198 104.56 58.0608 104.56 49.9698C104.56 41.8789 99.2679 35.3198 92.7399 35.3198C86.2119 35.3198 80.9199 41.8789 80.9199 49.9698C80.9199 58.0608 86.2119 64.6198 92.7399 64.6198Z" fill="#FBC49B"/>
<path d="M95.77 64H89V70.77H95.77V64Z" fill="#F89D6F"/>
<path d="M138.976 34.3358C139.449 25.8828 134.549 18.7345 128.032 18.3696C121.514 18.0047 115.847 24.5614 115.374 33.0144C114.9 41.4673 119.8 48.6156 126.318 48.9806C132.835 49.3455 138.502 42.7888 138.976 34.3358Z" fill="#FBC49B"/>
<path d="M92.8698 178.15C93.4398 179.61 93.9498 181.09 94.3898 182.59C94.5698 183.19 94.7198 183.88 94.3698 184.4C94.0898 184.82 93.5698 185 93.0798 185.13C88.8598 186.32 84.4698 186.81 80.0898 186.85C79.5898 186.86 79.0398 186.84 78.6698 186.51C77.3598 185.38 80.6498 183.55 81.3598 183.2C82.6598 182.55 84.0698 182.15 85.4598 181.75C86.7198 181.39 88.9698 181.54 87.8798 179.42C87.7598 179.2 87.5998 178.97 87.6198 178.72C87.6698 177.94 92.1898 178.11 92.8698 178.15Z" fill="#2E332F"/>
<path d="M29.7702 78.0998C29.7402 78.1398 29.7102 78.1698 29.6802 78.1998C22.8302 86.0198 17.4802 95.9598 15.5302 106.22C15.1702 108.11 15.1102 110.04 15.0702 111.96C15.0202 114.64 15.1602 117.63 17.0802 119.5C17.1802 119.59 17.2802 119.69 17.4202 119.71C17.6402 119.75 17.8302 119.59 17.9902 119.43C22.5302 115.16 27.2202 110.36 29.7202 104.45C31.2502 100.84 33.0502 97.3398 34.4502 93.6798C35.9302 89.8098 36.7502 85.7798 37.1702 81.6598C37.3402 80.0298 38.3502 75.1398 36.0602 74.4798C35.6302 74.3598 35.1702 74.4598 34.7502 74.5998C32.6802 75.2798 31.2102 76.4798 29.7702 78.0998Z" fill="#057694"/>
<path d="M107.78 127.86C107.73 129.19 107.64 130.53 107.5 131.85C106.67 139.64 103.77 146.99 101.12 154.31C98.4001 161.83 95.8201 169.41 93.2001 176.96C93.2001 177.44 92.8501 178.55 92.5001 178.89C91.8501 179.5 91.4201 178.92 90.8401 178.62C89.8501 178.11 88.5101 178.09 87.4201 177.9C86.1501 177.68 84.8701 177.45 83.6001 177.23C85.5101 171.76 87.2801 166.23 88.9001 160.67C89.2401 159.49 89.6901 158.36 90.0601 157.21C90.4801 155.9 90.5601 154.36 90.7201 153C91.0501 150.23 91.2301 147.44 91.5501 144.67C92.1901 139.29 91.6201 133.9 92.1601 128.51C92.5101 125.01 93.3001 121.55 93.4801 118.04C93.6901 113.93 93.0601 109.74 93.9501 105.73C94.0501 105.28 94.1801 104.8 94.5101 104.47C94.8601 104.11 95.3801 103.98 95.8801 103.89C97.6901 103.56 101.46 103.21 102.79 104.68C103.54 105.52 103.99 107.17 104.42 108.2C107.01 114.4 108.01 121.15 107.78 127.86Z" fill="#48729F"/>
<path d="M93.88 163.92C93.84 159.15 93.8 154.38 93.78 149.61C93.76 141.79 93.81 133.97 94.04 126.15C94.16 122.24 94.32 118.34 94.55 114.44C94.66 112.49 94.79 110.54 94.94 108.59C95.05 107.13 95.4 105.36 95.2 103.92C91.62 103.53 87.83 103.8 84.23 103.75C83.92 103.75 83.59 103.74 83.31 103.87C83.07 103.98 82.88 104.17 82.7 104.36C79.21 107.99 76.15 112.73 75.52 117.82C74.13 128.94 76.82 139.96 79.67 150.63C81.11 156.02 82.61 161.4 83.71 166.87C84.01 168.37 86.68 179.92 86.68 179.92L94.48 179.91C94.48 179.91 93.93 169.26 93.88 163.92Z" fill="#5078AB"/>
<path d="M83.28 47.2702C84.88 46.0902 86.68 45.1902 88.51 44.4202C91.27 43.2602 94.14 42.3802 96.85 41.1202C98.47 40.3702 100.21 39.1902 100.33 37.4102C100.4 36.2202 99.68 35.1002 98.71 34.4002C97.75 33.7002 96.58 33.3602 95.43 33.0602C92.82 32.3902 89.97 31.9302 87.48 32.9802C86.24 33.5102 85.17 34.3802 84.21 35.3202C83.17 36.3302 82.23 37.4402 81.39 38.6302C80.59 39.7702 79.88 40.9802 79.41 42.2902C78.37 45.2002 78.53 48.3802 78.72 51.4602C78.76 52.0602 78.9 52.7902 79.47 52.9502C80.42 53.2102 80.42 50.8302 80.71 50.2302C81.3 49.0102 82.19 48.0702 83.28 47.2702Z" fill="#5E3729"/>
<path d="M61.4799 49.5298C61.7099 55.0198 59.9799 60.9798 54.9199 63.8198C53.7099 64.4998 52.3999 64.9598 51.0699 65.3498C48.3899 66.1198 45.5799 66.5898 42.7999 66.2898C40.0299 65.9898 37.2799 64.8698 35.3699 62.8298C34.2499 61.6398 33.4499 60.1798 32.7399 58.6998C31.4699 56.0698 30.4199 53.3298 29.6099 50.5198C29.1999 49.0898 28.9699 47.2698 30.1499 46.3598C30.4499 46.1298 30.8099 45.9898 31.0599 45.7098C31.2799 45.4698 31.3799 45.1598 31.4799 44.8498C31.8799 43.5498 32.1299 42.1798 32.8599 41.0398C33.9199 39.3898 35.7999 38.4998 37.5999 37.6998C39.2799 36.9598 40.4999 36.4298 42.3299 36.7098C43.9299 36.9598 45.5099 37.3698 47.0299 37.9298C48.8599 38.5998 50.5699 39.6698 52.4799 40.1098C54.5599 40.5898 57.7699 40.0198 59.1299 41.9698C60.6099 44.1298 61.3699 46.9398 61.4799 49.5298Z" fill="#DDCACC"/>
<path d="M18.0702 188.03C19.3602 188.5 23.3302 189.56 24.3002 188.18C25.2402 186.84 24.3202 185.51 23.1302 184.81C22.0902 184.21 20.8802 183.95 19.6902 183.88C18.9202 183.83 18.1102 183.87 17.4302 184.21C15.3602 185.26 16.2902 187.38 18.0702 188.03Z" fill="#1C995D"/>
<path d="M26.7401 188.18C28.0601 188.55 32.1001 189.3 32.9701 187.84C33.8101 186.43 32.7801 185.17 31.5401 184.58C30.4601 184.06 29.2301 183.9 28.0301 183.93C27.2601 183.94 26.4601 184.04 25.8001 184.44C23.8201 185.63 24.9201 187.67 26.7401 188.18Z" fill="#1C995D"/>
<path d="M78.7201 56.5098C78.0501 55.8298 77.5401 54.9498 77.4501 53.9998C77.2901 52.3398 78.5601 50.6598 80.2101 50.3698C80.7101 50.2798 81.2901 50.3398 81.6301 50.7198C81.8301 50.9498 81.9201 51.2498 82.0001 51.5498C82.2901 52.5998 82.5701 53.6398 82.8601 54.6898C83.1401 55.7098 83.9801 57.6998 82.8101 58.2198C81.5001 58.7998 79.5501 57.3498 78.7201 56.5098Z" fill="#FBC49B"/>
<path d="M153.31 51.0998C153.21 50.0598 153.14 48.9998 153.4 47.9798C153.65 46.9698 154.27 45.9998 155.21 45.5498C155.17 45.5698 155.41 43.2098 155.5 42.9598C155.8 42.0798 156.28 41.2498 156.91 40.5598C157.53 39.8698 158.29 39.2998 159.14 38.9198C159.99 38.5498 161.05 38.6898 161.7 38.0298C162.9 36.7998 165.26 36.8598 166.82 37.2598C166.51 35.2698 167.21 33.1398 168.65 31.7398C170.98 29.4598 174.5 29.4898 177.21 30.9298C179.75 32.2798 181.98 34.4298 182.89 37.1598C183.79 39.8898 183.13 43.2298 180.88 45.0198C182.76 45.9798 183.36 48.3398 183.76 50.4098C184.09 52.1598 184.43 53.9498 184.22 55.7198C183.9 58.4098 182.35 60.7798 180.85 63.0398C180.46 63.6198 180.06 64.2198 179.46 64.5698C178.89 64.8998 178.22 64.9698 177.57 64.9998C170.65 65.3298 164.09 62.2298 157.86 59.2098C156.38 58.4898 155.3 58.0198 154.6 56.4798C153.81 54.7998 153.49 52.9398 153.31 51.0998Z" fill="#CFB3B4"/>
<path d="M126.16 110.95C126.26 95.4599 125.99 79.9199 127.11 64.4599C127.27 62.2799 127.41 60.0999 127.48 57.9199" stroke="#0A8672" stroke-width="0.5661" stroke-miterlimit="10"/>
<path d="M140.28 37.3399C142.04 31.9199 141.83 26.8199 141.31 21.2499C141.17 19.7099 140.34 18.8499 139.26 17.7399C138.44 16.8899 137.59 16.0199 136.52 15.5199C133.47 14.0899 129.79 16.0699 126.53 15.1999C125.23 14.8499 124.08 14.0699 122.81 13.5999C119.94 12.5499 116.47 13.3699 114.37 15.5999C114.03 15.9599 113.72 16.3599 113.54 16.8199C113.15 17.7999 113.37 18.9299 113.82 19.8799C115.01 22.3999 117.03 22.9199 119.35 23.8699C121.22 24.6299 123.43 24.7599 125.42 24.7799C127.66 24.8099 129.77 24.3399 131.88 25.4299C132.63 25.8199 133.3 26.3599 134.03 26.7899C134.77 27.2299 135.6 27.5699 136.19 28.1899C137 29.0499 137.23 30.2999 137.44 31.4599C137.82 33.4999 138.29 35.5199 138.85 37.5099C138.93 37.7799 139.04 38.0899 139.3 38.1899C139.76 38.3599 140.13 37.7999 140.28 37.3399Z" fill="#353B4B"/>
<path d="M152.79 61.8202C157.47 65.4402 162.2 69.6302 164.84 74.8902C166 77.2002 165.97 79.2202 164.82 81.5102C163.87 83.4202 162.15 85.0602 159.95 85.2802C158.44 85.4302 157 84.7202 155.66 84.0102C152.35 82.2502 149.06 80.3302 146.43 77.6702C141.21 72.4002 140.01 62.8402 141.5 55.8602C141.54 55.6702 141.59 55.4802 141.73 55.3502C141.99 55.1002 142.42 55.2202 142.75 55.3602C145.5 56.5302 148 58.2202 150.39 60.0002C151.18 60.5902 151.98 61.2002 152.79 61.8202Z" fill="#5BBE95"/>
<path d="M171.6 70.52H162.54V78.47H171.6V70.52Z" fill="#F89D6F"/>
<path d="M142.06 35.0802C142.79 35.6002 143.36 36.5802 143.37 37.4802C143.38 38.1902 143.04 38.8702 142.61 39.4402C141.64 40.6902 140.57 41.5102 139 41.7502C137.92 41.9202 136.35 41.8202 136.11 40.4802C135.9 39.2802 136.88 37.5702 137.57 36.6502C138.6 35.2702 140.36 33.8702 142.06 35.0802Z" fill="#FBC49B"/>
<path d="M36.56 55.74C37.03 64.19 42.7 70.75 49.22 70.39C55.74 70.03 60.64 62.88 60.16 54.42C59.69 45.97 54.02 39.41 47.5 39.77C40.99 40.14 36.09 47.29 36.56 55.74Z" fill="#F9B789"/>
<path d="M35.2598 58.7498C33.4998 53.3298 33.7098 48.2298 34.2298 42.6598C34.3698 41.1198 35.1998 40.2598 36.2798 39.1498C37.0998 38.2998 37.9498 37.4298 39.0198 36.9298C42.0698 35.4998 45.7498 37.4798 49.0098 36.6098C51.6198 35.9098 53.9198 34.3498 56.7798 35.1698C57.7198 35.4398 58.6998 35.7998 59.2998 36.5798C60.2898 37.8598 59.8098 39.8298 58.6498 40.9598C57.4898 42.0798 55.8498 42.5398 54.2598 42.8598C51.1998 43.4598 48.0598 43.6698 44.9398 43.4798C43.8298 43.4098 42.6398 43.3098 41.6898 43.8898C40.9298 44.3598 40.4698 45.1898 40.1498 46.0198C39.3298 48.1598 39.2898 50.5298 38.4098 52.6398C37.5898 54.6198 37.2698 56.8298 36.6798 58.9298C36.5998 59.1998 36.4898 59.5098 36.2298 59.6098C35.7698 59.7698 35.4098 59.2098 35.2598 58.7498Z" fill="#DDCACC"/>
<path d="M33.48 56.4998C33.03 56.8198 32.71 57.2998 32.46 57.7898C32.31 58.0798 32.19 58.3998 32.15 58.7198C32.05 59.5998 32.6 60.4098 33.15 61.0998C33.54 61.5898 33.96 62.0798 34.48 62.4398C35.68 63.2498 39.07 63.9398 39.42 61.8998C39.63 60.6998 38.65 58.9898 37.96 58.0698C36.94 56.6798 35.17 55.2898 33.48 56.4998Z" fill="#F9B789"/>
<path d="M178.621 58.9247C179.711 50.5284 175.346 43.0408 168.872 42.2007C162.399 41.3605 156.267 47.486 155.178 55.8822C154.088 64.2785 158.453 71.766 164.926 72.6062C171.4 73.4463 177.532 67.3209 178.621 58.9247Z" fill="#FBC49B"/>
<path d="M172.08 51.3401C171.06 51.3001 170.04 51.2201 169.03 51.1601L165.99 50.9801L162.95 50.8101C161.94 50.7501 160.92 50.7101 159.9 50.6301C160.91 50.4801 161.93 50.4101 162.96 50.3701C163.98 50.3301 165.01 50.3601 166.03 50.4101C167.05 50.4801 168.07 50.5701 169.08 50.7301C170.09 50.8801 171.09 51.0701 172.08 51.3401Z" fill="#E69B7F"/>
<path d="M170.38 49.4002C169.64 49.3602 168.91 49.2802 168.17 49.2202L165.98 49.0402L163.79 48.8702C163.06 48.8102 162.33 48.7702 161.58 48.6902C162.31 48.5402 163.05 48.4702 163.79 48.4302C164.53 48.3902 165.28 48.4202 166.02 48.4702C166.76 48.5402 167.5 48.6302 168.22 48.7902C168.97 48.9502 169.69 49.1402 170.38 49.4002Z" fill="#E69B7F"/>
<path d="M16.4799 184.71C17.8099 184.57 19.1299 184.43 20.4599 184.3C22.9999 178.45 24.0499 171.97 23.4999 165.61C23.4699 165.25 23.4199 164.87 23.1999 164.58C22.8899 164.19 22.3499 164.09 21.8499 164.03C20.4299 163.84 17.6999 163.46 16.7299 164.92C15.8799 166.21 16.4699 169.12 16.4699 170.6C16.4799 171.8 16.6999 184.69 16.4799 184.71Z" fill="#9193A8"/>
<path d="M168.15 187.02C167.57 186.64 167.11 186.15 166.95 185.47C166.88 185.18 166.88 184.87 166.88 184.57C166.89 182.12 167.75 179.57 170.53 181.4C173.43 183.31 176.88 184.63 179.39 187.03C182.29 189.79 177.89 190 175.97 189.74C174.05 189.49 172.22 188.82 170.45 188.08C169.76 187.8 168.87 187.49 168.15 187.02Z" fill="#37679E"/>
<path d="M24.8998 185C26.2098 184.76 27.5198 184.52 28.8298 184.27C30.8998 178.24 31.4398 171.69 30.3898 165.4C30.3298 165.04 30.2598 164.67 30.0098 164.4C29.6698 164.03 29.1198 163.98 28.6198 163.95C27.1898 163.87 24.4398 163.7 23.5898 165.24C22.8498 166.59 23.6598 169.45 23.7798 170.92C23.8798 172.12 25.1098 184.96 24.8998 185Z" fill="#9193A8"/>
<path d="M124.16 53.52L127.46 58.33L134.6 52.98L124.16 53.52Z" fill="#F89D6F"/>
<path d="M11.3999 163.84C11.1899 164.51 11.8099 165.14 12.4099 165.52C13.0099 165.9 13.7099 166.31 13.7999 167.01C13.5399 167.23 13.1499 167.15 12.8299 167.01C12.0199 166.67 11.5499 166.66 11.4899 167.6C11.4399 168.44 11.3799 169.29 11.3299 170.13C11.3099 170.45 11.2499 170.83 10.9599 170.96C10.7699 171.04 10.5499 170.99 10.3799 170.87C10.2099 170.75 10.0899 170.58 9.96994 170.42C9.95994 170.76 9.87994 171.19 9.54994 171.28C9.34994 171.34 9.12994 171.23 8.99994 171.06C8.86994 170.9 8.79994 170.69 8.73994 170.49C8.48994 170.59 8.17994 170.54 7.97994 170.36C7.77994 170.18 7.68994 169.88 7.75994 169.62C7.56994 169.71 7.32994 169.57 7.24994 169.38C7.15994 169.19 7.18994 168.97 7.21994 168.76C7.53994 166.8 8.88994 165.34 9.49994 163.48" fill="#FBC49B"/>
<path d="M163.16 186.12C163.74 185.74 164.2 185.25 164.36 184.57C164.43 184.28 164.43 183.97 164.43 183.67C164.42 181.22 163.56 178.67 160.78 180.5C157.88 182.41 154.43 183.73 151.92 186.13C149.02 188.89 153.42 189.1 155.34 188.84C157.26 188.59 159.09 187.92 160.86 187.18C161.54 186.9 162.44 186.59 163.16 186.12Z" fill="#37679E"/>
<path d="M13.6602 151.6C13.7102 148.13 13.5302 143 16.1502 140.58C18.7302 138.19 22.3802 137.18 25.6702 138.12C26.9402 138.48 28.1502 139.11 29.1402 140.05C31.5502 142.35 32.2802 146.06 32.7302 149.52C33.4302 154.8 33.8202 160.12 33.9002 165.45C33.9102 165.86 24.2402 166.31 23.3402 166.33C20.2202 166.41 17.0902 166.43 13.9802 166.41C13.6202 161.5 13.5902 156.54 13.6602 151.6Z" fill="#87C763"/>
<path d="M176.89 159.62C176.73 161.04 175.98 162.51 175.59 163.91C175.09 165.73 174.58 167.54 174.08 169.36C173.02 173.17 172 176.83 171.61 180.77C171.43 182.58 172.9 182.38 173.84 183.59C174.47 184.4 174.15 185.47 173.14 185.69C172.01 185.94 170.81 185.51 169.89 184.81C169.19 184.28 168.33 183.56 167.83 182.85C167.2 181.96 167.53 180.88 167.45 179.86C166.88 172.42 166.04 165.06 165 157.68" fill="#F89D6F"/>
<path d="M14.6401 141.89C15.2001 141.18 15.8301 140.48 16.6701 140.13C16.8801 140.04 17.1301 139.98 17.3201 140.11C17.4501 140.2 17.5201 140.36 17.5701 140.51C18.3201 142.62 18.5501 144.87 18.4501 147.09C18.4101 147.96 18.4601 148.77 18.1201 149.56C17.6901 150.56 16.9701 151.49 16.4701 152.46C14.4601 156.35 13.0901 160.56 12.4101 164.89C10.9301 165 9.45008 165.02 7.97008 164.95C7.19008 164.91 9.45008 153.77 9.70008 152.83C10.7101 148.95 12.1601 145.07 14.6401 141.89Z" fill="#87C763"/>
<path d="M154.42 158.73C154.58 160.15 155.33 161.62 155.72 163.02C156.22 164.84 156.73 166.65 157.23 168.47C158.29 172.28 159.31 175.94 159.7 179.88C159.88 181.69 158.41 181.49 157.47 182.7C156.84 183.51 157.16 184.58 158.17 184.8C159.3 185.05 160.5 184.62 161.42 183.92C162.12 183.39 162.98 182.67 163.48 181.96C164.11 181.07 163.78 179.99 163.86 178.97C164.43 171.53 165.27 164.17 166.31 156.79" fill="#F89D6F"/>
<path d="M127.51 58.0199L134.61 51.8799L138.47 54.0199L130.7 61.8999L127.51 58.0199Z" fill="#0A8672"/>
<path d="M124.33 52.6499L127.51 58.0199L123.76 61.8999L119.98 54.6799L124.33 52.6499Z" fill="#0A8672"/>
<path d="M163.95 45.5C165.04 49.03 168.57 50.02 171.95 49.6C171.84 50.76 172.46 51.91 173.32 52.69C174.19 53.48 175.28 53.96 176.36 54.4C176.25 56.05 176.13 57.69 176.02 59.34C175.94 60.46 175.87 61.63 176.26 62.68C176.51 63.36 177.32 64.58 178.11 64.29C178.79 64.04 179.57 62.38 179.9 61.76C180.9 59.88 181.43 57.73 181.36 55.6C181.27 52.78 180.21 50.1 179.17 47.48C178.65 46.18 178.13 44.87 177.28 43.76C175.35 41.24 172.1 40.17 169.01 39.46C165.05 38.53 162.84 41.89 163.95 45.5Z" fill="#CFB3B4"/>
<path d="M81.5799 93.03C82.1499 92.22 82.8099 91.46 83.5599 90.77C85.7499 88.72 88.4299 87.33 91.1399 86.1C94.0599 84.76 97.0999 83.69 100.22 82.91C101.68 82.54 103.11 82 104.56 81.56C107.51 80.66 110.58 79.94 113.65 80.27C116.71 80.59 119.79 82.12 121.31 84.8C122.38 86.7 122.58 89 122.19 91.14C121.8 93.28 120.86 95.29 119.75 97.17C116.51 102.71 111.65 107.48 105.82 110.24C103.88 111.15 101.83 111.81 99.7399 112.26C95.5199 113.17 90.6699 113.69 86.4499 112.56C83.8599 111.86 81.5599 109.44 80.3799 107.11C78.0199 102.44 78.6899 97.1 81.5799 93.03Z" fill="#DADCEF"/>
<path d="M108.27 82.14C110.95 81.54 114.6 82.38 116.09 84.9C117.54 87.35 117.01 90.48 115.28 92.68C112.47 96.24 106.25 96.53 103.26 93.01C99.79 88.9 103.77 83.16 108.27 82.14Z" fill="#FBC49B"/>
<path d="M25.7399 139.39C25.4599 140 24.9499 140.46 24.0099 140.58C19.6099 141.16 20.8599 135.59 20.8599 133.12H26.0699C26.0699 133.12 26.0699 136.36 26.0699 136.58C26.0699 137.5 26.1099 138.58 25.7399 139.39Z" fill="#F89D6F"/>
<path d="M186.27 116.99C187.42 121.56 187.13 126.37 186.49 131.04C185.59 137.55 184.01 143.94 182.43 150.31C181.48 154.13 180.54 157.96 179.59 161.78C171.08 161.76 162.57 161.74 154.06 161.72C150.01 148.57 146.78 134.73 148.85 121.12C149.56 116.43 150.9 111.85 152.29 107.31C153.44 103.55 154.28 100.18 153.76 96.2403C153.26 92.4303 152.51 88.6203 152.69 84.7603C152.82 81.9603 154.14 80.6503 156.32 79.0403C157.76 77.9803 159.34 77.0903 161 76.4203C162.96 75.6303 164.55 75.7003 166.63 75.7203C168.94 75.7403 171.25 75.9503 173.49 76.5103C177.19 77.4303 181.04 79.2303 181.89 83.2903C182.18 84.6503 182.16 86.0503 182.14 87.4403C182.14 92.5803 181.46 97.9703 181.95 103.08C182.43 107.98 185.09 112.29 186.27 116.99Z" fill="#E76984"/>
<path d="M163.125 85.2776C163.835 85.6276 164.605 85.8176 165.385 85.9276C166.935 86.1476 168.565 86.0476 170.015 85.4476C171.465 84.8376 172.715 83.6976 173.275 82.2276C173.735 81.0076 173.695 79.6676 173.645 78.3576C173.635 77.9876 173.615 77.5976 173.425 77.2776C173.285 77.0376 173.065 76.8476 172.835 76.6876C169.825 74.5476 164.225 74.2476 161.605 76.9276C159.015 79.5676 159.585 83.5376 163.125 85.2776Z" fill="#F89D6F"/>
<path d="M157.76 69.1302C157.67 72.9202 158.21 76.7002 159.19 80.3602C160.13 83.8402 162.03 92.5202 167.32 91.1602C171.11 90.1802 173 84.2102 173.86 80.9302C175.03 76.4602 175.15 71.7502 174.6 67.1802" stroke="#EFA435" stroke-width="0.5661" stroke-miterlimit="10"/>
<path d="M162.82 125.6C164.1 125.97 165.77 126.16 166.52 125.18C166.68 124.97 166.77 124.7 166.85 124.45C166.94 124.17 167.02 123.9 167.11 123.62C167.18 123.4 167.25 123.16 167.23 122.93C167.12 121.55 164.19 121.43 163.25 121.45C162.18 121.48 160.89 121.65 160.08 122.42C158.72 123.7 160.47 124.7 161.69 125.21C161.99 125.34 162.38 125.48 162.82 125.6Z" fill="#614F40"/>
<path d="M174.99 121.59C174.26 121.25 173.53 120.88 172.95 120.33C171.84 119.29 172.25 117.92 173.77 117.7C175.29 117.48 177.41 118.34 178.85 118.77C178.63 118.15 178.55 117.47 178.61 116.81C178.63 116.58 178.68 116.33 178.86 116.18C179.16 115.93 179.65 116.13 179.87 116.45C180.09 116.77 180.15 117.18 180.29 117.54C180.57 118.25 181.2 118.82 181.94 119.02C182.2 119.09 182.47 119.12 182.7 119.25C182.89 119.35 183.04 119.52 183.17 119.68C183.63 120.25 183.98 120.92 184.19 121.63C184.26 121.88 184.31 122.17 184.17 122.39C183.98 122.68 183.57 122.69 183.23 122.67C182.43 122.63 181.59 122.5 180.79 122.55C180.3 122.58 179.87 122.79 179.39 122.84C177.94 122.97 176.28 122.18 174.99 121.59Z" fill="#FBC49B"/>
<path d="M170.65 132.18C171.98 132.1 173.62 131.74 174 130.56C174.08 130.3 174.07 130.03 174.07 129.76C174.06 129.47 174.05 129.18 174.04 128.89C174.03 128.66 174.02 128.41 173.93 128.2C173.37 126.93 170.57 127.79 169.69 128.12C168.69 128.5 167.53 129.09 167.02 130.08C166.16 131.74 168.15 132.11 169.47 132.18C169.78 132.2 170.2 132.21 170.65 132.18Z" fill="#614F40"/>
<path d="M69.5101 104.34C70.0601 104.9 70.7801 105.26 71.4501 105.71C74.4501 107.73 77.5001 109.71 80.6901 111.42C82.2201 112.24 91.3901 117.36 91.7801 114.03C91.8501 113.44 91.5801 112.86 91.1901 112.42C90.8001 111.98 90.3001 111.65 89.8001 111.33C87.7201 109.95 85.5801 108.49 83.8601 106.67C82.1601 104.87 80.4501 103.08 78.5701 101.46C78.0301 101 77.0801 100.33 76.8501 99.6098C76.5801 98.7398 76.9701 97.3698 77.1401 96.5098C77.5901 94.2798 78.4001 92.1398 79.0201 89.9598C79.1001 89.6898 79.1701 89.4098 79.1201 89.1298C79.0601 88.8398 78.8701 88.5998 78.6801 88.3898C77.8301 87.4698 76.8201 87.1098 75.7501 86.5698C74.9401 86.1698 73.8401 85.1898 72.8601 85.4898C71.9901 85.7598 71.2801 87.6498 70.9701 88.3998C69.9201 90.9098 69.9001 93.3298 69.4101 95.9298C69.1601 97.2798 69.0101 98.6398 68.8201 100.01C68.6601 101.21 68.3901 102.49 68.9601 103.63C69.1301 103.89 69.3101 104.13 69.5101 104.34Z" fill="#FBC49B"/>
<path d="M168.22 119.36C169.25 119.54 170.17 119.39 171.18 119.43C172.4 119.48 173.47 119.92 174.65 119.3C176.31 118.42 177.06 116.1 175.73 114.61C174.42 113.14 172.15 112.74 170.32 112.33C166.94 111.58 163.36 110.66 160.55 108.54C157.54 106.27 156.16 102.73 155.36 99.1702C154 93.1702 155 85.5502 155.79 79.4502C152.02 80.8302 148.93 84.5202 147.29 88.0702C145.17 92.6602 144.59 98.0902 145.93 102.99C147.09 107.22 150.01 111.1 153.41 113.8C154.88 114.97 156.51 115.98 158.23 116.75C161.38 118.16 164.82 118.77 168.22 119.36Z" fill="#D85676"/>
<path d="M169.83 125.16C169.28 121.5 170.13 117.59 173 115.09C173.19 114.93 173.39 114.77 173.63 114.73C173.88 114.69 174.13 114.8 174.37 114.9C176.12 115.67 177.82 116.53 179.49 117.47C177.38 118.73 175.11 120.17 174.31 122.5C173.96 123.53 173.94 124.62 173.94 125.7C173.94 126.31 174.41 127.9 173.81 128.26C173.52 128.43 173.16 128.42 172.82 128.4C172.53 128.38 172.23 128.36 171.94 128.33C171.63 128.3 171.31 128.25 171.03 128.1C170.62 127.88 170.36 127.46 170.23 127.01C170.06 126.41 169.92 125.79 169.83 125.16Z" fill="#587A91"/>
<path d="M76.0799 74.2802C75.8199 74.5802 75.5799 74.9002 75.3499 75.2202C73.9399 77.2002 73.0199 79.4702 72.1099 81.7202C71.4599 83.3102 70.8199 84.9002 70.1699 86.5002C70.0099 86.8802 69.4199 88.5502 69.4199 88.5502L79.2399 91.6402C79.2399 91.6402 82.0199 84.6002 82.0699 81.4002C82.0899 79.9902 81.9299 78.5802 81.7699 77.1702C81.5299 75.0902 81.2899 73.0102 81.0499 70.9302C79.0899 71.4502 77.3999 72.7202 76.0799 74.2802Z" fill="#EE7C3C"/>
<path d="M189.55 122.96C192.09 122.06 193.85 119.71 194.95 117.25C196.11 114.67 196.59 111.76 196.52 108.94C196.31 99.9198 191.43 92.7898 186.07 85.9298C184.24 83.5798 182.33 81.1698 179.74 79.6998C179.57 79.5998 179.37 79.5098 179.18 79.5498C179 79.5898 178.87 79.7398 178.76 79.8798C177.13 81.8698 176.57 84.3298 176.62 86.8898C176.66 89.2598 177.03 91.6398 177.97 93.8198C179.11 96.4698 181.01 98.6598 182.9 100.8C184.75 102.89 186.87 104.75 187.89 107.43C188.66 109.46 188.73 111.82 187.71 113.74C187 115.07 185.78 116.13 184.36 116.64C183.83 116.83 183.28 116.95 182.79 117.21C182.3 117.48 181.86 117.94 181.82 118.49C181.8 118.8 181.9 119.11 182 119.4C182.31 120.32 182.65 121.24 183.24 122.02C184.66 123.91 187.53 123.68 189.55 122.96Z" fill="#D85676"/>
<path d="M164.37 118.71C165.06 115.08 167.16 111.67 170.7 110.26C170.93 110.17 171.18 110.08 171.42 110.13C171.67 110.18 171.87 110.36 172.06 110.54C173.45 111.85 174.78 113.22 176.04 114.66C173.63 115.15 171.01 115.76 169.49 117.69C168.81 118.55 168.44 119.57 168.08 120.58C167.88 121.16 167.8 122.81 167.11 122.95C166.78 123.02 166.44 122.89 166.13 122.76C165.86 122.65 165.59 122.53 165.32 122.4C165.04 122.27 164.75 122.12 164.54 121.89C164.23 121.55 164.12 121.06 164.15 120.6C164.17 119.96 164.25 119.33 164.37 118.71Z" fill="#587A91"/>
<path d="M95.3399 115.73C96.7999 115.64 98.4699 115.38 99.7699 114.66C100.82 114.07 101.55 112.98 101.79 111.81C99.9099 112.13 98.1099 112.11 96.2099 112.1C95.4499 112.09 94.6799 112.09 93.9399 111.91C94.8399 111.54 95.6899 111.07 96.4899 110.51C96.7699 110.32 97.0699 110.05 97.0299 109.71C96.9999 109.44 96.7499 109.24 96.4799 109.19C96.2099 109.14 95.9399 109.21 95.6899 109.3C94.7299 109.63 93.8699 110.21 92.9499 110.65C91.9199 111.14 90.4499 111.5 89.3499 111.05C89.0399 110.92 88.5599 110.9 88.2799 111.12C88.1099 111.25 87.9999 111.45 87.9099 111.65C87.5799 112.36 87.4599 113.16 87.5499 113.94C87.5599 114.01 87.5699 114.09 87.5999 114.16C87.6399 114.25 87.7199 114.31 87.7999 114.38C89.8799 116.05 92.8199 115.88 95.3399 115.73Z" fill="#FBC49B"/>
<path d="M188.89 102.04C186.91 99.1398 183.57 97.3398 180.15 97.5298C177.42 97.6798 176.05 100.69 174.88 102.85C173.63 105.15 172.4 107.68 170.07 109.08C167.38 110.7 172.64 115.33 174.1 116.21C176.06 117.38 178.28 118.06 180.52 118.51C181.39 118.69 181.52 118.73 182.06 118.08C182.72 117.27 183.49 117.2 184.51 116.83C186.91 115.98 187.42 113.94 188.7 112.11C189.33 111.2 189.62 109.72 189.84 108.65C190.3 106.41 190.19 104 188.89 102.04Z" fill="#FACE49"/>
<path d="M181.67 98.6599C181.59 99.4299 182.21 99.9499 182.89 100.2C183.64 100.47 184.52 100.67 185.32 100.7C185.65 100.71 185.99 100.69 186.29 100.55C186.81 100.29 186.79 99.8099 186.88 99.3099C186.99 98.6699 187.16 98.0299 187.3 97.3899C187.59 96.1099 187.9 94.8399 188.19 93.5599L183.11 92.3999C182.94 93.1599 182.76 93.9299 182.59 94.6899C182.35 95.7299 182 96.7299 181.83 97.7799C181.77 98.0999 181.69 98.3899 181.67 98.6599Z" fill="#F89D6F"/>
<path d="M29.5599 115.44C29.7099 117.34 30.3099 119.17 31.1399 120.87C31.5299 121.66 31.8599 122.25 32.0899 123.08C32.2899 123.79 32.4699 124.63 33.0399 125.16C33.1499 125.27 33.3399 125.18 33.4699 125.09C34.3299 124.45 34.9099 123.47 35.2099 122.43C35.5099 121.39 35.5399 120.3 35.4699 119.22C35.3399 117.46 34.5999 116.1 33.4199 114.82C32.8299 114.18 32.1699 113.55 31.3399 113.33C30.9999 113.24 30.6299 113.23 30.3199 113.38C29.6199 113.72 29.4999 114.67 29.5599 115.44Z" fill="#614F40"/>
<path d="M24.64 136.71C30.2402 136.71 34.78 131.422 34.78 124.9C34.78 118.377 30.2402 113.09 24.64 113.09C19.0398 113.09 14.5 118.377 14.5 124.9C14.5 131.422 19.0398 136.71 24.64 136.71Z" fill="#FBC49B"/>
<path d="M28.0798 117.23C29.2798 117.27 30.4698 117.21 31.6498 116.95C32.6798 116.72 33.6898 116.13 34.1498 115.17C34.3598 114.74 34.4498 114.25 34.4598 113.77C34.5198 111.58 33.0398 109.56 31.1298 108.47C28.8398 107.17 25.5198 106.81 22.9298 106.98C17.8998 107.31 12.9198 111.63 11.7198 116.48C11.2498 118.35 11.1898 120.3 11.2198 122.22C11.2398 123.93 11.1798 125.27 12.0398 126.8C12.8398 128.21 13.9998 129.43 15.3898 130.26C16.2798 127.71 16.7398 125 16.7398 122.3C16.7398 121.21 16.6798 120.07 17.1098 119.06C17.7498 117.56 19.6198 116.66 21.1898 116.67C23.4798 116.72 25.7798 117.16 28.0798 117.23Z" fill="#614F40"/>
<path d="M10.83 125.47C9.99998 126.1 9.87998 127.6 10.17 128.71C10.64 130.5 11.45 131.37 13.35 131.51C14.53 131.6 16.09 131.6 16.23 130.14C16.43 128.03 14.36 125.78 12.41 125.26C11.72 125.09 11.21 125.2 10.83 125.47Z" fill="#FBC49B"/>
<path d="M177.52 81.96C179.35 81.39 181.53 79.51 181.99 78.28C182.56 76.78 182.49 75.1 182.12 73.54C181.99 73 181.82 72.46 181.47 72.02C180.51 70.8 178.02 70.94 176.87 71.82C176.55 72.06 176.29 72.37 176.06 72.7C174.6 74.82 174.7 77.6 174.84 80.16C174.96 82.07 176.14 82.39 177.52 81.96Z" fill="#5E3729"/>
<path d="M177.3 76.13C177.37 76.53 177.57 76.88 177.95 77.17C179.06 78 181.18 76.32 181.76 75.32C182.33 74.34 182.84 72.36 181.26 72.03C179.6 71.69 176.99 74.31 177.3 76.13Z" fill="#5BBE95"/>
<path d="M176.6 78.1699C175.4 80.2599 174.95 82.8499 175.73 85.1299C176.6 81.1899 179.66 78.1099 182.92 75.7399C183.26 75.4899 183.63 75.2199 183.72 74.8099C183.93 73.9199 182.94 73.4399 182.23 73.3499C181.39 73.2399 180.91 73.6699 180.26 74.1599C178.8 75.2499 177.5 76.5799 176.6 78.1699Z" fill="#5E3729"/>
<path d="M195.358 87.5382C196.806 81.1788 193.553 75.0156 188.093 73.7724C182.633 72.5291 177.033 76.6766 175.585 83.036C174.137 89.3955 177.389 95.5586 182.849 96.8019C188.31 98.0451 193.91 93.8976 195.358 87.5382Z" fill="#FBC49B"/>
<path d="M199.33 82.6299C199.49 84.8699 199.12 87.1999 198.34 89.2999C197.93 90.4099 197.39 91.4899 196.67 92.4299C195.93 93.4099 195.14 94.3599 193.83 93.6599C193.73 93.5999 193.62 93.5399 193.55 93.4399C193.08 92.8199 193.78 91.4999 194.05 90.9199C194.49 89.9899 194.61 88.9399 194.63 87.9199C194.66 86.5799 194.53 85.2199 194.78 83.8999C193.71 83.6999 192.58 83.4999 191.61 82.9699C190.57 82.4099 190.12 81.2999 189.88 80.1899C188.15 81.1199 185.91 80.7099 184.34 79.5299C184.21 79.4299 184.09 79.3299 183.97 79.2299C182.62 78.0599 181.75 76.3799 181.22 74.6499C181.11 74.2799 181.01 73.8799 181.12 73.5099C181.25 73.0599 181.66 72.7599 182.07 72.5199C185.27 70.6799 189.41 70.3999 192.8 71.9699C196.9 73.8699 199.01 78.3099 199.33 82.6299Z" fill="#5E3729"/>
<path d="M197.89 101.9C198.58 101.74 198.81 100.89 198.84 100.19C198.87 99.4902 198.87 98.6702 199.44 98.2402C199.76 98.3602 199.89 98.7402 199.93 99.0802C199.97 99.4202 199.98 99.7902 200.21 100.04C200.26 100.1 200.32 100.14 200.39 100.15C200.49 100.16 200.58 100.11 200.66 100.05C201.36 99.5902 202.06 99.1302 202.76 98.6702C203.06 98.4702 203.51 98.3002 203.72 98.5802C204.03 98.9802 203.41 99.6302 203.08 99.7802C202.85 99.8802 202.58 100 202.53 100.25C202.52 100.28 202.52 100.31 202.53 100.33C202.56 100.38 202.63 100.38 202.69 100.37C203.28 100.27 203.84 100.05 204.42 99.8902C204.62 99.8402 204.82 99.7802 205.03 99.8102C205.23 99.8302 205.44 99.9502 205.51 100.15C205.41 100.5 205.05 100.68 204.71 100.81C204.21 101.01 203.69 101.17 203.16 101.29C203.03 101.32 202.88 101.39 202.89 101.52C203.39 101.63 203.74 101.7 204.25 101.71C204.62 101.72 205.02 101.85 205.21 102.16C205.15 102.43 204.83 102.53 204.56 102.57C204.04 102.64 203.5 102.61 202.97 102.62C202.86 102.62 202.75 102.63 202.65 102.68C202.55 102.73 202.48 102.85 202.52 102.95C202.54 103.02 202.6 103.06 202.65 103.11C202.99 103.38 203.33 103.64 203.67 103.91C203.74 103.97 203.82 104.03 203.85 104.11C204.03 104.59 203.34 104.48 203.14 104.37C202.84 104.21 202.56 103.99 202.25 103.82C201.13 103.2 199.76 103.45 198.51 103.72" fill="#FBC49B"/>
<path d="M186.26 100.8C186.56 100.1 187.54 100.09 188.29 100.22C190.03 100.51 191.78 100.83 193.54 100.92C194.92 100.99 197.24 101.09 198.37 100.18C199.66 101.28 199.88 103.85 198.63 105.08C198.33 105.38 197.94 105.57 197.54 105.71C195.68 106.35 193.47 106.12 191.54 106.2C190.89 106.23 190.34 106.2 189.76 106.51C189.43 106.69 187.55 107.57 187.7 108.07C187.46 107.26 187.34 106.42 187.33 105.57C187.33 105.02 187.37 104.44 187.16 103.93C186.81 103.09 185.86 101.75 186.26 100.8Z" fill="#FACE49"/>
<path d="M197.8 90.0801C198.47 90.8801 198.26 92.3701 197.72 93.3901C196.86 95.0301 195.89 95.7001 194 95.4201C192.83 95.2501 191.31 94.9001 191.5 93.4401C191.77 91.3301 194.29 89.6001 196.31 89.5301C197.02 89.5101 197.5 89.7301 197.8 90.0801Z" fill="#FBC49B"/>
<path d="M167.94 98.4799C167.27 98.2599 167.12 97.3899 167.15 96.6899C167.19 95.9899 167.26 95.1699 166.74 94.6899C166.41 94.7799 166.25 95.1399 166.18 95.4799C166.11 95.8099 166.06 96.1799 165.81 96.4099C165.76 96.4599 165.69 96.4999 165.62 96.5099C165.52 96.5099 165.44 96.4499 165.36 96.3899C164.7 95.8699 164.05 95.3499 163.39 94.8199C163.11 94.5999 162.68 94.3799 162.44 94.6399C162.1 95.0099 162.65 95.7199 162.97 95.8899C163.19 96.0099 163.45 96.1599 163.48 96.4099C163.48 96.4399 163.48 96.4699 163.47 96.4899C163.44 96.5399 163.36 96.5299 163.31 96.5199C162.73 96.3699 162.19 96.0899 161.63 95.8899C161.44 95.8199 161.24 95.7499 161.03 95.7499C160.82 95.7499 160.61 95.8499 160.52 96.0399C160.58 96.3899 160.93 96.6099 161.26 96.7799C161.74 97.0199 162.24 97.2299 162.76 97.3999C162.88 97.4399 163.03 97.5199 163.01 97.6499C162.5 97.7199 162.15 97.7499 161.63 97.7099C161.26 97.6799 160.85 97.7699 160.63 98.0699C160.66 98.3399 160.98 98.4699 161.24 98.5299C161.76 98.6499 162.29 98.6599 162.81 98.7199C162.92 98.7299 163.03 98.7499 163.12 98.8099C163.21 98.8699 163.27 98.9899 163.23 99.0899C163.2 99.1499 163.14 99.1999 163.08 99.2299C162.72 99.4599 162.35 99.6999 161.99 99.9299C161.91 99.9799 161.83 100.03 161.79 100.12C161.57 100.58 162.26 100.53 162.47 100.45C162.78 100.32 163.09 100.12 163.4 99.9799C164.57 99.4699 165.92 99.8399 167.13 100.22" fill="#FBC49B"/>
<path d="M205.65 77.3001C207.62 78.1401 208.91 80.1201 209.45 82.1901C209.99 84.2601 209.89 86.4301 209.78 88.5701C209.76 89.0101 209.73 89.4601 209.52 89.8501C209.02 90.7701 207.77 90.8901 206.73 90.8901C205.15 90.8901 203.56 90.9001 202.03 90.5401C201.88 90.5101 201.73 90.4701 201.62 90.3601C201.44 90.2001 201.43 89.9301 201.42 89.6901C201.36 87.5901 201.43 85.4601 201.03 83.3801C200.76 81.9901 199.3 79.2101 200.35 77.9201C201.42 76.6101 204.29 76.7201 205.65 77.3001Z" fill="#5E3729"/>
<path d="M198.09 81.9001C198.24 82.9401 198.4 84.2301 199.68 84.2001C200.8 84.1701 201.51 83.0501 201.56 82.0301C201.62 80.7801 201.24 78.9101 199.9 78.4501C199.38 78.2701 198.77 78.3801 198.34 78.7301C197.27 79.5901 197.94 80.8101 198.09 81.9001Z" fill="#67A58A"/>
<path d="M179.62 98.4502C179.39 97.7202 178.41 97.6302 177.65 97.6802C175.89 97.8002 174.12 97.9702 172.36 97.9002C170.97 97.8402 168.66 97.7302 167.62 96.7202C166.23 97.7002 165.78 100.23 166.91 101.57C167.18 101.89 167.56 102.12 167.94 102.3C169.24 102.89 170.72 102.92 172.14 102.94C173.31 102.96 174.49 102.97 175.64 102.74C176.55 102.55 177.47 102.14 178.16 101.45C178.77 100.85 179.91 99.3402 179.62 98.4502Z" fill="#FACE49"/>
<path d="M97.27 46.3299C97.51 45.9899 97.88 45.7899 98.25 45.6799C98.63 45.5699 99.02 45.5599 99.39 45.6099C99.76 45.6799 100.13 45.7999 100.45 46.0099C100.77 46.2199 101.06 46.4899 101.22 46.8799C100.41 46.8899 99.83 46.8099 99.22 46.7199C98.6 46.6299 98.06 46.5199 97.27 46.3299Z" fill="#B07460"/>
<path d="M102.72 53.28C102.73 54.03 101.72 54.66 100.46 54.69C99.2 54.71 98.17 54.13 98.15 53.37C98.14 52.62 99.15 51.99 100.41 51.96C101.67 51.94 102.7 52.53 102.72 53.28Z" fill="#F58C7D"/>
<path d="M97.6203 49.6C97.6403 50.45 98.0903 51.14 98.6303 51.13C99.1703 51.12 99.5803 50.43 99.5603 49.57C99.5403 48.72 99.0903 48.04 98.5503 48.04C98.0203 48.05 97.6003 48.74 97.6203 49.6Z" fill="#3D2318"/>
<path d="M88.0404 46.4298C87.2604 46.6498 86.7304 46.7798 86.1104 46.9098C85.5004 47.0198 84.9204 47.1198 84.1104 47.1498C84.2504 46.7598 84.5303 46.4698 84.8403 46.2498C85.1503 46.0198 85.5103 45.8898 85.8803 45.8098C86.2503 45.7498 86.6403 45.7298 87.0203 45.8298C87.4103 45.9198 87.7904 46.0998 88.0404 46.4298Z" fill="#B07460"/>
<path d="M82.8702 53.5897C82.8802 54.3397 83.9202 54.9297 85.1802 54.9097C86.4402 54.8897 87.4502 54.2597 87.4402 53.4997C87.4302 52.7497 86.3902 52.1597 85.1302 52.1797C83.8702 52.2097 82.8602 52.8397 82.8702 53.5897Z" fill="#F58C7D"/>
<path d="M87.8001 49.6497C87.8201 50.4997 87.4001 51.1997 86.8701 51.2097C86.3301 51.2197 85.8801 50.5297 85.8601 49.6797C85.8401 48.8297 86.2601 48.1297 86.7901 48.1197C87.3301 48.1097 87.7801 48.7997 87.8001 49.6497Z" fill="#3D2318"/>
<path d="M94.14 54.4999C94.14 54.8399 93.55 55.1199 92.81 55.1199C92.08 55.1199 91.48 54.8399 91.48 54.4999C91.48 54.1599 92.07 53.8799 92.81 53.8799C93.54 53.8799 94.14 54.1599 94.14 54.4999Z" fill="#E69B7F"/>
<path d="M93.6501 61.0098C91.3301 61.2298 89.1801 59.8598 88.6601 57.5398C88.6501 57.4998 88.6401 57.4498 88.6301 57.4098C88.6201 57.3598 88.6101 57.3198 88.6001 57.2698C88.6001 57.2698 90.1201 57.9398 93.2401 57.8798C96.3501 57.8198 97.6601 57.0998 97.6701 57.0898C97.6401 57.1098 97.6201 57.3698 97.6101 57.3998C97.4201 58.2498 97.1401 58.9998 96.5401 59.6398C95.8001 60.4498 94.7501 60.8998 93.6501 61.0098Z" fill="#821518"/>
<path d="M95.9201 58.2899C95.0901 58.6099 94.1001 58.6799 93.2201 58.6999C92.4201 58.7199 91.6201 58.6499 90.8301 58.4999C90.2301 58.3799 89.5201 58.1699 89.4301 57.4599C89.3801 57.0599 89.6101 56.7299 90.0301 56.7199L96.2201 56.5999C96.5801 56.5899 96.8701 56.8799 96.8801 57.2399C96.9001 57.7599 96.4301 58.0899 95.9201 58.2899Z" fill="#FDFEFF"/>
<path d="M95.2401 62.1L91.2401 62.18C90.7101 62.19 90.2701 61.77 90.2601 61.24C90.2501 60.86 90.4901 60.57 90.8001 60.4C91.1701 60.19 91.6001 60.11 92.0101 60.03C92.9501 59.85 93.8901 59.89 94.8201 60.09C95.3901 60.21 96.1501 60.43 96.1601 61.13C96.1901 61.65 95.7701 62.09 95.2401 62.1Z" fill="#F598AB"/>
<path d="M169.49 54.8298C169.77 54.5198 170.15 54.3598 170.53 54.2998C170.92 54.2298 171.3 54.2698 171.67 54.3598C172.03 54.4698 172.38 54.6298 172.68 54.8798C172.97 55.1198 173.23 55.4298 173.35 55.8298C172.54 55.7498 171.98 55.6098 171.38 55.4498C170.77 55.2698 170.24 55.0998 169.49 54.8298Z" fill="#B07460"/>
<path d="M174.12 62.3398C174.05 63.0898 172.98 63.5998 171.72 63.4898C170.46 63.3698 169.5 62.6698 169.57 61.9198C169.64 61.1698 170.71 60.6598 171.97 60.7698C173.23 60.8898 174.19 61.5898 174.12 62.3398Z" fill="#F58C7D"/>
<path d="M169.47 58.1102C169.4 58.9602 169.77 59.6902 170.3 59.7402C170.83 59.7902 171.33 59.1502 171.4 58.3002C171.47 57.4502 171.1 56.7202 170.57 56.6702C170.04 56.6202 169.54 57.2602 169.47 58.1102Z" fill="#3D2318"/>
<path d="M160.3 53.9C159.5 54.03 158.96 54.1 158.33 54.16C157.71 54.2 157.13 54.24 156.32 54.17C156.51 53.79 156.82 53.54 157.15 53.36C157.48 53.17 157.86 53.08 158.24 53.03C158.62 53.01 159.01 53.04 159.37 53.18C159.74 53.32 160.09 53.54 160.3 53.9Z" fill="#B07460"/>
<path d="M155.07 60.5002C155 61.2502 155.81 61.9402 156.87 62.0302C157.93 62.1302 158.85 61.6002 158.92 60.8502C158.99 60.1002 158.18 59.4102 157.12 59.3202C156.05 59.2302 155.14 59.7502 155.07 60.5002Z" fill="#F58C7D"/>
<path d="M159.71 57.0702C159.64 57.9202 159.14 58.5602 158.61 58.5102C158.08 58.4602 157.7 57.7302 157.78 56.8802C157.85 56.0302 158.35 55.3902 158.88 55.4402C159.41 55.4902 159.78 56.2202 159.71 57.0702Z" fill="#3D2318"/>
<path d="M165.46 62.6002C165.42 62.9402 164.8 63.1502 164.07 63.0702C163.34 62.9902 162.78 62.6502 162.82 62.3102C162.86 61.9702 163.48 61.7602 164.21 61.8402C164.94 61.9102 165.5 62.2602 165.46 62.6002Z" fill="#E69B7F"/>
<path d="M164.25 69.0102C161.92 68.9702 159.94 67.3602 159.67 65.0102C159.67 64.9702 159.66 64.9202 159.66 64.8802C159.66 64.8302 159.65 64.7902 159.65 64.7402C159.65 64.7402 161.09 65.5802 164.19 65.8602C167.29 66.1502 168.67 65.5802 168.68 65.5702C168.65 65.5802 168.6 65.8402 168.59 65.8702C168.31 66.6902 167.94 67.4102 167.28 67.9802C166.44 68.7002 165.35 69.0302 164.25 69.0102Z" fill="#821518"/>
<path d="M166.81 66.56C165.95 66.79 164.96 66.75 164.08 66.67C163.28 66.6 162.49 66.44 161.73 66.2C161.15 66.02 160.46 65.73 160.45 65.01C160.45 64.6 160.71 64.3 161.13 64.34L167.3 64.91C167.66 64.94 167.92 65.26 167.89 65.62C167.84 66.15 167.34 66.42 166.81 66.56Z" fill="#FDFEFF"/>
<path d="M165.71 70.2698L161.73 69.8998C161.2 69.8498 160.82 69.3798 160.86 68.8598C160.89 68.4898 161.16 68.2198 161.49 68.0798C161.88 67.9198 162.32 67.8798 162.74 67.8498C163.69 67.7798 164.62 67.9198 165.53 68.2198C166.08 68.3998 166.81 68.6998 166.75 69.4098C166.7 69.9298 166.23 70.3198 165.71 70.2698Z" fill="#F598AB"/>
<path d="M162.21 57.5299C161.93 59.9199 159.77 61.6299 157.38 61.3499C154.99 61.0699 153.28 58.9099 153.56 56.5199C153.84 54.1299 156 52.4199 158.39 52.6999C160.78 52.9799 162.49 55.1399 162.21 57.5299Z" stroke="#3D2318" stroke-width="0.5661" stroke-miterlimit="10"/>
<path d="M174.374 59.8546C175.144 57.5728 173.918 55.0992 171.636 54.3296C169.354 53.56 166.881 54.7859 166.111 57.0677C165.342 59.3495 166.568 61.8231 168.849 62.5927C171.131 63.3623 173.605 62.1364 174.374 59.8546Z" stroke="#3D2318" stroke-width="0.5661" stroke-miterlimit="10"/>
<path d="M162.23 57.29C163.41 56.64 165.15 56.82 165.99 57.69" stroke="#3D2318" stroke-width="0.5661" stroke-miterlimit="10"/>
<path d="M174.56 58.98L178.02 59.74" stroke="#3D2318" stroke-width="0.5661" stroke-miterlimit="10"/>
<path d="M181.18 59.5099C182.07 60.2499 182.46 61.4299 182.2 62.5599C181.92 63.7799 180.79 64.7599 179.74 65.3599C178.49 66.0799 175.05 66.5199 174.85 64.4599C174.73 63.2499 175.83 61.6199 176.59 60.7399C177.71 59.4399 179.57 58.1699 181.18 59.5099Z" fill="#FBC49B"/>
<path d="M130.06 30.5597C130.32 30.2297 130.7 30.0597 131.08 29.9797C131.46 29.8897 131.85 29.9197 132.22 29.9897C132.59 30.0797 132.95 30.2297 133.25 30.4597C133.56 30.6897 133.83 30.9797 133.96 31.3797C133.15 31.3397 132.58 31.2197 131.97 31.0897C131.36 30.9397 130.83 30.7997 130.06 30.5597Z" fill="#353B4B"/>
<path d="M135.03 37.8496C135 38.5996 133.95 39.1596 132.69 39.1096C131.43 39.0496 130.44 38.3996 130.47 37.6396C130.5 36.8896 131.55 36.3296 132.81 36.3796C134.07 36.4296 135.07 37.0996 135.03 37.8496Z" fill="#F58C7D"/>
<path d="M130.19 33.8396C130.15 34.6896 130.56 35.3996 131.1 35.4296C131.64 35.4596 132.1 34.7896 132.13 33.9396C132.17 33.0896 131.76 32.3796 131.22 32.3496C130.69 32.3196 130.23 32.9896 130.19 33.8396Z" fill="#3D2318"/>
<path d="M120.84 30.0598C120.05 30.2298 119.51 30.3198 118.89 30.4098C118.27 30.4798 117.69 30.5498 116.88 30.5098C117.05 30.1298 117.35 29.8498 117.67 29.6598C118 29.4598 118.36 29.3398 118.74 29.2898C119.12 29.2498 119.51 29.2598 119.88 29.3898C120.25 29.4998 120.61 29.7098 120.84 30.0598Z" fill="#353B4B"/>
<path d="M115.92 36.8996C115.89 37.6496 116.72 38.2996 117.79 38.3496C118.86 38.3996 119.75 37.8296 119.78 37.0796C119.81 36.3296 118.98 35.6796 117.91 35.6296C116.84 35.5796 115.95 36.1396 115.92 36.8996Z" fill="#F58C7D"/>
<path d="M120.39 33.2497C120.35 34.0997 119.89 34.7697 119.36 34.7397C118.82 34.7097 118.42 33.9997 118.45 33.1497C118.49 32.2997 118.95 31.6297 119.48 31.6597C120.02 31.6897 120.43 32.3997 120.39 33.2497Z" fill="#3D2318"/>
<path d="M126.39 38.5096C126.37 38.8496 125.76 39.0896 125.03 39.0396C124.3 38.9896 123.72 38.6796 123.75 38.3296C123.77 37.9896 124.38 37.7496 125.11 37.7996C125.84 37.8496 126.42 38.1696 126.39 38.5096Z" fill="#E69B7F"/>
<path d="M125.49 44.9697C123.16 45.0397 121.11 43.5197 120.73 41.1797C120.72 41.1397 120.72 41.0897 120.71 41.0497C120.7 40.9997 120.7 40.9597 120.69 40.9097C120.69 40.9097 122.17 41.6797 125.28 41.8197C128.39 41.9597 129.74 41.3297 129.75 41.3197C129.72 41.3297 129.68 41.5897 129.67 41.6297C129.43 42.4597 129.09 43.1997 128.46 43.7997C127.66 44.5597 126.58 44.9397 125.49 44.9697Z" fill="white"/>
<path d="M46.83 51.0396C45.78 51.2996 44.89 51.4496 43.96 51.6096C43.02 51.7496 42.12 51.8996 41.04 51.9396C41.37 51.4996 41.82 51.1896 42.29 50.9596C42.76 50.7196 43.27 50.5796 43.78 50.4896C44.3 50.4196 44.82 50.3896 45.35 50.4696C45.86 50.5596 46.39 50.7196 46.83 51.0396Z" fill="#57585C"/>
<path d="M40.5002 58.3999C40.5302 59.1499 41.5802 59.7099 42.8402 59.6599C44.1002 59.5999 45.0902 58.9499 45.0602 58.1899C45.0302 57.4399 43.9802 56.8799 42.7202 56.9299C41.4602 56.9799 40.4702 57.6499 40.5002 58.3999Z" fill="#F58C7D"/>
<path d="M45.3504 54.3899C45.3904 55.2399 44.9804 55.9499 44.4404 55.9799C43.9004 56.0099 43.4404 55.3399 43.4104 54.4899C43.3704 53.6399 43.7804 52.9299 44.3204 52.8999C44.8504 52.8699 45.3104 53.5299 45.3504 54.3899Z" fill="#3D2318"/>
<path d="M53.7402 50.6498C54.0702 50.2898 54.5002 50.0798 54.9402 49.9698C55.3802 49.8398 55.8402 49.8298 56.2902 49.8598C56.7402 49.9098 57.1802 50.0098 57.5902 50.2098C58.0002 50.3998 58.3902 50.6698 58.6602 51.0698C57.7202 51.1098 56.9702 51.0498 56.1802 50.9898C55.3902 50.8898 54.6602 50.8098 53.7402 50.6498Z" fill="#57585C"/>
<path d="M59.6201 57.4396C59.6501 58.1896 58.8201 58.8396 57.7501 58.8896C56.6801 58.9396 55.7901 58.3696 55.7601 57.6196C55.7301 56.8696 56.5601 56.2196 57.6301 56.1696C58.6901 56.1196 59.5901 56.6896 59.6201 57.4396Z" fill="#F58C7D"/>
<path d="M55.1502 53.7897C55.1902 54.6397 55.6502 55.3097 56.1802 55.2797C56.7202 55.2497 57.1202 54.5397 57.0902 53.6897C57.0502 52.8397 56.5902 52.1697 56.0602 52.1997C55.5202 52.2297 55.1102 52.9397 55.1502 53.7897Z" fill="#3D2318"/>
<path d="M49.1402 59.0496C49.1602 59.3896 49.7702 59.6296 50.5002 59.5796C51.2302 59.5296 51.8101 59.2196 51.7801 58.8696C51.7601 58.5296 51.1501 58.2896 50.4201 58.3396C49.7001 58.3896 49.1202 58.7096 49.1402 59.0496Z" fill="#E69B7F"/>
<path d="M50.05 65.5097C52.38 65.5797 54.43 64.0597 54.81 61.7197C54.82 61.6797 54.82 61.6297 54.83 61.5897C54.84 61.5397 54.84 61.4997 54.85 61.4497C54.85 61.4497 53.37 62.2197 50.26 62.3597C47.15 62.4997 45.8 61.8697 45.79 61.8597C45.82 61.8697 45.86 62.1297 45.87 62.1697C46.11 62.9997 46.45 63.7397 47.08 64.3397C47.88 65.0997 48.96 65.4797 50.05 65.5097Z" fill="white"/>
<path d="M29.9497 122.12C30.1497 121.79 30.4697 121.6 30.7897 121.5C31.1197 121.39 31.4597 121.38 31.7997 121.43C32.1297 121.49 32.4497 121.6 32.7297 121.8C33.0097 121.99 33.2597 122.25 33.3797 122.61C32.6497 122.67 32.1597 122.62 31.6297 122.55C31.0997 122.45 30.6497 122.34 29.9497 122.12Z" fill="#B07460"/>
<path d="M34.1698 128.16C34.1798 128.81 33.4198 129.36 32.4698 129.38C31.5198 129.4 30.7298 128.89 30.7198 128.23C30.7098 127.58 31.4698 127.03 32.4198 127.01C33.3798 126.99 34.1598 127.5 34.1698 128.16Z" fill="#F58C7D"/>
<path d="M30.2601 124.95C30.2801 125.69 30.6701 126.28 31.1301 126.27C31.5901 126.26 31.9601 125.66 31.9401 124.92C31.9201 124.18 31.5301 123.59 31.0701 123.6C30.6101 123.61 30.2401 124.21 30.2601 124.95Z" fill="#3D2318"/>
<path d="M21.95 122.21C21.26 122.46 20.82 122.59 20.29 122.7C19.77 122.8 19.28 122.86 18.54 122.83C18.65 122.46 18.88 122.19 19.15 121.99C19.42 121.78 19.74 121.66 20.06 121.59C20.39 121.54 20.73 121.53 21.07 121.62C21.41 121.71 21.74 121.89 21.95 122.21Z" fill="#B07460"/>
<path d="M17.4698 128.42C17.4798 129.07 18.3798 129.58 19.4698 129.56C20.5598 129.54 21.4398 128.99 21.4298 128.34C21.4198 127.69 20.5198 127.18 19.4298 127.2C18.3298 127.22 17.4598 127.76 17.4698 128.42Z" fill="#F58C7D"/>
<path d="M21.7399 124.99C21.7599 125.73 21.3999 126.33 20.9299 126.34C20.4699 126.35 20.0699 125.75 20.0599 125.02C20.0399 124.28 20.3999 123.68 20.8699 123.67C21.3399 123.66 21.7299 124.26 21.7399 124.99Z" fill="#3D2318"/>
<path d="M27.2399 128.07C27.2399 128.37 26.7199 128.61 26.0899 128.61C25.4499 128.61 24.9399 128.37 24.9399 128.07C24.9399 127.77 25.4599 127.53 26.0899 127.53C26.7199 127.53 27.2399 127.77 27.2399 128.07Z" fill="#E69B7F"/>
<path d="M26.5199 133.15C24.5099 133.34 22.6399 132.15 22.1899 130.14C22.1799 130.1 22.1699 130.06 22.1699 130.03C22.1599 129.99 22.1499 129.95 22.1499 129.91C22.1499 129.91 23.4699 130.49 26.1699 130.44C28.8699 130.39 29.9999 129.76 30.0099 129.76C29.9799 129.77 29.9699 130 29.9599 130.03C29.7999 130.76 29.5499 131.42 29.0299 131.97C28.3699 132.67 27.4599 133.06 26.5199 133.15Z" fill="#821518"/>
<path d="M28.49 130.79C27.77 131.07 26.91 131.13 26.15 131.15C25.46 131.17 24.76 131.11 24.08 130.98C23.56 130.88 22.94 130.7 22.87 130.08C22.83 129.73 23.02 129.45 23.39 129.44L28.76 129.33C29.07 129.32 29.33 129.57 29.33 129.88C29.33 130.33 28.93 130.62 28.49 130.79Z" fill="#FDFEFF"/>
<path d="M27.8902 134.101L24.4202 134.171C23.9602 134.181 23.5802 133.811 23.5702 133.361C23.5602 133.031 23.7702 132.781 24.0402 132.631C24.3602 132.451 24.7402 132.381 25.0902 132.311C25.9102 132.151 26.7202 132.191 27.5302 132.361C28.0202 132.461 28.6802 132.65 28.6902 133.26C28.7202 133.71 28.3502 134.091 27.8902 134.101Z" fill="#F598AB"/>
<path d="M181.2 81.5102C180.47 81.5302 180.01 81.5202 179.47 81.4602C178.94 81.3902 178.46 81.3002 177.77 81.0402C177.98 80.7202 178.29 80.5402 178.61 80.4402C178.93 80.3302 179.27 80.3102 179.6 80.3402C179.93 80.3902 180.26 80.4902 180.55 80.6902C180.84 80.8702 181.1 81.1402 181.2 81.5102Z" fill="#B07460"/>
<path d="M175.49 86.16C175.3 86.78 175.89 87.52 176.8 87.79C177.71 88.07 178.61 87.79 178.8 87.16C178.99 86.54 178.4 85.8 177.49 85.53C176.58 85.26 175.68 85.54 175.49 86.16Z" fill="#F58C7D"/>
<path d="M180.13 84.1504C179.91 84.8604 179.37 85.3204 178.93 85.1904C178.48 85.0604 178.3 84.3804 178.52 83.6704C178.74 82.9604 179.28 82.5004 179.72 82.6304C180.17 82.7604 180.35 83.4404 180.13 84.1504Z" fill="#3D2318"/>
<path d="M188.87 83.7802C189.16 83.5302 189.52 83.4502 189.86 83.4502C190.21 83.4502 190.54 83.5502 190.84 83.6902C191.13 83.8502 191.4 84.0502 191.61 84.3302C191.81 84.6002 191.97 84.9202 191.97 85.3002C191.25 85.1302 190.8 84.9302 190.33 84.7002C189.86 84.4502 189.47 84.2102 188.87 83.7802Z" fill="#B07460"/>
<path d="M191.49 90.9804C191.3 91.6004 190.3 91.8504 189.25 91.5304C188.2 91.2104 187.51 90.4504 187.7 89.8204C187.89 89.2004 188.89 88.9504 189.94 89.2704C190.99 89.5904 191.68 90.3504 191.49 90.9804Z" fill="#F58C7D"/>
<path d="M188.31 86.5205C188.09 87.2305 188.28 87.9005 188.72 88.0405C189.17 88.1705 189.7 87.7105 189.92 87.0005C190.14 86.2905 189.95 85.6205 189.51 85.4805C189.07 85.3505 188.53 85.8105 188.31 86.5205Z" fill="#3D2318"/>
<path d="M182.19 87.9803C182.11 88.2703 182.54 88.6403 183.15 88.8103C183.76 88.9803 184.32 88.8903 184.4 88.6103C184.48 88.3203 184.05 87.9503 183.44 87.7803C182.83 87.6003 182.27 87.6903 182.19 87.9803Z" fill="#E69B7F"/>
<path d="M181.49 93.0598C183.37 93.7898 185.49 93.1498 186.48 91.3498C186.5 91.3198 186.52 91.2798 186.53 91.2498C186.55 91.2098 186.57 91.1798 186.58 91.1398C186.58 91.1398 185.15 91.3399 182.56 90.5499C179.98 89.7599 179.06 88.8498 179.05 88.8398C179.07 88.8598 179.03 89.0798 179.03 89.1098C178.99 89.8598 179.04 90.5599 179.39 91.2299C179.84 92.0899 180.61 92.7098 181.49 93.0598Z" fill="#821518"/>
<path d="M180.25 90.25C180.87 90.71 181.68 91.01 182.4 91.23C183.06 91.44 183.75 91.57 184.44 91.63C184.96 91.67 185.61 91.67 185.85 91.09C185.99 90.76 185.87 90.44 185.52 90.33L180.38 88.76C180.08 88.67 179.77 88.84 179.68 89.13C179.55 89.58 179.87 89.97 180.25 90.25Z" fill="#FDFEFF"/>
<path d="M179.91 93.5902L183.23 94.6002C183.67 94.7302 184.13 94.4902 184.27 94.0502C184.37 93.7402 184.24 93.4402 184.02 93.2202C183.76 92.9602 183.42 92.7902 183.1 92.6202C182.36 92.2502 181.56 92.0602 180.74 92.0002C180.24 91.9602 179.55 91.9702 179.37 92.5502C179.23 93.0002 179.47 93.4602 179.91 93.5902Z" fill="#F598AB"/>
<path d="M139.21 111.33C139.55 113.25 140.43 115.07 141.72 116.52C142.3 117.17 142.97 117.76 143.75 118.14C144.54 118.52 145.45 118.67 146.29 118.44" stroke="#84889B" stroke-width="0.5661" stroke-miterlimit="10"/>
<path d="M114.03 116.19C114.78 116.34 115.56 116.12 116.25 115.81C117.96 115.05 119.49 113.63 119.83 111.79" stroke="#9193A8" stroke-width="0.5661" stroke-miterlimit="10"/>
<path d="M143.37 69.8101H134.6V72.6601H143.37V69.8101Z" fill="#0A8672"/>
<path d="M105.2 88.3301C105.34 88.8501 105.54 89.2301 105.76 89.6001C105.99 89.9601 106.23 90.3001 106.52 90.6101C106.79 90.9301 107.1 91.2301 107.42 91.5201C107.75 91.8101 108.09 92.0901 108.55 92.3701C108.04 92.5601 107.47 92.4801 106.97 92.2801C106.46 92.0801 106.03 91.7501 105.67 91.3501C105.33 90.9401 105.05 90.4501 104.94 89.9001C104.82 89.3701 104.88 88.7601 105.2 88.3301Z" fill="#EC573C"/>
<path d="M112.8 90.35C112.55 90.58 112.18 90.59 111.89 90.49C111.58 90.4 111.35 90.19 111.16 89.96C110.99 89.71 110.88 89.43 110.87 89.13C110.86 88.83 110.95 88.5 111.21 88.29C111.42 88.55 111.57 88.7 111.71 88.86C111.85 89.01 111.96 89.16 112.07 89.3C112.17 89.45 112.27 89.59 112.37 89.76C112.47 89.92 112.57 90.1 112.8 90.35Z" fill="#743717"/>
<path d="M109.83 86.4199C109.58 86.6499 109.21 86.6599 108.92 86.5599C108.61 86.4699 108.38 86.2599 108.19 86.0299C108.02 85.7799 107.91 85.4999 107.9 85.1999C107.89 84.8999 107.98 84.5699 108.24 84.3599C108.45 84.6199 108.6 84.7699 108.74 84.9299C108.88 85.0799 108.99 85.2299 109.1 85.3699C109.2 85.5199 109.3 85.6599 109.4 85.8299C109.51 85.9899 109.6 86.1799 109.83 86.4199Z" fill="#743717"/>
<path d="M34.0698 134.79C38.2198 135.08 42.4098 132.37 43.8498 128.46" stroke="#876656" stroke-width="0.5661" stroke-miterlimit="10"/>
<path d="M64.5698 127.49C64.9898 128.69 65.5798 129.84 66.3098 130.88C66.7398 131.49 67.2298 132.07 67.8598 132.45C68.4898 132.84 69.2898 133.01 69.9898 132.78" stroke="#967255" stroke-width="0.5661" stroke-miterlimit="10"/>
<path d="M43.5498 47.6702C44.5398 47.4002 45.5398 47.2102 46.5598 47.0602C47.5698 46.9002 48.5898 46.8102 49.6098 46.7402C50.6298 46.6902 51.6498 46.6602 52.6798 46.7002C53.6998 46.7302 54.7198 46.8002 55.7398 46.9602C54.7198 47.0402 53.6998 47.0802 52.6898 47.1402L49.6498 47.3102L46.6098 47.4902C45.5898 47.5502 44.5798 47.6202 43.5498 47.6702Z" fill="#E69B7F"/>
<path d="M45.25 45.7302C45.95 45.4602 46.67 45.2702 47.39 45.1202C48.12 44.9602 48.85 44.8702 49.59 44.8002C50.33 44.7502 51.07 44.7202 51.82 44.7602C52.56 44.7902 53.3 44.8602 54.03 45.0202C53.29 45.1002 52.56 45.1402 51.82 45.2002L49.63 45.3702L47.44 45.5502C46.73 45.6102 46 45.6902 45.25 45.7302Z" fill="#E69B7F"/>
<path d="M177.14 67.4C177.941 67.4 178.59 66.7508 178.59 65.95C178.59 65.1492 177.941 64.5 177.14 64.5C176.339 64.5 175.69 65.1492 175.69 65.95C175.69 66.7508 176.339 67.4 177.14 67.4Z" fill="#EFA435"/>
</g>
<defs>
<clipPath id="clip0_377:2">
<rect width="209.87" height="196.25" fill="white"/>
</clipPath>
</defs>
</svg>
