<svg width="203" height="204" viewBox="0 0 203 204" fill="none" xmlns="http://www.w3.org/2000/svg">
<g clip-path="url(#clip0_251:799)">
<path d="M178.56 168.78C173.42 174.08 168.82 177.19 165.3 179.55C130.95 202.49 91.69 195.87 79.55 193.62C59.96 189.97 43.43 187.4 29.23 174.57C-3.05 145.41 -1.48001 84.57 23.19 46.89C26.11 42.42 50.74 5.92 90.09 0.770005C91.05 0.640005 91.77 0.570005 92.4 0.510005C98.49 -0.129995 136.21 -3.54 166.97 22.23C171.37 25.92 178.46 32.57 185.03 42.72C209.04 79.82 209.12 137.29 178.56 168.78Z" fill="#D0EDF5"/>
<path d="M153.67 203.01C170.454 203.01 184.06 202.061 184.06 200.89C184.06 199.719 170.454 198.77 153.67 198.77C136.886 198.77 123.28 199.719 123.28 200.89C123.28 202.061 136.886 203.01 153.67 203.01Z" fill="#A7A9AC"/>
<path d="M139.84 90.26C140.14 90.72 141.21 95.77 141.21 95.77L161.9 95.01L162.76 86.31L139.84 90.26Z" fill="#F2925C"/>
<path d="M140.17 91.24C140.04 90.74 139.92 90.37 139.85 90.26L162.77 86.31L162.16 92.38C154.87 91.58 147.47 91.95 140.17 91.24Z" fill="#E57331"/>
<path d="M174.1 187.89L176.53 200.1C176.53 200.1 178.97 197.36 179.63 197.32C180.83 197.24 182.38 195.01 182.38 195.01L182.23 188.04L174.1 187.89Z" fill="#F8A271"/>
<path d="M178.21 185.61L179.88 198.79L182.85 198.9L182.23 185.7L178.21 185.61Z" fill="#F2925C"/>
<path d="M183.53 197.75L185.2 201.19C185.59 201.81 185.37 202.55 184.67 202.98C183.53 203.69 178.29 204.29 177.11 203.75C176.32 203.39 175.6 203.5 175.7 202.81L175.96 199.47C175.97 199.39 177.27 196.88 179.83 196.78C181.86 196.71 183.49 197.69 183.53 197.75Z" fill="#D4137D"/>
<path d="M181.8 198.01C181.8 198.01 179.37 196.89 177.68 198.58" stroke="#29354F" stroke-width="0.2354" stroke-miterlimit="10"/>
<path d="M181.96 199.37C181.96 199.37 179.53 198.25 177.84 199.94" stroke="#29354F" stroke-width="0.2354" stroke-miterlimit="10"/>
<path d="M133.77 113.94C135.8 101.55 140.75 94.51 140.75 94.51L162 93.9C162 93.9 166.92 104 168.98 111.2C172.44 123.3 183.01 189.83 183.01 189.83C176.46 190.94 174.11 191.32 174.11 191.32C174.11 191.32 159.78 149.13 152.58 123.08C152.11 121.38 150.94 121.55 150.95 123.31C151 132.16 147.78 191.91 147.78 191.91L139.8 191.71C139.75 192.07 137.86 174.62 134.6 151.91C132.41 136.74 132.02 125.55 133.77 113.94Z" fill="#133055"/>
<path opacity="0.48" d="M140.76 94.51L168.99 111.21C168.99 111.21 164.13 98.06 162.01 93.91L140.76 94.51Z" fill="#133055"/>
<path d="M147.76 189.92L147.46 200.73C147.46 200.73 145.56 201.9 143.08 201.15C140.79 200.46 139.64 197.83 139.64 197.83L139.05 189.79L147.76 189.92Z" fill="#F8A271"/>
<path d="M143.54 190.2L143.65 202.6L147.41 200.63L147.58 190.75L143.54 190.2Z" fill="#F2925C"/>
<path d="M139.59 197.52L135.06 199.8C133.91 200.38 133.2 201.53 133.3 202.75C133.33 203.06 133.4 203.28 133.54 203.28C133.54 203.28 147.45 203.2 147.47 203C147.59 201.76 147.74 201.22 147.52 200.1C147.49 199.94 144.8 200.91 143.71 200.54C142.97 200.28 139.59 197.52 139.59 197.52Z" fill="#D4137D"/>
<path d="M138.64 197.97L141.09 200.29" stroke="#29354F" stroke-width="0.2285" stroke-miterlimit="10"/>
<path d="M137.44 198.56L139.89 200.88" stroke="#29354F" stroke-width="0.2285" stroke-miterlimit="10"/>
<path d="M141.13 188.61C141.13 188.61 127.39 124.71 140.83 98.15" stroke="white" stroke-width="0.2241" stroke-miterlimit="10"/>
<path opacity="0.48" d="M148.23 179.06C147.77 186.53 147.62 191.48 147.62 191.48L139.35 191.77C139.33 191.9 139.77 189.14 138.94 184.88C143.49 184.62 144.74 181.76 148.23 179.06Z" fill="#133055"/>
<path d="M138.22 193.55L148.83 192.81L149.03 189.42L137.75 188.53L138.22 193.55Z" fill="#566CB3"/>
<path d="M163.93 97.24L138.93 98" stroke="white" stroke-width="0.2241" stroke-miterlimit="10"/>
<path d="M178.47 186.86C178.47 186.86 174.15 120.53 161.32 97.24" stroke="white" stroke-width="0.2241" stroke-miterlimit="10"/>
<path opacity="0.48" d="M174.94 184.45C177.3 182.84 179.47 180.91 181.12 178.63C182.08 185.61 182.91 189.89 182.91 189.89C176.36 191 175.72 190.83 175.72 190.83C175.72 190.83 173.99 188.93 173.01 185.96C173.9 185.45 174.1 185.02 174.94 184.45Z" fill="#133055"/>
<path d="M117.73 56.84C118.31 56.9 119.4 59.76 119.56 59.62C119.72 59.49 118.36 56.46 118.81 56.35C119.26 56.25 120.35 59.1 120.64 59.13C120.93 59.16 119.42 56.11 120.02 56.03C120.62 55.94 121.98 58.98 122.29 58.86C122.6 58.74 120.76 55.96 121.38 55.73C121.99 55.5 124.71 60.08 124.84 60.24C124.97 60.4 126.45 57.59 127.14 57.32C127.8 57.07 127.65 58.11 127.65 58.11C126.87 60.76 126.28 60.53 126.9 65.18C127.69 68.31 130.61 76.88 132.02 80.9C132.02 80.9 138.29 63.4 144.55 66.22C154.81 67.95 137.37 90.01 133.51 93.72C129.77 97.31 126.07 95.67 124.82 91.42C122.24 82.6 121.4 71.83 121.19 68.25L121.03 67.28C121.03 67.28 119.59 63.82 118.64 60.34C118.4 59.46 117.3 56.8 117.73 56.84Z" fill="#F2925C"/>
<path d="M146.28 66.54C146.28 66.54 141.51 63.09 138.78 66.43C136.05 69.77 133.92 75.69 133.92 75.69L138.17 81.61L146.28 66.54Z" fill="#4057A6"/>
<path d="M139.24 60.66C137.77 56.75 144.1 53.57 144.1 49.02C144.1 46.52 146.52 44.09 149.48 43.89C159.5 43.22 159.94 47.07 159.59 52.29C159.52 53.39 164.14 59.18 160.18 60.43C154.61 62.19 144.72 59.96 139.24 60.66Z" fill="#D4137D"/>
<path d="M154.57 55.65C154.57 55.65 157.3 54.03 156.39 51.55C154.11 45.33 151.23 49.43 151.23 49.43L154.57 55.65Z" fill="#E88851"/>
<path d="M143.98 57.03C143.98 55.67 145.09 54.56 146.45 54.56C147.81 54.56 148.92 55.67 148.92 57.03C148.92 58.39 147.81 59.5 146.45 59.5C145.09 59.5 143.98 58.39 143.98 57.03Z" stroke="white" stroke-width="0.4564" stroke-miterlimit="10"/>
<path d="M152.21 51.18C152.26 51.29 153.57 52.73 153.67 52.67C154.08 52.41 155.12 51.92 155.87 53C156.63 54.09 155.23 55.33 154.63 55.76C154.46 55.88 154.34 56.07 154.29 56.29C154.15 56.96 154.43 58.01 154.3 60.21C154.19 62.13 155.47 67 155.47 67C155.47 67 140.61 80.06 146.28 66.22L147.72 58.94C147.72 58.94 143.27 59.53 143.58 53.62C143.58 48.65 146.14 47.81 146.93 47.5C147.61 47.23 149.55 45.81 152.21 51.18Z" fill="#F8A271"/>
<path d="M147.48 58.92L149.31 58.74C149.31 58.75 148.26 60.89 147.48 58.92Z" fill="#F26633"/>
<path d="M155.47 53.89C155.47 53.89 154.76 52.26 153.85 54.44L155.47 53.89Z" fill="#F26633"/>
<path d="M145.46 47.61C145.46 47.61 147.96 51.86 151.99 50.04C151.99 50.04 149.56 40.25 145.46 47.61Z" fill="#D4137D"/>
<path d="M148.71 53.73C148.07 54.02 147.79 54.77 148.08 55.41C148.37 56.05 149.12 56.33 149.76 56.04C150.4 55.75 150.68 55 150.39 54.36C150.1 53.73 149.35 53.44 148.71 53.73Z" fill="#F47F57"/>
<path d="M143.8 56.06C144.53 55.82 144.69 54.93 144.43 54.36C144.27 54.01 143.93 53.76 143.58 53.66C143.58 53.66 143.47 55.2 143.8 56.06Z" fill="#F47F57"/>
<path d="M145.05 55.27L147.23 55.3C147.23 55.3 146.77 56.2 145.95 56.16C145.13 56.11 145.05 55.27 145.05 55.27Z" fill="white"/>
<path d="M145.6 53.56L145.85 54.43L145.31 54.45C145.21 54.45 145.14 54.35 145.19 54.26L145.6 53.56Z" fill="#F26633"/>
<path d="M147.71 51.59C147.96 51.78 147.6 50.97 147.26 50.86C146.92 50.75 146.57 50.91 146.47 51.2C146.47 51.21 147.12 51.14 147.71 51.59Z" fill="#010101"/>
<path d="M144.07 51.73C144.43 51.43 144.96 51.52 144.96 51.52C144.86 51.23 144.58 51.03 144.27 51.21C144.13 51.29 143.92 51.48 144.07 51.73Z" fill="#010101"/>
<path d="M146.88 53.33C146.9 53.67 146.79 53.95 146.62 53.96C146.46 53.97 146.31 53.71 146.29 53.37C146.27 53.03 146.38 52.75 146.55 52.74C146.71 52.73 146.86 52.99 146.88 53.33Z" fill="#010101"/>
<path d="M144.9 53.38C144.92 53.7 144.81 53.97 144.66 53.98C144.5 53.99 144.36 53.74 144.34 53.42C144.32 53.1 144.43 52.83 144.58 52.82C144.74 52.8 144.88 53.06 144.9 53.38Z" fill="#010101"/>
<path d="M155.27 59.44C156.634 59.44 157.74 58.3341 157.74 56.97C157.74 55.6059 156.634 54.5 155.27 54.5C153.906 54.5 152.8 55.6059 152.8 56.97C152.8 58.3341 153.906 59.44 155.27 59.44Z" stroke="white" stroke-width="0.4564" stroke-miterlimit="10"/>
<path d="M138.63 74.78C142.17 68.48 144.47 67.25 145.84 66.36L145.98 66.54C147.47 68.55 149.96 68.48 152.4 67.9C154.12 67.49 155.37 66.29 155.41 66.58C157.74 66.73 162.06 69.3 162.06 69.3C164.95 84.69 167.11 86.7 166.72 90.41C150.33 91.47 137.73 91.47 137.73 91.47C136.91 84.36 134.6 81.95 138.63 74.78Z" fill="#566CB3"/>
<path d="M150.96 87.8C153.14 85.35 155.09 82.65 156.46 79.65C158.18 75.89 158.35 72.07 159.24 68.1C159.26 68.02 159.27 67.93 159.28 67.85C160.79 68.56 162.04 69.3 162.04 69.3C165.13 85.5 167.09 86.7 166.7 90.41C159.22 90.89 152.54 91.16 147.47 91.3C148.7 90.19 149.87 89.03 150.96 87.8Z" fill="#4057A6"/>
<path d="M127.31 67.66L121.67 70.56C120.75 71.04 119.61 70.63 119.14 69.65L113.72 58.45C113.25 57.47 113.61 56.3 114.54 55.82L120.18 52.92C121.1 52.44 122.24 52.85 122.71 53.83L128.13 65.03C128.61 66 128.24 67.18 127.31 67.66Z" fill="#133055"/>
<path opacity="0.91" d="M120.58 53.73L119.77 54.15L119.9 54.42C120.12 54.87 119.95 55.41 119.52 55.63L117.08 56.88C116.65 57.1 116.13 56.91 115.91 56.46L115.78 56.19L114.93 56.63C114.43 56.89 114.24 57.52 114.49 58.04L119.91 69.24C120.16 69.76 120.77 69.98 121.27 69.73L126.91 66.83C127.41 66.57 127.6 65.94 127.35 65.42L121.93 54.22C121.69 53.7 121.08 53.48 120.58 53.73Z" fill="white"/>
<path d="M119.62 68.71L119.96 69.41C120.2 69.91 120.79 70.12 121.26 69.88L127.04 66.91C127.52 66.66 127.71 66.06 127.46 65.55L127.12 64.85L119.62 68.71Z" fill="#133055"/>
<path d="M123.06 68.28C123.08 68.32 123.12 68.32 123.16 68.3C123.2 68.28 123.22 68.25 123.2 68.2" fill="white"/>
<path d="M122.9 68.28C122.91 68.32 122.91 68.34 122.91 68.34L123.32 68.13C123.32 68.13 123.3 68.11 123.28 68.08L122.9 68.28Z" fill="white"/>
<path d="M122.89 68.25L123.26 68.06C123.24 68.03 123.21 67.99 123.19 67.93C123.14 67.84 123.05 67.8 122.97 67.82C122.95 67.79 122.92 67.77 122.9 67.78C122.88 67.79 122.87 67.82 122.89 67.85C122.82 67.91 122.79 68.02 122.84 68.11C122.86 68.17 122.88 68.21 122.89 68.25Z" fill="white"/>
<path d="M124.43 67.25C124.39 67.21 124.35 67.15 124.37 67.1C124.39 67.03 124.5 67.03 124.56 67.06C124.57 67 124.63 66.91 124.7 66.93C124.75 66.95 124.78 67.01 124.78 67.07C124.8 67.23 124.7 67.36 124.7 67.36C124.7 67.36 124.55 67.36 124.43 67.25Z" fill="white"/>
<path d="M126.48 66.45L126.33 66.43C126.33 66.38 126.32 66.34 126.29 66.29C126.21 66.17 126.06 66.13 125.94 66.21C125.82 66.29 125.79 66.45 125.87 66.57C125.95 66.69 126.1 66.73 126.22 66.65C126.27 66.61 126.31 66.56 126.32 66.5L126.47 66.52C126.48 66.52 126.49 66.52 126.49 66.51C126.5 66.5 126.51 66.49 126.51 66.48C126.51 66.48 126.5 66.46 126.48 66.45ZM126.19 66.62C126.09 66.68 125.97 66.65 125.9 66.55C125.84 66.45 125.86 66.31 125.96 66.25C126.06 66.19 126.18 66.22 126.25 66.32C126.28 66.36 126.29 66.41 126.28 66.46C126.28 66.53 126.25 66.58 126.19 66.62Z" fill="white"/>
<path d="M121.71 68.68L121.84 68.96L121.44 69.17L121.31 68.89" fill="white"/>
<path d="M121.26 69.01L121.4 68.56L121.83 68.72" fill="white"/>
<path d="M121.71 69.05L121.6 69.11L121.53 68.97C121.51 68.94 121.53 68.9 121.56 68.88C121.59 68.86 121.63 68.88 121.64 68.91L121.71 69.05Z" fill="white"/>
<path d="M116.53 56.27L118.63 55.19" stroke="white" stroke-width="0.1478" stroke-miterlimit="10" stroke-linecap="round"/>
<path d="M119.1 54.91C119.07 54.85 119 54.83 118.95 54.85C118.89 54.88 118.87 54.95 118.9 55.01C118.93 55.07 119 55.09 119.05 55.07C119.1 55.04 119.12 54.97 119.1 54.91Z" fill="white"/>
<path d="M125.88 75.54C125.88 75.54 143.91 98.76 148.35 96.43C148.35 96.43 169.08 74.71 160.74 66.61C155.78 61.8 153.03 72.51 146.33 81.05C146.13 81.31 130.4 71.98 130.4 71.98C130.4 71.98 124.92 62.31 124.39 62.75C123.62 63.39 125.68 67.65 125.68 67.65C125.68 67.65 125.45 68.08 124.92 68.23C124.39 68.39 124.06 68.69 123.81 69.34C123.55 69.99 122.83 70.29 122.67 70.67C122.48 71.05 124.59 74.32 125.88 75.54Z" fill="#F8A271"/>
<path d="M158.35 65.03C161.89 65.08 165.94 70.11 164.54 76.6C163.43 81.74 162.52 83.66 162.52 83.66C162.52 83.66 147.34 77.8 147.95 76.19C149.56 71.94 153.72 64.97 158.35 65.03Z" fill="#566CB3"/>
<path d="M173.92 193.11L183.92 190.69L183.62 185.45L172.86 188.99L173.92 193.11Z" fill="#566CB3"/>
<path d="M32.99 194.72C51.2099 194.72 65.98 193.869 65.98 192.82C65.98 191.771 51.2099 190.92 32.99 190.92C14.7701 190.92 0 191.771 0 192.82C0 193.869 14.7701 194.72 32.99 194.72Z" fill="#A7A9AC"/>
<path d="M55.84 185.23L54.65 177.94L47.44 178.21L47.27 185.23L50.65 191.33L56.75 186.45L55.84 185.23Z" fill="#F58675"/>
<path d="M50.35 178.47L51.15 188.76C51.15 188.76 49.28 187.66 47.09 185.62L47.2 178.6L50.35 178.47Z" fill="#CC3736"/>
<path d="M56.28 185.14L56.1 180.89C56.1 180.89 47.81 181.76 47.13 181.14C46.99 181.01 47.01 185.18 46.99 185.4L46.14 193.46H67.58C67.83 193.46 68.03 193.19 68.03 192.85L67.96 192.35C67.81 191.24 67.11 190.29 66.1 189.81L56.28 185.14Z" fill="#566CB3"/>
<path d="M55.84 185.23C55.84 185.23 51.87 181.4 51.02 183.77C50.18 186.14 55.84 185.23 55.84 185.23Z" stroke="white" stroke-width="0.3102" stroke-miterlimit="10"/>
<path d="M19.16 184.63L21.69 177.29L14.37 176.11L12.33 185.23L15.72 191.33L21.81 186.45L19.16 184.63Z" fill="#F58675"/>
<path d="M17.02 176.77L14.37 188.44C14.37 188.44 14.52 187.18 12.34 185.14L13.87 176.9L17.02 176.77Z" fill="#CC3736"/>
<path d="M21.34 185.14C21.34 185.14 22 184.07 22 181.31C22 180.8 13.29 180.91 12.61 180.29C12.47 180.16 12.08 185.18 12.06 185.4L11.21 193.46H32.65C32.9 193.46 33.1 193.19 33.1 192.85L33.06 192.54C32.89 191.31 32.12 190.25 31 189.72L21.34 185.14Z" fill="#566CB3"/>
<path d="M21.15 185.4C21.15 185.4 17.18 181.57 16.33 183.94C15.48 186.31 21.15 185.4 21.15 185.4Z" stroke="white" stroke-width="0.3102" stroke-miterlimit="10"/>
<path d="M54.5 87.72C54.5 87.72 54.82 121.41 55.08 130.87C55.34 140.33 55.94 179.03 55.94 179.03L46.67 179.38C46.67 179.38 36.45 112.52 25.31 89.69L54.5 87.72Z" fill="#0B152B"/>
<path d="M40.59 89.53C40.59 89.53 48.44 129.1 48.44 135.18C48.44 141.26 49.84 178.73 49.84 178.73" stroke="white" stroke-width="0.3102" stroke-miterlimit="10"/>
<path d="M50.35 86.54C50.35 86.54 44.13 114.28 40.7 133.59C35.47 149.92 22.32 178.74 22.32 178.74L13.1 178.35L23.15 136.98C23.74 134.54 24.12 132.05 24.27 129.54C24.84 120.05 22.97 100.88 22.18 88.6L50.35 86.54Z" fill="#133055"/>
<path d="M32.19 88.26C32.19 88.26 35.2 125.27 32.49 131.03C29.78 136.79 17.77 178.61 17.77 178.61" stroke="white" stroke-width="0.3102" stroke-miterlimit="10"/>
<path d="M42.99 87.94L33.39 101.02" stroke="#0B152B" stroke-width="0.3102" stroke-miterlimit="10"/>
<path d="M82.55 54.82C82.55 54.82 62.98 72.11 59.02 71.47C55.05 70.83 34.94 35.78 43.7 32.15C43.7 32.15 45.71 29.87 47.82 31.74C49.92 33.61 56.2 38.12 63.5 57.25C63.5 57.25 78.73 48.49 79.87 47.52C79.87 47.52 84.26 41.5 84.32 42.72C84.38 43.94 82.45 46.61 82.97 46.73C83.5 46.85 89.53 42.41 90.05 42.84C90.58 43.27 86.25 45.76 86.48 45.88C86.71 46 91.05 43.75 91.28 44.24C91.51 44.73 87.18 46.98 87.36 47.16C87.54 47.34 91.69 45.15 91.81 45.52C91.93 45.88 88.65 47.77 88.36 48.32C88.36 48.32 91.93 46.86 92.11 47.47C92.27 48.07 82.55 54.82 82.55 54.82Z" fill="#F27B68"/>
<path d="M53.22 55.23L62.55 49.2C62.55 49.2 50.51 28.49 45.94 29.33L53.22 55.23Z" fill="#FDC60D"/>
<path d="M83.96 46.25L82.32 49.17C82.32 49.17 82.99 46.89 82.82 46.65L83.96 46.25Z" fill="#AB5425"/>
<path d="M18.36 44.73C18.51 40.92 19.47 34 22.76 31.36C26.07 28.71 27.96 27.47 31.96 26.08L33.31 25.61L35.12 24.93L38.8 29.99C40.15 31.24 41.55 28.77 41.55 28.77L42.03 27.39L45.95 29.33C46.95 29.46 48.49 32.71 49.84 35.93C51.05 38.79 52.74 46.99 52.89 50.15L58.14 98.89L22.09 101.43C22.08 101.43 17.88 57.15 18.36 44.73Z" fill="#FFE2A6"/>
<path d="M18.8 40.37C19.95 43.15 21.26 45.87 22.54 48.5C30.84 65.59 38.91 82.76 47.56 99.63L22.08 101.42C22.08 101.42 17.88 57.14 18.36 44.72C18.41 43.52 18.54 41.98 18.8 40.37Z" fill="#FDC60D"/>
<path d="M57.46 94.66L21.91 97.37" stroke="white" stroke-width="0.1345" stroke-miterlimit="10"/>
<path d="M45.69 71.35C45.77 72 45.67 72.56 45.47 72.58C45.27 72.61 45.03 72.1 44.95 71.45C44.87 70.8 44.97 70.24 45.17 70.22C45.38 70.2 45.61 70.7 45.69 71.35Z" fill="white"/>
<path d="M41.02 3.64001C39.32 4.89001 37.28 10.47 37.09 16.69L38.9 17.82L39.5 15.83L39.61 15.72L39.72 15.61L40.83 16.49L44.3 8.62001C44.66 8.50001 46.95 7.83001 47.67 8.94001C48.41 10.07 49.29 11.21 50.31 11.14C50.76 11.11 51.25 10.81 51.64 10.52C52.32 10.35 52.9 9.89001 53.36 9.31001C55.02 7.50001 54.1 5.78001 52.38 4.52001C49.95 2.70001 43.75 1.07001 41.02 3.64001ZM38.38 14.07C38.61 14.24 38.94 14.54 39.16 15.02L38.76 14.59L38.38 14.07Z" fill="#0B152B"/>
<path d="M38.11 17.2L34.64 25.24C34.64 25.24 36.57 28.73 37.43 29.72C40.78 33.56 42.11 28.99 42.11 28.99L43.89 24.52L39.45 16.41C39.45 16.41 38.23 16.82 38.02 17.04C37.81 17.27 38.11 17.2 38.11 17.2Z" fill="#F58675"/>
<path d="M39.45 16.42L43.89 24.53C43.89 24.53 43.65 26 42.37 26.26C40.58 26.61 39.48 24.07 39.22 20" fill="#CC3736"/>
<path d="M40.48 14.89C40.34 15.07 40.09 15.05 39.99 14.85C39.66 14.19 38.12 12.76 37.12 14.64C35.77 17.18 38.63 17.6 38.73 18.04C38.93 18.92 40.03 20.93 41.81 22.57C42.9 23.57 45.2 26.46 47.05 25.52C48.9 24.58 48.91 22.63 52.55 9.84002C52.55 9.84002 52.73 9.89002 51.7 9.92002C50.67 9.95002 50.59 9.06002 49.64 8.42002C48.87 7.90002 45.22 6.41002 43.21 9.15002C42.29 10.41 41.29 13.86 40.48 14.89Z" fill="#F58675"/>
<path d="M49.15 19.66C49.15 19.66 48.17 19.82 46.18 18.95C46.18 18.95 46.62 21.31 47.53 21.28C48.43 21.24 49.15 19.66 49.15 19.66Z" fill="white"/>
<path d="M37.93 14.73L39 16.31C39 16.31 39.35 13.43 37.93 14.73Z" fill="#CC3736"/>
<path d="M48.52 16.31C48.39 16.71 48.13 16.99 47.94 16.93C47.75 16.87 47.7 16.49 47.83 16.09C47.96 15.69 48.22 15.41 48.41 15.47C48.6 15.53 48.65 15.91 48.52 16.31Z" fill="#0B152B"/>
<path d="M50.2099 16.74C50.0799 17.13 49.8299 17.4 49.6399 17.34C49.4599 17.28 49.4099 16.91 49.5399 16.52C49.6699 16.13 49.9199 15.86 50.1099 15.92C50.2899 15.98 50.3399 16.35 50.2099 16.74Z" fill="#0B152B"/>
<path d="M47.02 13.09C46.51 13.25 48.13 11.75 48.74 11.78C49.35 11.81 49.55 12.58 49.5 13.13C49.5 13.13 48.23 12.7 47.02 13.09Z" fill="#0B152B"/>
<path d="M51.19 14.84C50.63 14.57 50.17 14.54 50.17 14.54C50.4 14.08 51.03 13.58 51.55 13.74" fill="#0B152B"/>
<path d="M49.15 17.04L49.25 18.84C49.25 18.89 49.12 19.19 49.08 19.18L48.32 19.01C48.28 19 48.27 18.96 48.28 18.92L49.03 17.02C49.06 16.96 49.15 16.97 49.15 17.04Z" fill="#CC3736"/>
<path d="M40.47 11.62C40.47 11.62 43.83 -4.41998 52.74 9.12002L53.95 8.18002C53.95 8.18002 53.84 12.3 51.41 13.14L51.64 10.57C50.75 11 49.39 11.43 47.35 11.56C47.35 11.56 48.16 10.36 48.67 9.66002C48.08 10.24 46.64 11.21 43.91 11.39L45.12 9.13002C44.93 9.49002 43.57 11.79 40.92 11.79C38.05 11.79 40.47 11.62 40.47 11.62Z" fill="#0B152B"/>
<path d="M64.3 46.26L64.69 42.1C64.73 41.7 64.18 41.57 64.03 41.94C63.33 43.77 62.46 46.23 62.43 47.23C62.41 48.12 62.55 49.2 62.55 49.2L53.57 61.32C52.33 62.75 51.5 63.17 50.41 61.35C47.11 55.82 36.9 45.89 36.77 45.77L27.01 60.04L46.1 77.54C48.33 79.75 53.15 78.33 54.61 75.61C60.03 65.52 70.26 48.3 70.91 47.19C71.28 46.56 68.78 44.19 68.6 44.12C68.42 44.04 69.95 38.41 69.33 38.49C68.71 38.57 67.29 42.05 66.81 42.93C66.33 43.81 64.28 46.87 64.3 46.26Z" fill="#F58675"/>
<path d="M45.61 53.19L32.41 67.58C32.41 67.58 8.54999 46.59 22.26 32.38C30.83 23.48 45.61 53.19 45.61 53.19Z" fill="#FFE2A6"/>
<path d="M43.75 50.82L30.38 64.7" stroke="white" stroke-width="0.1345" stroke-miterlimit="10"/>
<path d="M56.95 174.88L55.95 179.04L46.68 179.39L45.44 175L56.95 174.88Z" fill="#566CB3"/>
<path d="M24.51 175.19L22.25 179.28L12.27 178.27L13.28 173.64L24.51 175.19Z" fill="#566CB3"/>
<path d="M85.36 54.4L92.56 54.73C93.74 54.78 94.72 53.83 94.74 52.6L95.04 38.46C95.07 37.23 94.13 36.19 92.95 36.13L85.75 35.8C84.57 35.75 83.59 36.7 83.57 37.93L83.27 52.07C83.25 53.3 84.18 54.34 85.36 54.4Z" fill="#133055"/>
<path d="M85.73 36.83L86.76 36.88L86.75 37.22C86.74 37.79 87.17 38.27 87.71 38.29L90.82 38.43C91.36 38.45 91.82 38.01 91.83 37.45L91.84 37.11L92.93 37.16C93.56 37.19 94.07 37.75 94.05 38.41L93.75 52.55C93.74 53.21 93.21 53.73 92.58 53.7L85.38 53.37C84.75 53.34 84.24 52.78 84.26 52.12L84.56 37.98C84.57 37.32 85.1 36.8 85.73 36.83Z" fill="white"/>
<path d="M93.81 51.85L93.79 52.74C93.78 53.38 93.27 53.87 92.66 53.84L85.3 53.5C84.69 53.47 84.21 52.93 84.22 52.3L84.24 51.41L93.81 51.85Z" fill="#133055"/>
<path d="M90.06 53.03C90.06 53.08 90.02 53.1 89.97 53.1C89.92 53.1 89.88 53.07 89.88 53.02" fill="white"/>
<path d="M90.22 52.96C90.23 53.01 90.24 53.03 90.24 53.03L89.72 53.01C89.72 53.01 89.73 52.99 89.74 52.94L90.22 52.96Z" fill="white"/>
<path d="M90.21 52.92L89.73 52.9C89.74 52.86 89.74 52.8 89.75 52.74C89.76 52.63 89.83 52.54 89.93 52.52C89.93 52.48 89.95 52.45 89.98 52.45C90.01 52.45 90.03 52.48 90.03 52.52C90.13 52.55 90.21 52.65 90.21 52.76C90.2 52.82 90.21 52.88 90.21 52.92Z" fill="white"/>
<path d="M88.15 52.62C88.18 52.56 88.19 52.48 88.14 52.44C88.08 52.38 87.97 52.43 87.93 52.48C87.89 52.42 87.78 52.36 87.72 52.41C87.67 52.45 87.68 52.52 87.7 52.59C87.76 52.76 87.92 52.86 87.92 52.86C87.92 52.86 88.08 52.78 88.15 52.62Z" fill="white"/>
<path d="M85.65 52.82C85.66 52.83 85.67 52.84 85.68 52.84C85.69 52.84 85.7 52.84 85.71 52.83L85.85 52.74C85.89 52.79 85.96 52.83 86.03 52.85C86.19 52.88 86.33 52.76 86.35 52.6C86.37 52.44 86.26 52.28 86.1 52.26C85.94 52.23 85.8 52.35 85.78 52.51C85.77 52.57 85.78 52.62 85.8 52.67L85.66 52.76C85.64 52.77 85.63 52.8 85.65 52.82ZM85.86 52.68C85.83 52.63 85.82 52.57 85.82 52.51C85.84 52.38 85.96 52.28 86.08 52.3C86.21 52.32 86.3 52.45 86.28 52.58C86.26 52.71 86.14 52.81 86.02 52.79C85.96 52.79 85.9 52.74 85.86 52.68Z" fill="white"/>
<path d="M91.64 52.81V53.16L92.14 53.18L92.15 52.83" fill="white"/>
<path d="M92.26 52.93L91.9 52.54L91.54 52.9" fill="white"/>
<path d="M91.81 53.19L91.95 53.2V53.03C91.95 52.99 91.92 52.95 91.88 52.95C91.84 52.95 91.81 52.98 91.81 53.02V53.19Z" fill="white"/>
<path d="M91.13 37.53L88.44 37.41" stroke="white" stroke-width="0.1679" stroke-miterlimit="10" stroke-linecap="round"/>
<path d="M87.83 37.34C87.83 37.27 87.89 37.21 87.96 37.21C88.03 37.21 88.09 37.28 88.09 37.35C88.09 37.42 88.03 37.48 87.96 37.48C87.88 37.48 87.83 37.42 87.83 37.34Z" fill="white"/>
</g>
<defs>
<clipPath id="clip0_251:799">
<rect width="202.33" height="203.96" fill="white"/>
</clipPath>
</defs>
</svg>
